RobotoCondensed-BoldItalic.ufo
<glyph name="exclam" format="2">
  <advance width="518"/>
  <unicode hex="0021"/>
  <guideline x="0.0" y="901.0" angle="0.0" identifier="k8VNkK16Ut"/>
  <guideline x="0.0" y="555.0" angle="0.0" identifier="QEfE0kRNDZ"/>
  <outline>
    <contour>
      <point x="562.3981151409207" y="1455.9031748614323" type="line"/>
      <point x="268.47486141362924" y="1455.955225935916" type="line"/>
      <point x="127.02052648190572" y="449.0344770019391" type="line"/>
      <point x="355.4691894560967" y="449.0844750739902" type="line"/>
    </contour>
    <contour>
      <point x="35.571112531228906" y="132.33764677481713" type="curve" smooth="yes"/>
      <point x="36.35532542519346" y="46.57529306425812"/>
      <point x="98.10522695831162" y="-19.651860802684038"/>
      <point x="185.30243556219568" y="-18.0669049058419" type="curve" smooth="yes"/>
      <point x="275.0528265351092" y="-16.4355406260217"/>
      <point x="336.506569100116" y="55.64188633957319"/>
      <point x="335.77559161461005" y="143.41018812177924" type="curve" smooth="yes"/>
      <point x="335.06696967479684" y="228.49426457588663"/>
      <point x="272.5657878607034" y="295.2136074676836"/>
      <point x="186.07672255339526" y="293.5240203528432" type="curve" smooth="yes"/>
      <point x="96.51607686133197" y="291.7744290904052"/>
      <point x="34.76921816114249" y="220.03366546456527"/>
    </contour>
  </outline>
</glyph>
<glyph name="quotedbl" format="2">
  <advance width="637"/>
  <unicode hex="0022"/>
  <outline>
    <contour>
      <point x="405.63150354964426" y="1536.9349215091856" type="line"/>
      <point x="206.02472047597553" y="1536.9737216576111" type="line"/>
      <point x="182.13709962412946" y="1386.0098336945996" type="line"/>
      <point x="119.44819735796642" y="986.0333430743034" type="line"/>
      <point x="281.52525424931264" y="986.0970680489534" type="line"/>
      <point x="381.76352792972557" y="1385.840340642715" type="line"/>
    </contour>
    <contour>
      <point x="721.8525894195906" y="1536.933931218022" type="line"/>
      <point x="524.2089294498376" y="1536.9592174670136" type="line"/>
      <point x="501.6971003803293" y="1395.0080285694164" type="line"/>
      <point x="437.6007008404391" y="986.0380042876801" type="line"/>
      <point x="598.6810080811761" y="986.0957500008913" type="line"/>
      <point x="697.9844689668993" y="1385.853968469727" type="line"/>
    </contour>
  </outline>
</glyph>
<glyph name="dollar" format="2">
  <advance width="1005"/>
  <unicode hex="0024"/>
  <guideline x="0.0" y="1658.0" angle="0.0" identifier="1GzyWpUfyf"/>
  <guideline x="0.0" y="555.0" angle="0.0" identifier="zEBczW2Dwv"/>
  <outline>
    <contour>
      <point x="777.6042264261117" y="1687.9265868874122" type="line"/>
      <point x="630.3757951913601" y="1687.9326246037278" type="line"/>
      <point x="583.2023182935089" y="1391.0711894608655" type="line"/>
      <point x="730.4307495282671" y="1391.0651517445895" type="line"/>
    </contour>
    <contour>
      <point x="501.29702894264483" y="54.92562355277884" type="line"/>
      <point x="354.075622637488" y="54.93157374606563" type="line"/>
      <point x="310.923139296917" y="-215.92550727867797" type="line"/>
      <point x="458.1445456020733" y="-215.9314574719649" type="line"/>
    </contour>
    <contour>
      <point x="607.7221581866472" y="391.5218249385914" type="curve" smooth="yes"/>
      <point x="597.834629002237" y="306.14942306387996"/>
      <point x="552.6321647237157" y="213.25823047287227"/>
      <point x="454.5290623574316" y="213.5550477784631" type="curve" smooth="yes"/>
      <point x="332.1332564314111" y="213.92536423588703"/>
      <point x="336.0777414641605" y="373.3675525339859"/>
      <point x="340.9797488005345" y="458.0815976357984" type="curve"/>
      <point x="64.0045915737623" y="458.4890727597695" type="line"/>
      <point x="52.31096099314104" y="209.80567919955158"/>
      <point x="156.936376164347" y="-16.335225353427823"/>
      <point x="432.42133614212366" y="-21.906902107784074" type="curve" smooth="yes"/>
      <point x="683.1453059401352" y="-26.97778842548429"/>
      <point x="861.7112298257045" y="145.97111620240773"/>
      <point x="878.9631488312546" y="393.563271449093" type="curve" smooth="yes"/>
      <point x="895.581830808179" y="632.0674799781419"/>
      <point x="765.5763828843612" y="736.8132413781818"/>
      <point x="582.6478048166085" y="854.187128964442" type="curve" smooth="yes"/>
      <point x="505.8151623025294" y="903.4858554983721"/>
      <point x="469.0944064666342" y="971.2804720004715"/>
      <point x="478.98398205843614" y="1062.61379216137" type="curve" smooth="yes"/>
      <point x="487.1943414256615" y="1138.439025889746"/>
      <point x="521.9352705745299" y="1244.1929053811907"/>
      <point x="615.4574546113168" y="1242.45305832506" type="curve" smooth="yes"/>
      <point x="719.3885963064033" y="1240.5195674343065"/>
      <point x="708.4036895322222" y="1071.5212088551461"/>
      <point x="704.7914800563727" y="1005.8415611679492" type="curve"/>
      <point x="981.3639766178168" y="1005.5182638167765" type="line"/>
      <point x="992.0854839682621" y="1236.3406233301725"/>
      <point x="906.2290249322291" y="1471.2425995156057"/>
      <point x="641.4645569805073" y="1477.4863766843348" type="curve" smooth="yes"/>
      <point x="397.3970162926927" y="1483.242070981095"/>
      <point x="225.40251995612851" y="1298.5658006581546"/>
      <point x="208.79190307479524" y="1061.8868572388399" type="curve" smooth="yes"/>
      <point x="192.04042330658186" y="823.200807191761"/>
      <point x="322.13658888054874" y="718.751538601288"/>
      <point x="507.91723169658326" y="605.6222127677415" type="curve" smooth="yes"/>
      <point x="588.5316768705072" y="556.5328259686972"/>
      <point x="618.4562770992196" y="484.2039800537401"/>
    </contour>
  </outline>
</glyph>
<glyph name="quotesingle" format="2">
  <advance width="321"/>
  <unicode hex="0027"/>
  <guideline x="0.0" y="901.0" angle="0.0" identifier="RCLFXHssmL"/>
  <guideline x="0.0" y="555.0" angle="0.0" identifier="mVZB3nHHMw"/>
  <outline>
    <contour>
      <point x="415.1901658652297" y="1535.93478727542" type="line"/>
      <point x="206.85805599386026" y="1535.956982749244" type="line"/>
      <point x="181.23279060682142" y="1374.0086279421967" type="line"/>
      <point x="120.12863495924677" y="984.0380920985223" type="line"/>
      <point x="300.35152258036624" y="984.0741977816637" type="line"/>
      <point x="389.7540326471761" y="1375.0758326127557" type="line"/>
    </contour>
  </outline>
</glyph>
<glyph name="parenright" format="2">
  <advance width="643"/>
  <unicode hex="0029"/>
  <guideline x="0.0" y="901.0" angle="0.0" identifier="jzouOtS5xf"/>
  <guideline x="0.0" y="555.0" angle="0.0" identifier="EFozo4OH2A"/>
  <outline>
    <contour>
      <point x="539.4495529623854" y="596.7032903347601" type="line" smooth="yes"/>
      <point x="581.5982237227994" y="916.781034669817"/>
      <point x="559.2942550592488" y="1415.1727655899308"/>
      <point x="252.74394668445564" y="1615.7442200478397" type="curve"/>
      <point x="189.64280755698724" y="1461.7210420854758" type="line"/>
      <point x="378.63419501844294" y="1258.9292095222524"/>
      <point x="325.3762642767978" y="837.8989417652533"/>
      <point x="292.2985764918537" y="595.0384180701944" type="curve" smooth="yes"/>
      <point x="288.5435311615017" y="568.2685254341235" type="line" smooth="yes"/>
      <point x="243.2848163792808" y="252.28386915068995"/>
      <point x="149.64387269774994" y="-73.79029536044567"/>
      <point x="-87.70191671692959" y="-299.813737810452" type="curve"/>
      <point x="-45.26355286939484" y="-457.5742288243435" type="line"/>
      <point x="315.62566147049955" y="-283.33826271978967"/>
      <point x="484.5153292519121" y="208.0325952677743"/>
      <point x="536.220469417453" y="573.4529361538266" type="curve" smooth="yes"/>
    </contour>
  </outline>
</glyph>
<glyph name="asterisk" format="2">
  <advance width="902"/>
  <unicode hex="002A"/>
  <guideline x="0.0" y="901.0" angle="0.0" identifier="lpCGwulI2w"/>
  <guideline x="0.0" y="555.0" angle="0.0" identifier="RPEesRLQEY"/>
  <outline>
    <contour>
      <point x="136.0525661267223" y="699.9967827551615" type="line"/>
      <point x="283.39129489307305" y="583.99012086997" type="line"/>
      <point x="506.15413881502263" y="862.4877980872283" type="line"/>
      <point x="632.178463500958" y="569.5623628846896" type="line"/>
      <point x="795.4033675222189" y="674.7931088832073" type="line"/>
      <point x="634.7213024272323" y="945.6505280467076" type="line"/>
      <point x="963.8798549665764" y="1035.0261668894118" type="line"/>
      <point x="936.3616343963629" y="1227.5011645483555" type="line"/>
      <point x="627.3801399924392" y="1108.1126741486564" type="line"/>
      <point x="708.432634054349" y="1455.879821936261" type="line"/>
      <point x="515.5558083123653" y="1455.9769462943566" type="line"/>
      <point x="473.3522293376411" y="1101.3486754610303" type="line"/>
      <point x="187.56919566180454" y="1229.7211759314523" type="line"/>
      <point x="101.49193968835498" y="1057.3355015585912" type="line"/>
      <point x="391.4074601830448" y="967.5313630465005" type="line"/>
    </contour>
  </outline>
</glyph>
<glyph name="plus" format="2">
  <advance width="944"/>
  <unicode hex="002B"/>
  <outline>
    <contour>
      <point x="914.9375624875672" y="816.9102902106512" type="line"/>
      <point x="100.33928895494724" y="816.9238253033374" type="line"/>
      <point x="54.211212465272624" y="554.088080293705" type="line"/>
      <point x="868.809485997893" y="554.0745452010246" type="line"/>
    </contour>
    <contour>
      <point x="707.7552310262275" y="1205.933026511372" type="line"/>
      <point x="447.03325876747465" y="1205.9464223812597" type="line"/>
      <point x="262.9517538916202" y="146.0653665753644" type="line"/>
      <point x="523.6737261503736" y="146.05197070548223" type="line"/>
    </contour>
  </outline>
</glyph>
<glyph name="hyphen" format="2">
  <advance width="722"/>
  <unicode hex="002D"/>
  <outline>
    <contour>
      <point x="619.6857743420337" y="741.9082172652897" type="line"/>
      <point x="143.6271888481101" y="741.9212903708491" type="line"/>
      <point x="102.31713605705569" y="507.09171662121634" type="line"/>
      <point x="578.3757215509685" y="507.07864351564956" type="line"/>
    </contour>
  </outline>
</glyph>
<glyph name="zero" format="2">
  <advance width="1005"/>
  <unicode hex="0030"/>
  <guideline x="0.0" y="901.0" angle="0.0" identifier="IflZ6OikQZ"/>
  <guideline x="0.0" y="555.0" angle="0.0" identifier="LSxRxzMOpA"/>
  <outline>
    <contour>
      <point x="955.1051592043059" y="856.3392400043983" type="line" smooth="yes"/>
      <point x="987.1303218223308" y="1108.749282989787"/>
      <point x="961.565538226567" y="1467.3364928985147"/>
      <point x="634.6516319912508" y="1476.4455506883667" type="curve" smooth="yes"/>
      <point x="293.320464317914" y="1485.9563279068066"/>
      <point x="174.31842951025484" y="1135.5295938972008"/>
      <point x="133.62152729332382" y="855.8334538896139" type="curve" smooth="yes"/>
      <point x="95.01461480782261" y="601.6556684042475" type="line" smooth="yes"/>
      <point x="62.88954952854733" y="349.27222565880936"/>
      <point x="89.01273714147533" y="-11.202701768103088"/>
      <point x="416.29434941576267" y="-20.383439485241595" type="curve" smooth="yes"/>
      <point x="757.7191721579774" y="-29.960915365829102"/>
      <point x="874.5598729322263" y="324.5151814664255"/>
      <point x="916.1230549103714" y="602.6717824199577" type="curve" smooth="yes"/>
    </contour>
    <contour>
      <point x="635.9401550850994" y="563.4492724322616" type="line" smooth="yes"/>
      <point x="622.4315652684057" y="460.82403027052925"/>
      <point x="596.9077857033662" y="202.20485222928497"/>
      <point x="440.8309933053167" y="213.2002144963941" type="curve" smooth="yes"/>
      <point x="308.71134420332953" y="222.5078340480235"/>
      <point x="357.56903940852044" y="488.5899659648079"/>
      <point x="366.45700505424986" y="563.0705899128579" type="curve" smooth="yes"/>
      <point x="414.32227558631837" y="897.5934574793984" type="line" smooth="yes"/>
      <point x="427.53602536829175" y="1000.2101072236942"/>
      <point x="453.00020822895215" y="1253.821723735566"/>
      <point x="608.039022099837" y="1243.300791026105" type="curve" smooth="yes"/>
      <point x="740.1382258214894" y="1234.3365400838452"/>
      <point x="692.7613060092455" y="973.4257817508554"/>
      <point x="684.007597724435" y="898.4593435021002" type="curve" smooth="yes"/>
    </contour>
  </outline>
</glyph>
<glyph name="one" format="2">
  <advance width="1005"/>
  <unicode hex="0031"/>
  <guideline x="0.0" y="901.0" angle="0.0" identifier="MEB7UzFj6N"/>
  <guideline x="0.0" y="555.0" angle="0.0" identifier="lUXTAxcrwy"/>
  <outline>
    <contour>
      <point x="839.3057959073691" y="1458.1541950957876" type="line"/>
      <point x="804.7120320428504" y="1457.7169668880945" type="line"/>
      <point x="264.9855376244536" y="1247.5509556776894" type="line"/>
      <point x="221.55861582070446" y="1000.580295225806" type="line"/>
      <point x="509.34125753032583" y="1105.6890669529828" type="line"/>
      <point x="317.2093256621439" y="0.0" type="line"/>
      <point x="593.4474605883686" y="0.0" type="line"/>
    </contour>
  </outline>
</glyph>
<glyph name="five" format="2">
  <advance width="1005"/>
  <unicode hex="0035"/>
  <guideline x="0.0" y="1658.0" angle="0.0" identifier="m40KIEqeuH"/>
  <guideline x="0.0" y="1743.0" angle="0.0" identifier="sLQrLCmuWo"/>
  <outline>
    <contour>
      <point x="359.13054766765293" y="660.6837139591664" type="line"/>
      <point x="397.02912663627706" y="707.3300475747066"/>
      <point x="441.02105251324355" y="739.4804204331849"/>
      <point x="503.83485612468905" y="739.0213958344099" type="curve" smooth="yes"/>
      <point x="630.6292703138895" y="738.0948199585063"/>
      <point x="633.6984737523926" y="584.8498806786016"/>
      <point x="625.257833028923" y="492.11800268681714" type="curve" smooth="yes"/>
      <point x="616.023554238813" y="390.66693491116996"/>
      <point x="582.6599701814546" y="211.07719108694914"/>
      <point x="446.8943770108168" y="215.685639709478" type="curve" smooth="yes"/>
      <point x="348.67861815479415" y="219.01949085718215"/>
      <point x="333.46048400287543" y="330.1849091604108"/>
      <point x="331.07834444493466" y="406.7470947166706" type="curve"/>
      <point x="58.35123448773615" y="406.79193341758764" type="line"/>
      <point x="54.36806198710916" y="183.21206986569203"/>
      <point x="187.95398360946876" y="-15.936277308929137"/>
      <point x="426.7035233271174" y="-21.44746125706123" type="curve" smooth="yes"/>
      <point x="707.258326975139" y="-27.923658581943577"/>
      <point x="877.7317528815624" y="216.30931491167667"/>
      <point x="899.8358006479228" y="474.5967281276185" type="curve" smooth="yes"/>
      <point x="918.2357933251337" y="689.6019869844044"/>
      <point x="856.9461559821391" y="957.7776967170347"/>
      <point x="592.8102063816336" y="955.6073261398923" type="curve" smooth="yes"/>
      <point x="534.0084804937596" y="955.1241600432468"/>
      <point x="477.856222168255" y="934.8842702123104"/>
      <point x="429.89636658976156" y="901.5795730991018" type="curve"/>
      <point x="514.8588276938802" y="1213.9288692818395" type="line"/>
      <point x="970.6403729732882" y="1214.0571650543463" type="line"/>
      <point x="1008.9751420185468" y="1455.9229473426126" type="line"/>
      <point x="322.8366765611412" y="1455.8923564456823" type="line"/>
      <point x="136.93108658894758" y="719.7032131282864" type="line"/>
    </contour>
  </outline>
</glyph>
<glyph name="seven" format="2">
  <advance width="1005"/>
  <unicode hex="0037"/>
  <outline>
    <contour>
      <point x="1055.382322495369" y="1455.8930745338953" type="line"/>
      <point x="199.23206572632745" y="1455.936086218722" type="line"/>
      <point x="161.99602385876773" y="1221.0706412064183" type="line"/>
      <point x="724.2639256375071" y="1220.7747186132724" type="line"/>
      <point x="85.96637391036865" y="0.0" type="line"/>
      <point x="386.85957335583737" y="0.0" type="line"/>
      <point x="1028.0557667650223" y="1281.2636713160036" type="line"/>
    </contour>
  </outline>
</glyph>
<glyph name="eight" format="2">
  <advance width="1005"/>
  <unicode hex="0038"/>
  <guideline x="0.0" y="901.0" angle="0.0" identifier="03m2xSudFe"/>
  <guideline x="0.0" y="555.0" angle="0.0" identifier="ooJp7hRweX"/>
  <outline>
    <contour>
      <point x="872.3408183898995" y="408.555775845224" type="curve" smooth="yes"/>
      <point x="887.8892703723424" y="633.325898237772"/>
      <point x="744.3388840155095" y="801.2777729450286"/>
      <point x="516.6274851535229" y="806.4969670806796" type="curve" smooth="yes"/>
      <point x="272.40954780740594" y="812.094494621188"/>
      <point x="78.38250096741358" y="635.1091418579117"/>
      <point x="60.953494730318695" y="391.73457851300685" type="curve" smooth="yes"/>
      <point x="44.275029911585214" y="158.84039984873874"/>
      <point x="177.99526151486452" y="-14.923769917258596"/>
      <point x="417.1419859662918" y="-20.522595595327644" type="curve" smooth="yes"/>
      <point x="674.8649691660964" y="-26.556322628292705"/>
      <point x="854.847390699954" y="155.66887190300457"/>
    </contour>
    <contour>
      <point x="601.488503656699" y="428.9129430264354" type="curve" smooth="yes"/>
      <point x="593.3920352186486" y="339.38605841764985"/>
      <point x="553.1445870825103" y="211.1727363428797"/>
      <point x="442.0070488732065" y="213.33710321682275" type="curve" smooth="yes"/>
      <point x="341.80966471175657" y="215.28841420165287"/>
      <point x="334.27675468815335" y="338.2905460473496"/>
      <point x="341.13353913168487" y="413.0296223391936" type="curve" smooth="yes"/>
      <point x="349.29380300574593" y="501.9766483493789"/>
      <point x="390.8295165181186" y="632.8832054718252"/>
      <point x="501.69488429159503" y="630.6648303866644" type="curve" smooth="yes"/>
      <point x="601.4122982608072" y="628.6695217420573"/>
      <point x="608.1302405556848" y="502.3541004282173"/>
    </contour>
    <contour>
      <point x="967.5421393191054" y="1077.206002070499" type="curve" smooth="yes"/>
      <point x="982.845612511108" y="1298.0682103432707"/>
      <point x="864.1343323280066" y="1472.140185675171"/>
      <point x="633.1183686079075" y="1477.5985166618937" type="curve" smooth="yes"/>
      <point x="385.57946553602324" y="1483.447243491411"/>
      <point x="217.7465228665985" y="1300.5174308909288"/>
      <point x="202.66670129728476" y="1060.2201656414832" type="curve" smooth="yes"/>
      <point x="189.4651517171" y="849.8532029694089"/>
      <point x="330.3249476223681" y="695.1670052886637"/>
      <point x="541.4302776499238" y="690.3905626104317" type="curve" smooth="yes"/>
      <point x="769.2634319221622" y="685.2356382821824"/>
      <point x="951.7702260158759" y="849.5831901026653"/>
    </contour>
    <contour>
      <point x="688.0451727483016" y="1062.1884150455185" type="curve" smooth="yes"/>
      <point x="681.515405766163" y="986.912980685271"/>
      <point x="653.8725860882387" y="860.6070513256881"/>
      <point x="555.4954744360053" y="862.227667398031" type="curve" smooth="yes"/>
      <point x="467.49936095509355" y="863.6772720206491"/>
      <point x="469.49677037807334" y="986.7988682598995"/>
      <point x="474.9030485519179" y="1047.8027546288156" type="curve" smooth="yes"/>
      <point x="481.5703762227381" y="1123.0361937039281"/>
      <point x="510.743891867045" y="1245.5824898576898"/>
      <point x="608.1914346872028" y="1243.7276440240012" type="curve" smooth="yes"/>
      <point x="694.9808553467985" y="1242.0756680925422"/>
      <point x="693.3143038130065" y="1122.931184378893"/>
    </contour>
  </outline>
</glyph>
<glyph name="equal" format="2">
  <advance width="1000"/>
  <unicode hex="003D"/>
  <outline>
    <contour>
      <point x="935.7814992100327" y="981.9060668899523" type="line"/>
      <point x="194.9040730325787" y="981.9193228453179" type="line"/>
      <point x="153.2437985752403" y="745.0938769842815" type="line"/>
      <point x="894.1212247527064" y="745.0806210289242" type="line"/>
    </contour>
    <contour>
      <point x="860.7648838465251" y="548.9058378151136" type="line"/>
      <point x="119.88745722218935" y="548.9190911695061" type="line"/>
      <point x="78.05139720798506" y="311.0941342357428" type="line"/>
      <point x="818.9288238323173" y="311.08088088135366" type="line"/>
    </contour>
  </outline>
</glyph>
<glyph name="greater" format="2">
  <advance width="902"/>
  <unicode hex="003E"/>
  <guideline x="0.0" y="181.0" angle="0.0" identifier="EHaK5Q7ENd"/>
  <guideline x="0.0" y="526.0" angle="0.0" identifier="xiVH6hL7eu"/>
  <outline>
    <contour>
      <point x="626.3541494317005" y="601.7262578673143" type="line"/>
      <point x="824.6704680326742" y="540.0423768116359" type="line"/>
      <point x="858.4596487142007" y="731.1185221165366" type="line"/>
      <point x="204.00803150497785" y="1096.721782887101" type="line"/>
      <point x="157.14211231672596" y="829.2209198269569" type="line"/>
    </contour>
    <contour>
      <point x="87.1167224416043" y="422.03294380677954" type="line"/>
      <point x="35.54695037399934" y="129.012367889388" type="line"/>
      <point x="816.6803822043836" y="493.42118224411405" type="line"/>
      <point x="854.1321286313674" y="705.9364684302923" type="line"/>
      <point x="607.4520579220584" y="643.258716017333" type="line"/>
    </contour>
  </outline>
</glyph>
<glyph name="A" format="2">
  <advance width="1187"/>
  <unicode hex="0041"/>
  <guideline x="0.0" y="901.0" angle="0.0" identifier="NsYjsZfPmz"/>
  <guideline x="0.0" y="555.0" angle="0.0" identifier="MVosHi6mPC"/>
  <anchor x="769.3320635163637" y="1600" name="top"/>
  <anchor x="495.0602363347963" y="7" name="bottom"/>
  <anchor x="1340.6620635163636" y="1600" name="top_dd"/>
  <anchor x="993.8884620390215" y="-407" name="bottom_dd"/>
  <anchor x="1340.6620635163636" y="1600" name="top0315"/>
  <anchor x="769.3320635163637" y="1600" name="parent_top"/>
  <outline>
    <contour>
      <point x="728.1360820482076" y="1178.859937963786" type="line"/>
      <point x="803.0876558793499" y="1455.9075984826877" type="line"/>
      <point x="606.2137548171512" y="1455.7451843033718" type="line"/>
      <point x="-87.76539349008834" y="0.0" type="line"/>
      <point x="224.6702013986993" y="0.0" type="line"/>
    </contour>
    <contour>
      <point x="764.0945254089182" y="0.0" type="line"/>
      <point x="1060.4720831763116" y="0.0" type="line"/>
      <point x="868.6719264321534" y="1456.0359237991304" type="line"/>
      <point x="681.1937901572492" y="1455.9770290267031" type="line"/>
      <point x="665.2410105121028" y="1202.7760642411092" type="line"/>
    </contour>
    <contour>
      <point x="866.5210445976163" y="542.9035438292821" type="line"/>
      <point x="227.50198567641598" y="542.9167350206402" type="line"/>
      <point x="184.43684568188468" y="298.0945125955836" type="line"/>
      <point x="823.4559046030768" y="298.0813214041963" type="line"/>
    </contour>
  </outline>
</glyph>
<glyph name="B" format="2">
  <advance width="1116"/>
  <unicode hex="0042"/>
  <anchor x="688.9554482785602" y="1612" name="top"/>
  <anchor x="413.12858252534534" y="10" name="bottom"/>
  <anchor x="1268.8820635163638" y="1600" name="top_dd"/>
  <anchor x="922.1084620390216" y="-407" name="bottom_dd"/>
  <anchor x="1270.95544827856" y="1612" name="top0315"/>
  <anchor x="688.9554482785602" y="1612" name="parent_top"/>
  <outline>
    <contour>
      <point x="608.509378751368" y="633.7739349154728" type="line"/>
      <point x="696.1683006363816" y="712.9601521252262" type="line"/>
      <point x="907.2535687845398" y="724.8381707972841"/>
      <point x="1066.6286864818526" y="844.4521136958465"/>
      <point x="1081.798970385753" y="1064.4847177428353" type="curve" smooth="yes"/>
      <point x="1099.762689604227" y="1325.0338243415317"/>
      <point x="928.802080851367" y="1450.1193027090267"/>
      <point x="683.2182299892999" y="1455.164521516921" type="curve" smooth="yes"/>
      <point x="261.392337018901" y="1455.96448235977" type="line"/>
      <point x="8.750440746089609" y="0.0" type="line"/>
      <point x="296.62721130083355" y="0.0" type="line"/>
      <point x="506.74095183558006" y="1211.202024503764" type="line"/>
      <point x="670.555527842976" y="1209.9313492229169" type="line" smooth="yes"/>
      <point x="779.4562744680688" y="1205.2920079892583"/>
      <point x="802.323422608615" y="1133.0987824542908"/>
      <point x="788.1085585162451" y="1033.3101302637651" type="curve" smooth="yes"/>
      <point x="771.3190711136012" y="915.4475669643417"/>
      <point x="696.03790365415" y="847.5104201159493"/>
      <point x="576.9119481970562" y="845.4286467297643" type="curve" smooth="yes"/>
      <point x="344.2848292992003" y="847.0385656289737" type="line"/>
      <point x="307.6898437035611" y="634.0787711722915" type="line"/>
    </contour>
    <contour>
      <point x="492.4606949723775" y="0.0" type="line" smooth="yes"/>
      <point x="771.6895019851237" y="-4.060267122369161"/>
      <point x="970.5108075997118" y="150.9197951019661"/>
      <point x="990.7955106352588" y="436.7335972919168" type="curve" smooth="yes"/>
      <point x="1003.6879382710343" y="618.3893876469692"/>
      <point x="920.7907264966375" y="755.1957272466432"/>
      <point x="729.6306039643597" y="762.9912353461082" type="curve"/>
      <point x="679.7377984968205" y="846.3567162646873" type="line"/>
      <point x="391.5894775698404" y="846.9937472111067" type="line"/>
      <point x="352.05976587763996" y="634.3316251361625" type="line"/>
      <point x="611.9721055918676" y="632.5274159915978" type="line"/>
      <point x="716.3566259503604" y="626.0899334102467"/>
      <point x="719.4989072453234" y="523.5754478226411"/>
      <point x="707.4800773508103" y="439.52373239688416" type="curve" smooth="yes"/>
      <point x="691.4251224994127" y="327.24603912833123"/>
      <point x="624.5926053702997" y="245.38861234213198"/>
      <point x="506.29396590711247" y="242.40531993998792" type="curve" smooth="yes"/>
      <point x="265.25949929028894" y="243.40818161327306" type="line"/>
      <point x="111.71987151420107" y="0.0" type="line"/>
    </contour>
  </outline>
</glyph>
<glyph name="C" format="2">
  <advance width="1133"/>
  <unicode hex="0043"/>
  <guideline x="0.0" y="901.0" angle="0.0" identifier="m3GVII7W2d"/>
  <guideline x="0.0" y="555.0" angle="0.0" identifier="0koPbeMDFL"/>
  <anchor x="756.1643200244947" y="1608" name="top"/>
  <anchor x="474.9024156996327" y="-3" name="bottom"/>
  <anchor x="1286.3420635163639" y="1600" name="top_dd"/>
  <anchor x="939.5684620390216" y="-407" name="bottom_dd"/>
  <anchor x="1287.7243200244948" y="1608" name="top0315"/>
  <anchor x="756.1643200244947" y="1608" name="parent_top"/>
  <outline>
    <contour>
      <point x="760.8832268574795" y="485.09795083776885" type="line"/>
      <point x="736.5264375008957" y="334.8752754014796"/>
      <point x="688.3249331176629" y="214.73628194684247"/>
      <point x="516.2593245562911" y="222.24439273207648" type="curve" smooth="yes"/>
      <point x="320.2571496157272" y="230.7969794802626"/>
      <point x="362.57062357910365" y="466.1617716603842"/>
      <point x="379.5647992656279" y="602.9484604859125" type="curve" smooth="yes"/>
      <point x="414.57121517201256" y="853.4844764977114" type="line" smooth="yes"/>
      <point x="437.3442527209267" y="1021.3181601152121"/>
      <point x="484.30108132096154" y="1242.3940599012233"/>
      <point x="696.1417080087093" y="1234.45957653112" type="curve" smooth="yes"/>
      <point x="859.8817238467467" y="1228.3266998822876"/>
      <point x="859.3308808739185" y="1097.709781260525"/>
      <point x="852.3728649453933" y="961.9255241935394" type="curve"/>
      <point x="1140.304008392345" y="961.0256784424521" type="line"/>
      <point x="1139.8073178486825" y="1244.9177246675554"/>
      <point x="1030.7729482747957" y="1470.5098420834483"/>
      <point x="719.0801720402857" y="1477.1936815113918" type="curve" smooth="yes"/>
      <point x="353.3436364339416" y="1485.036417895779"/>
      <point x="176.82172431272937" y="1174.0922131140514"/>
      <point x="128.88325835604405" y="850.8025956773811" type="curve" smooth="yes"/>
      <point x="91.20807379284044" y="603.6668187010692" type="line" smooth="yes"/>
      <point x="51.74894036054217" y="301.33814126007695"/>
      <point x="141.3685261347954" y="-12.596498205453718"/>
      <point x="493.8204135782671" y="-20.32749257585905" type="curve" smooth="yes"/>
      <point x="810.424500733454" y="-27.272169289603816"/>
      <point x="1006.5945877734628" y="183.52391635558087"/>
      <point x="1038.5472499108462" y="488.1094926307511" type="curve"/>
    </contour>
  </outline>
</glyph>
<glyph name="D" format="2">
  <advance width="1122"/>
  <unicode hex="0044"/>
  <guideline x="0.0" y="901.0" angle="0.0" identifier="pc5zFC8kJk"/>
  <guideline x="0.0" y="555.0" angle="0.0" identifier="ecZLY8out7"/>
  <anchor x="609.8004097069129" y="1603" name="top"/>
  <anchor x="335.52858252534537" y="10" name="bottom"/>
  <anchor x="1275.6720635163638" y="1600" name="top_dd"/>
  <anchor x="928.8984620390215" y="-407" name="bottom_dd"/>
  <anchor x="1276.1904097069128" y="1603" name="top0315"/>
  <anchor x="609.8004097069129" y="1603" name="parent_top"/>
  <outline>
    <contour>
      <point x="395.41773880052233" y="0.0" type="line" smooth="yes"/>
      <point x="766.4987369764847" y="-2.2465783708975673"/>
      <point x="984.2623201555898" y="268.00283100808105"/>
      <point x="1036.6274049535152" y="615.2135562150344" type="curve" smooth="yes"/>
      <point x="1070.8796168241313" y="840.3156563537883" type="line" smooth="yes"/>
      <point x="1110.9083461574032" y="1160.007242222786"/>
      <point x="969.3383658516016" y="1446.1110287080285"/>
      <point x="620.4513138621223" y="1454.9419655168776" type="curve" smooth="yes"/>
      <point x="376.96460007277494" y="1456.05642819132" type="line"/>
      <point x="333.8567774129483" y="1211.3502140166524" type="line"/>
      <point x="607.5335610831805" y="1210.0397018178642" type="line" smooth="yes"/>
      <point x="821.0506747599063" y="1203.022630657613"/>
      <point x="805.5277013618934" y="1010.3800684855157"/>
      <point x="783.8134864955409" y="842.9194386943275" type="curve" smooth="yes"/>
      <point x="751.0300195901387" y="614.6348955524236" type="line" smooth="yes"/>
      <point x="721.172651438855" y="402.86462170424977"/>
      <point x="645.4406883218304" y="240.67094032063153"/>
      <point x="408.8453627889047" y="242.3052638829121" type="curve" smooth="yes"/>
      <point x="173.6747711419555" y="244.0575244950953" type="line"/>
      <point x="128.80218176061942" y="0.0" type="line"/>
    </contour>
    <contour>
      <point x="549.295828757129" y="1455.9294289116237" type="line"/>
      <point x="261.41854994657797" y="1455.9423961118819" type="line"/>
      <point x="8.749655726063608" y="0.0" type="line"/>
      <point x="296.62693453655834" y="0.0" type="line"/>
    </contour>
  </outline>
</glyph>
<glyph name="F" format="2">
  <advance width="946"/>
  <unicode hex="0046"/>
  <anchor x="714.17544827856" y="1612" name="top"/>
  <anchor x="350.0785825253454" y="10" name="bottom"/>
  <anchor x="1099.1320635163638" y="1600" name="top_dd"/>
  <anchor x="752.3584620390217" y="-407" name="bottom_dd"/>
  <anchor x="1101.2054482785602" y="1612" name="top0315"/>
  <anchor x="714.17544827856" y="1612" name="parent_top"/>
  <outline>
    <contour>
      <point x="549.2998052545611" y="1455.9349048698052" type="line"/>
      <point x="261.4159281824206" y="1455.9487704452786" type="line"/>
      <point x="8.745656711395398" y="0.0" type="line"/>
      <point x="296.6295337835309" y="0.0" type="line"/>
    </contour>
    <contour>
      <point x="884.6502592765049" y="837.9036017131237" type="line"/>
      <point x="368.81492922068145" y="837.9166556773209" type="line"/>
      <point x="325.9264163938609" y="594.0951210808278" type="line"/>
      <point x="841.7617464496951" y="594.082067116634" type="line"/>
    </contour>
    <contour>
      <point x="1045.0723006640926" y="1455.9095129195111" type="line"/>
      <point x="475.88376920710414" y="1455.9226145144567" type="line"/>
      <point x="432.82020211090105" y="1211.0881083734666" type="line"/>
      <point x="1002.0087335678941" y="1211.0750067785393" type="line"/>
    </contour>
  </outline>
</glyph>
<glyph name="H" format="2">
  <advance width="1219"/>
  <unicode hex="0048"/>
  <anchor x="782.4604097069129" y="1603" name="top"/>
  <anchor x="510.12858252534534" y="10" name="bottom"/>
  <anchor x="1372.6720635163638" y="1600" name="top_dd"/>
  <anchor x="1025.8984620390215" y="-407" name="bottom_dd"/>
  <anchor x="1373.1904097069128" y="1603" name="top0315"/>
  <anchor x="782.4604097069129" y="1603" name="parent_top"/>
  <outline>
    <contour>
      <point x="944.9686797191036" y="866.9069427467925" type="line"/>
      <point x="364.13725184165696" y="866.9200350367795" type="line"/>
      <point x="321.2473212646099" y="623.091088886212" type="line"/>
      <point x="902.07874914207" y="623.0779965962381" type="line"/>
    </contour>
    <contour>
      <point x="549.2974468227932" y="1455.9323921954879" type="line"/>
      <point x="261.4168620960786" y="1455.9462109406165" type="line"/>
      <point x="8.748525910407736" y="0.0" type="line"/>
      <point x="296.62911063711977" y="0.0" type="line"/>
    </contour>
    <contour>
      <point x="1253.5169003887197" y="1455.9325548224217" type="line"/>
      <point x="967.5763325700284" y="1455.9463624060509" type="line"/>
      <point x="714.9079916488212" y="0.0" type="line"/>
      <point x="1000.8485594675114" y="0.0" type="line"/>
    </contour>
  </outline>
</glyph>
<glyph name="K" format="2">
  <advance width="1099"/>
  <unicode hex="004B"/>
  <anchor x="461.8832498281963" y="62" name="bottom"/>
  <anchor x="677.1820635163638" y="1600" name="top"/>
  <anchor x="1252.3920635163636" y="1600" name="top_dd"/>
  <anchor x="905.6184620390216" y="-407" name="bottom_dd"/>
  <anchor x="1252.3920635163636" y="1600" name="top0315"/>
  <anchor x="677.1820635163638" y="1600" name="parent_top"/>
  <outline>
    <contour>
      <point x="549.2948477124141" y="1455.9298597858135" type="line"/>
      <point x="261.41851343172954" y="1455.9430031038055" type="line"/>
      <point x="8.750960236792338" y="0.0" type="line"/>
      <point x="296.627294517537" y="0.0" type="line"/>
    </contour>
    <contour>
      <point x="1258.4882024523865" y="1455.567022987336" type="line"/>
      <point x="893.4177535739635" y="1455.6845790316138" type="line"/>
      <point x="555.2823443549712" y="989.4626990120515" type="line"/>
      <point x="322.95836555234234" y="680.6083022618209" type="line"/>
      <point x="325.8689764876438" y="363.9447234781169" type="line"/>
      <point x="671.2205475501771" y="725.7348708228939" type="line"/>
    </contour>
    <contour>
      <point x="672.0984076533382" y="0.0" type="line"/>
      <point x="998.053580317885" y="0.0" type="line"/>
      <point x="713.1554954757696" y="862.2759225295507" type="line"/>
      <point x="478.8716311606779" y="679.2717524447038" type="line"/>
    </contour>
  </outline>
</glyph>
<glyph name="O" format="2">
  <advance width="1199"/>
  <unicode hex="004F"/>
  <guideline x="0.0" y="901.0" angle="0.0" identifier="oDG84ZIxk4"/>
  <guideline x="0.0" y="555.0" angle="0.0" identifier="FRXgeMGYSF"/>
  <guideline x="748.0" y="0.0" angle="90.0" identifier="zW1JuB49LI"/>
  <anchor x="772.2420635163638" y="1600" name="top"/>
  <anchor x="499.6707618901818" y="0" name="bottom"/>
  <anchor x="1352.302063516364" y="1600" name="top_dd"/>
  <anchor x="1005.5284620390216" y="-407" name="bottom_dd"/>
  <anchor x="1352.302063516364" y="1600" name="top0315"/>
  <anchor x="772.2420635163638" y="1600" name="parent_top"/>
  <outline>
    <contour>
      <point x="1147.4351667586077" y="840.3317006820333" type="line" smooth="yes"/>
      <point x="1186.3061766424753" y="1145.4421309413049"/>
      <point x="1085.9998090760141" y="1468.269958084817"/>
      <point x="731.8589560613459" y="1476.3453166467732" type="curve" smooth="yes"/>
      <point x="361.29637584110685" y="1484.7951345072336"/>
      <point x="177.36533528687843" y="1167.776363356239"/>
      <point x="128.90946501018328" y="839.7906271584924" type="curve" smooth="yes"/>
      <point x="92.30949748675714" y="597.670547914757" type="line" smooth="yes"/>
      <point x="53.4615484330083" y="291.6763680748925"/>
      <point x="163.83834092501814" y="-12.539308410718144"/>
      <point x="512.042225507801" y="-20.181852650978414" type="curve" smooth="yes"/>
      <point x="877.3455829465763" y="-28.199704242974967"/>
      <point x="1061.9853505441936" y="272.0144362433698"/>
      <point x="1110.7203844349663" y="598.7213849736347" type="curve" smooth="yes"/>
    </contour>
    <contour>
      <point x="825.1310929580978" y="597.5128345727314" type="line" smooth="yes"/>
      <point x="802.0274869332114" y="432.86411992448427"/>
      <point x="740.8366838135728" y="214.6053449768713"/>
      <point x="534.7798662535403" y="223.7890753104834" type="curve" smooth="yes"/>
      <point x="344.6848307031395" y="232.26140621865477"/>
      <point x="363.27219160818873" y="460.17972512376764"/>
      <point x="380.13028891179476" y="596.8351271273567" type="curve" smooth="yes"/>
      <point x="415.16934012026366" y="842.4498754076823" type="line" smooth="yes"/>
      <point x="438.7561551522129" y="1009.4136643128065"/>
      <point x="498.6500311440187" y="1240.9849075565553"/>
      <point x="710.2944517617295" y="1231.3669614158625" type="curve" smooth="yes"/>
      <point x="902.9742631763954" y="1222.6108409229323"/>
      <point x="877.2014316715589" y="979.040857261953"/>
      <point x="860.2831076464647" y="844.1858856316586" type="curve" smooth="yes"/>
    </contour>
  </outline>
</glyph>
<glyph name="T" format="2">
  <advance width="1080"/>
  <unicode hex="0054"/>
  <anchor x="707.2520635163638" y="1600" name="top"/>
  <anchor x="432.1830183983127" y="8" name="bottom"/>
  <anchor x="1232.992063516364" y="1600" name="top_dd"/>
  <anchor x="886.2184620390217" y="-407" name="bottom_dd"/>
  <anchor x="1232.992063516364" y="1600" name="top0315"/>
  <anchor x="707.2520635163638" y="1600" name="parent_top"/>
  <outline>
    <contour>
      <point x="828.6568093646242" y="1455.9318867815357" type="line"/>
      <point x="541.7461518434626" y="1455.9457477143758" type="line"/>
      <point x="289.07836598190835" y="0.0" type="line"/>
      <point x="575.9890235030729" y="0.0" type="line"/>
    </contour>
    <contour>
      <point x="1178.932479702453" y="1455.9071048393505" type="line"/>
      <point x="198.4628986866678" y="1455.9201917667847" type="line"/>
      <point x="155.40057818960645" y="1211.0909873187213" type="line"/>
      <point x="1135.8701592053835" y="1211.077900391292" type="line"/>
    </contour>
  </outline>
</glyph>
<glyph name="U" format="2">
  <advance width="1135"/>
  <unicode hex="0055"/>
  <guideline x="0.0" y="901.0" angle="0.0" identifier="WI9ZvU7VXR"/>
  <guideline x="0.0" y="555.0" angle="0.0" identifier="gjuy86MXlb"/>
  <guideline x="664.0" y="0.0" angle="90.0" identifier="hOoLobt5q5"/>
  <anchor x="734.4120635163638" y="1600" name="top"/>
  <anchor x="459.9007618901817" y="0" name="bottom"/>
  <anchor x="1288.282063516364" y="1600" name="top_dd"/>
  <anchor x="941.5084620390217" y="-407" name="bottom_dd"/>
  <anchor x="1288.282063516364" y="1600" name="top0315"/>
  <anchor x="734.4120635163638" y="1600" name="parent_top"/>
  <outline>
    <contour>
      <point x="894.8421334649379" y="1455.9435329980706" type="line"/>
      <point x="726.5179598989683" y="456.4269117054579" type="line" smooth="yes"/>
      <point x="707.7337301372668" y="320.91691106468454"/>
      <point x="655.608611482274" y="217.70634946273302"/>
      <point x="505.17286609909627" y="223.52067025788634" type="curve" smooth="yes"/>
      <point x="364.0224905793466" y="228.97611278943214"/>
      <point x="357.2776157237194" y="335.2422013447895"/>
      <point x="370.5289976980968" y="455.6936041817498" type="curve"/>
      <point x="538.4514522643428" y="1455.9129359415097" type="line"/>
      <point x="250.77461136438558" y="1455.944685799305" type="line"/>
      <point x="81.11997673543239" y="456.7314351059156" type="line"/>
      <point x="48.90927003108186" y="175.02313556375088"/>
      <point x="192.30498981626914" y="-15.533337535463861"/>
      <point x="480.59823450229817" y="-20.706430336755314" type="curve" smooth="yes"/>
      <point x="787.3318156352063" y="-26.21041390113292"/>
      <point x="972.2037816208389" y="162.3560910121064"/>
      <point x="1012.7014456017198" y="458.23408201865266" type="curve" smooth="yes"/>
      <point x="1182.87200688752" y="1455.9463313225913" type="line"/>
    </contour>
  </outline>
</glyph>
<glyph name="V" format="2">
  <advance width="1148"/>
  <unicode hex="0056"/>
  <guideline x="0.0" y="901.0" angle="0.0" identifier="NvZvLmJ5kD"/>
  <guideline x="0.0" y="555.0" angle="0.0" identifier="0LAxzSryTB"/>
  <anchor x="731.9099331722783" y="1612" name="top"/>
  <anchor x="482.31780575924483" y="10" name="bottom"/>
  <anchor x="1284.880329221619" y="1600" name="top_dd"/>
  <anchor x="972.1890684738297" y="-407" name="bottom_dd"/>
  <anchor x="1286.7499331722784" y="1612" name="top0315"/>
  <anchor x="731.9099331722783" y="1612" name="parent_top"/>
  <outline>
    <contour>
      <point x="510.0258718207958" y="325.5327086370631" type="line"/>
      <point x="416.7971575329073" y="0.0" type="line"/>
      <point x="632.4818345653272" y="0.0" type="line"/>
      <point x="1267.7487941664435" y="1455.772084555813" type="line"/>
      <point x="941.1479584671091" y="1455.8464366594912" type="line"/>
    </contour>
    <contour>
      <point x="468.35683981014995" y="1456.0245991406682" type="line"/>
      <point x="157.18743781020876" y="1456.0100966281295" type="line"/>
      <point x="335.13622828399934" y="0.0" type="line"/>
      <point x="540.8315705923428" y="0.0" type="line"/>
      <point x="547.00193605228" y="302.2797363498987" type="line"/>
    </contour>
  </outline>
</glyph>
<glyph name="W" format="2">
  <advance width="1488"/>
  <unicode hex="0057"/>
  <guideline x="0.0" y="901.0" angle="0.0" identifier="pYMMDRIwW1"/>
  <guideline x="0.0" y="555.0" angle="0.0" identifier="nHl8Pk4X2q"/>
  <anchor x="907.550329221619" y="1600" name="top"/>
  <anchor x="655.9478057592448" y="10" name="bottom"/>
  <anchor x="1624.380329221619" y="1600" name="top_dd"/>
  <anchor x="1311.6890684738296" y="-407" name="bottom_dd"/>
  <anchor x="1624.380329221619" y="1600" name="top0315"/>
  <anchor x="907.550329221619" y="1600" name="parent_top"/>
  <outline>
    <contour>
      <point x="341.448099290019" y="225.49800336014138" type="line"/>
      <point x="324.6211507063606" y="0.0" type="line"/>
      <point x="491.7259656217841" y="0.0" type="line"/>
      <point x="928.0594958838079" y="1255.5465439417162" type="line"/>
      <point x="908.4119868851561" y="1456.0217536359648" type="line"/>
      <point x="757.429735321475" y="1455.8529177136284" type="line"/>
    </contour>
    <contour>
      <point x="459.6233395919213" y="1455.9981588410492" type="line"/>
      <point x="179.15137851786352" y="1456.0072547408845" type="line"/>
      <point x="203.69161840652214" y="0.0" type="line"/>
      <point x="385.53423794584063" y="0.0" type="line"/>
      <point x="448.48026799334343" y="195.77337160229493" type="line"/>
    </contour>
    <contour>
      <point x="924.793361591687" y="228.20285499476418" type="line"/>
      <point x="923.1268101228976" y="0.0" type="line"/>
      <point x="1105.686178503924" y="0.0" type="line"/>
      <point x="1584.3572641778278" y="1455.8646695101702" type="line"/>
      <point x="1296.0883741165953" y="1455.8604683348028" type="line"/>
    </contour>
    <contour>
      <point x="997.6553144473984" y="1456.0208865822106" type="line"/>
      <point x="845.7717043696653" y="1455.7691930020899" type="line"/>
      <point x="773.2100976678649" y="1284.242877566662" type="line"/>
      <point x="817.9905120830592" y="0.0" type="line"/>
      <point x="981.2328227193976" y="0.0" type="line"/>
      <point x="1030.9312547628874" y="192.5819430745031" type="line"/>
    </contour>
  </outline>
</glyph>
<glyph name="Y" format="2">
  <advance width="1079"/>
  <unicode hex="0059"/>
  <guideline x="0.0" y="901.0" angle="0.0" identifier="Y73jAKKe5A"/>
  <guideline x="0.0" y="555.0" angle="0.0" identifier="NnXLNgvUgJ"/>
  <anchor x="714.0420635163638" y="1600" name="top"/>
  <anchor x="439.7581341132545" y="35" name="bottom"/>
  <anchor x="1232.0220635163637" y="1600" name="top_dd"/>
  <anchor x="885.2484620390217" y="-407" name="bottom_dd"/>
  <anchor x="1232.0220635163637" y="1600" name="top0315"/>
  <anchor x="714.0420635163638" y="1600" name="parent_top"/>
  <outline>
    <contour>
      <point x="470.5961512922403" y="1456.027023608905" type="line"/>
      <point x="169.16748103064504" y="1456.0184799557283" type="line"/>
      <point x="384.51645393782553" y="542.5319646248762" type="line"/>
      <point x="290.0526908616474" y="0.0" type="line"/>
      <point x="580.8245687483643" y="0.0" type="line"/>
      <point x="669.9313983033287" y="513.9865323243505" type="line"/>
      <point x="1218.611683689461" y="1455.6903950210972" type="line"/>
      <point x="895.0121330155663" y="1455.7734768544524" type="line"/>
      <point x="569.6581976239285" y="804.5724670466566" type="line"/>
    </contour>
  </outline>
</glyph>
<glyph name="backslash" format="2">
  <advance width="758"/>
  <unicode hex="005C"/>
  <guideline x="0.0" y="901.0" angle="0.0" identifier="5u9O5SjMyk"/>
  <guideline x="0.0" y="555.0" angle="0.0" identifier="OatIGMsLX8"/>
  <outline>
    <contour>
      <point x="382.8337881167339" y="-125.00993376141238" type="line"/>
      <point x="655.6440325217699" y="-125.03880715837562" type="line"/>
      <point x="434.81057845053806" y="1455.9983442708094" type="line"/>
      <point x="162.07647554509077" y="1456.0413045582084" type="line"/>
    </contour>
  </outline>
</glyph>
<glyph name="asciicircum" format="2">
  <advance width="777"/>
  <unicode hex="005E"/>
  <guideline x="0.0" y="181.0" angle="0.0" identifier="c0q7rgd4R9"/>
  <guideline x="0.0" y="526.0" angle="0.0" identifier="OR1rAs3AVo"/>
  <outline>
    <contour>
      <point x="501.6524364234946" y="1195.8520121075933" type="line"/>
      <point x="596.8876778312259" y="1455.8731981568594" type="line"/>
      <point x="435.2261516789713" y="1455.7444256039323" type="line"/>
      <point x="65.12109875893667" y="729.2697513253111" type="line"/>
      <point x="290.1289070226063" y="729.1867140508559" type="line"/>
    </contour>
    <contour>
      <point x="544.8068727694616" y="728.9788617020854" type="line"/>
      <point x="750.8953186733903" y="728.9706359556916" type="line"/>
      <point x="634.4635792504147" y="1456.0067805837264" type="line"/>
      <point x="487.2446074084123" y="1456.0105285274556" type="line"/>
      <point x="491.51776860030975" y="1220.5946081429963" type="line"/>
    </contour>
  </outline>
</glyph>
<glyph name="grave" format="2">
  <advance width="659"/>
  <unicode hex="0060"/>
  <anchor x="576.2373506210241" y="1665" name="mkmktop_acc"/>
  <outline>
    <contour>
      <point x="498.5832536279046" y="1535.941695026743" type="line"/>
      <point x="205.01795678486974" y="1535.9159631841449" type="line"/>
      <point x="425.71498252554716" y="1227.1281462177485" type="line"/>
      <point x="642.6539871464454" y="1227.0096092393937" type="line"/>
    </contour>
  </outline>
</glyph>
<glyph name="b" format="2">
  <advance width="984"/>
  <unicode hex="0062"/>
  <anchor x="750.4504097069129" y="1603" name="top"/>
  <anchor x="463.9929412550181" y="-10" name="bottom"/>
  <anchor x="1136.9620635163637" y="1600" name="top_dd"/>
  <anchor x="790.1884620390216" y="-407" name="bottom_dd"/>
  <anchor x="1137.4804097069127" y="1603" name="top0315"/>
  <anchor x="750.4504097069129" y="1603" name="parent_top"/>
  <outline>
    <contour>
      <point x="262.66792539177396" y="1535.945688473404" type="line"/>
      <point x="-3.878221584285882" y="0.0" type="line"/>
      <point x="252.40938653698487" y="0.0" type="line"/>
      <point x="313.19635303040934" y="238.78233553736126" type="line"/>
      <point x="537.9549628586432" y="1535.9339788562115" type="line"/>
    </contour>
    <contour>
      <point x="912.6350396806146" y="581.6629297817217" type="line" smooth="yes"/>
      <point x="935.5192667988762" y="798.8781384764936"/>
      <point x="927.4173734583603" y="1097.9449672502071"/>
      <point x="643.2773199632699" y="1103.9208958733052" type="curve" smooth="yes"/>
      <point x="391.57526796757236" y="1109.214600433826"/>
      <point x="286.8422316896488" y="794.8415282473125"/>
      <point x="251.22819419149482" y="593.4657928723565" type="curve" smooth="yes"/>
      <point x="237.94709150315185" y="488.868514949934" type="line"/>
      <point x="226.29228030930935" y="305.59925089624414"/>
      <point x="256.079944552774" y="-12.698857071597704"/>
      <point x="497.33391006265254" y="-21.181845401342215" type="curve" smooth="yes"/>
      <point x="791.768233399933" y="-31.534765086901125"/>
      <point x="876.9166425081993" y="271.733140256901"/>
      <point x="904.6543090758352" y="510.01481138498565" type="curve" smooth="yes"/>
    </contour>
    <contour>
      <point x="629.9340956575209" y="505.94969828771707" type="line" smooth="yes"/>
      <point x="617.3997184608453" y="385.0895439064796"/>
      <point x="601.0749812553042" y="206.02563561479917"/>
      <point x="440.074222749926" y="214.3957707904276" type="curve" smooth="yes"/>
      <point x="315.7461477246501" y="220.85936017812895"/>
      <point x="314.0920103964738" y="349.955468512099"/>
      <point x="324.30474095908914" y="446.7177527575665" type="curve" smooth="yes"/>
      <point x="349.33039764326367" y="635.5280714101888" type="line" smooth="yes"/>
      <point x="365.2310033751924" y="741.5055715978175"/>
      <point x="414.50205696339395" y="872.1315139118323"/>
      <point x="542.7188488621335" y="868.2018107488146" type="curve" smooth="yes"/>
      <point x="684.3788270318244" y="863.8600887633972"/>
      <point x="645.7742007974309" y="671.1014609894896"/>
      <point x="636.9024611212994" y="578.3912428483536" type="curve" smooth="yes"/>
    </contour>
  </outline>
</glyph>
<glyph name="d" format="2">
  <advance width="985"/>
  <unicode hex="0064"/>
  <anchor x="393.94076189018176" y="0" name="bottom"/>
  <anchor x="591.3704097069128" y="1603" name="top"/>
  <anchor x="1137.9320635163638" y="1600" name="top_dd"/>
  <anchor x="791.1584620390216" y="-407" name="bottom_dd"/>
  <anchor x="1138.450409706913" y="1603" name="top0315"/>
  <anchor x="591.3704097069128" y="1603" name="parent_top"/>
  <outline>
    <contour>
      <point x="546.6025521293492" y="253.03521406663947" type="line"/>
      <point x="531.3384793538428" y="-1.0446927967739859" type="line"/>
      <point x="779.6732475951247" y="0.0" type="line"/>
      <point x="1046.2176992327184" y="1535.9309547870935" type="line"/>
      <point x="769.0265776964766" y="1535.94584897488" type="line"/>
    </contour>
    <contour>
      <point x="48.40762531949453" y="502.8144571944984" type="line" smooth="yes"/>
      <point x="26.165690879582307" y="292.520241323189"/>
      <point x="43.95212816378461" y="-14.477972238308368"/>
      <point x="320.0854854739362" y="-21.285140957485254" type="curve" smooth="yes"/>
      <point x="565.0866740653645" y="-27.32484743621938"/>
      <point x="678.1465760792671" y="287.0971817892308"/>
      <point x="713.502891049595" y="483.41009050275056" type="curve"/>
      <point x="726.5230083768978" y="587.1295201745789" type="line"/>
      <point x="738.6028546251953" y="767.8633631637185"/>
      <point x="708.3653977566722" y="1092.9218773343619"/>
      <point x="468.5652306625277" y="1102.1319563786046" type="curve" smooth="yes"/>
      <point x="178.62168542755705" y="1113.2679076264355"/>
      <point x="84.32531845983557" y="808.4027773142506"/>
      <point x="56.41440767861563" y="573.330636941489" type="curve" smooth="yes"/>
    </contour>
    <contour>
      <point x="333.8544131861603" y="574.0696137515" type="line" smooth="yes"/>
      <point x="346.08453239549357" y="689.1406547166018"/>
      <point x="371.7100603215663" y="876.1935299387002"/>
      <point x="526.7721322450193" y="867.4531276112209" type="curve" smooth="yes"/>
      <point x="645.5327793393125" y="860.7589320326379"/>
      <point x="648.713696322814" y="718.6029773537139"/>
      <point x="639.6250253529757" y="629.0769474555157" type="curve" smooth="yes"/>
      <point x="614.2951485417843" y="440.4000915422192" type="line" smooth="yes"/>
      <point x="598.2548184227151" y="336.90715264975563"/>
      <point x="546.5475258166897" y="210.3622379076705"/>
      <point x="422.1121494225075" y="214.70567069428543" type="curve" smooth="yes"/>
      <point x="285.29982640461503" y="219.48112239161037"/>
      <point x="318.56459465452775" y="411.944579998731"/>
      <point x="326.91034566083044" y="501.3963678903139" type="curve" smooth="yes"/>
    </contour>
  </outline>
</glyph>
<glyph name="f" format="2">
  <advance width="652"/>
  <unicode hex="0066"/>
  <guideline x="0.0" y="894.0" angle="0.0" identifier="Oey474iRUV"/>
  <guideline x="0.0" y="187.0" angle="0.0" identifier="WR8UxXg1lJ"/>
  <anchor x="570.9641030422874" y="1687" name="top"/>
  <anchor x="186.14858252534538" y="10" name="bottom"/>
  <anchor x="805.2220635163637" y="1600" name="top_dd"/>
  <anchor x="458.4484620390216" y="-407" name="bottom_dd"/>
  <anchor x="820.2541030422874" y="1687" name="top0315"/>
  <anchor x="570.9641030422874" y="1687" name="parent_top"/>
  <outline>
    <contour>
      <point x="335.41857100136065" y="0.0" type="line"/>
      <point x="537.3585566038633" y="1175.7522126357962" type="line" smooth="yes"/>
      <point x="552.5431353421119" y="1258.9997350954857"/>
      <point x="602.6710221371438" y="1323.6353107508573"/>
      <point x="693.1805193102949" y="1322.8332522452597" type="curve" smooth="yes"/>
      <point x="715.9784066910617" y="1322.6312266009406"/>
      <point x="737.6999290622526" y="1317.9457468197713"/>
      <point x="759.65906251114" y="1312.5568112635767" type="curve"/>
      <point x="782.8939562223022" y="1540.0284429667358" type="line"/>
      <point x="739.4838477508495" y="1550.9258133154053"/>
      <point x="696.063806266507" y="1559.9509900758007"/>
      <point x="651.0988685178794" y="1560.4299575732218" type="curve" smooth="yes"/>
      <point x="415.6386790170227" y="1562.9380846463205"/>
      <point x="287.5265321976471" y="1394.726460323324"/>
      <point x="259.03673581682426" y="1175.6317046566508" type="curve" smooth="yes"/>
      <point x="59.17009599139469" y="0.0" type="line"/>
    </contour>
    <contour>
      <point x="687.3386589301037" y="1081.9041929269997" type="line"/>
      <point x="120.1021506445487" y="1081.9168868910942" type="line"/>
      <point x="82.56626467115503" y="869.0953072241543" type="line"/>
      <point x="649.8027729566954" y="869.0826132600073" type="line"/>
    </contour>
  </outline>
</glyph>
<glyph name="i" format="2">
  <advance width="501"/>
  <unicode hex="0069"/>
  <guideline x="0.0" y="901.0" angle="0.0" identifier="kvfCXMmmqJ"/>
  <guideline x="0.0" y="555.0" angle="0.0" identifier="6NUqnugFt7"/>
  <anchor x="148.31858252534533" y="10" name="bottom"/>
  <anchor x="422.07206351636376" y="1600" name="top"/>
  <anchor x="654.8720635163638" y="1600" name="top_dd"/>
  <anchor x="308.0984620390217" y="-407" name="bottom_dd"/>
  <anchor x="320.7002314298837" y="654" name="rhotichook"/>
  <anchor x="654.8720635163638" y="1600" name="top0315"/>
  <anchor x="422.07206351636376" y="1600" name="parent_top"/>
  <outline>
    <contour>
      <point x="472.85955000500644" y="1081.930672827492" type="line"/>
      <point x="195.6540479944805" y="1081.9434245651985" type="line"/>
      <point x="7.78001048149919" y="0.0" type="line"/>
      <point x="284.98551249200733" y="0.0" type="line"/>
    </contour>
    <contour>
      <point x="232.09222172995766" y="1356.790434853066" type="curve" smooth="yes"/>
      <point x="232.8534346992863" y="1270.9448111837576"/>
      <point x="296.6143702126476" y="1209.0503785485034"/>
      <point x="382.39156999333056" y="1210.580422228739" type="curve" smooth="yes"/>
      <point x="470.8187172886005" y="1212.1577341277791"/>
      <point x="533.175591651669" y="1279.8323020083599"/>
      <point x="532.3422938443723" y="1367.464006871819" type="curve" smooth="yes"/>
      <point x="531.5267667132135" y="1453.226902489764"/>
      <point x="468.70659622088476" y="1515.6557369535915"/>
      <point x="382.6494209159119" y="1514.1006805634602" type="curve" smooth="yes"/>
      <point x="293.616227293522" y="1512.4918474105516"/>
      <point x="231.3090801034209" y="1445.1090579720785"/>
    </contour>
  </outline>
</glyph>
<glyph name="j" format="2">
  <advance width="488"/>
  <unicode hex="006A"/>
  <guideline x="0.0" y="659.0" angle="0.0" identifier="FzTxRRD1M1"/>
  <guideline x="0.0" y="1005.0" angle="0.0" identifier="WIGp0FJ9ot"/>
  <anchor x="373.57206351636376" y="1600" name="top"/>
  <anchor x="-8.376205263829249" y="-459" name="bottom"/>
  <anchor x="641.2920635163638" y="1600" name="top_dd"/>
  <anchor x="294.5184620390217" y="-407" name="bottom_dd"/>
  <anchor x="641.2920635163638" y="1600" name="top0315"/>
  <anchor x="373.57206351636376" y="1600" name="parent_top"/>
  <outline>
    <contour>
      <point x="196.63256630937565" y="1081.9440772305886" type="line"/>
      <point x="1.5279249118597704" y="-58.76873379187287" type="line" smooth="yes"/>
      <point x="-10.620901053919965" y="-129.67440817000428"/>
      <point x="-39.810692625517206" y="-200.90118161742728"/>
      <point x="-122.2828929546634" y="-201.60909653364" type="curve" smooth="yes"/>
      <point x="-147.42030606495558" y="-201.8248680254246"/>
      <point x="-172.96057548493286" y="-195.75327664080763"/>
      <point x="-197.38183820554536" y="-190.53902469046423" type="curve"/>
      <point x="-223.15296156232438" y="-420.8512073693026" type="line"/>
      <point x="-178.1103212344413" y="-431.6555117725055"/>
      <point x="-133.12513862526598" y="-439.80184185870996"/>
      <point x="-86.63781395038126" y="-440.26041022869714" type="curve" smooth="yes"/>
      <point x="144.1178358500178" y="-442.53667032613987"/>
      <point x="253.17111873887623" y="-267.0646756734609"/>
      <point x="280.20052947065307" y="-57.79781667844878" type="curve" smooth="yes"/>
      <point x="473.9086745027115" y="1081.9379760357153" type="line"/>
    </contour>
    <contour>
      <point x="227.21299366521612" y="1356.6517221002746" type="curve" smooth="yes"/>
      <point x="228.00266401639013" y="1271.3209377551639"/>
      <point x="291.288519195089" y="1209.529142559977"/>
      <point x="376.6305951444638" y="1211.023807780189" type="curve" smooth="yes"/>
      <point x="465.1156855650802" y="1212.5735191703532"/>
      <point x="528.0763820377316" y="1279.2691855810572"/>
      <point x="527.3407379737213" y="1367.2962235914104" type="curve" smooth="yes"/>
      <point x="526.6207475353323" y="1453.4501515408233"/>
      <point x="463.2046383637505" y="1515.5418084726984"/>
      <point x="376.98115112196865" y="1513.9561445119282" type="curve" smooth="yes"/>
      <point x="288.2981982987317" y="1512.3252505789076"/>
      <point x="226.4007013690543" y="1444.4270053509747"/>
    </contour>
  </outline>
</glyph>
<glyph name="k" format="2">
  <advance width="951"/>
  <unicode hex="006B"/>
  <anchor x="390.1820444308363" y="40" name="bottom"/>
  <anchor x="742.6904097069129" y="1603" name="top"/>
  <anchor x="742.6904097069129" y="1603" name="marktop"/>
  <anchor x="1103.9820635163637" y="1600" name="top_dd"/>
  <anchor x="757.2084620390216" y="-407" name="bottom_dd"/>
  <anchor x="998.7704097069129" y="1603" name="top0315"/>
  <anchor x="742.6904097069129" y="1603" name="parent_top"/>
  <outline>
    <contour>
      <point x="538.111742232551" y="1536.9327895412498" type="line"/>
      <point x="261.8753157558874" y="1536.9458723068865" type="line"/>
      <point x="-4.8291405427057015" y="0.0" type="line"/>
      <point x="271.40728593398853" y="0.0" type="line"/>
    </contour>
    <contour>
      <point x="1019.6115002594706" y="1081.5574795816472" type="line"/>
      <point x="674.781263069115" y="1081.664603995143" type="line"/>
      <point x="436.887033338328" y="770.0567696076081" type="line"/>
      <point x="221.99825098527725" y="512.9708833210742" type="line"/>
      <point x="287.09363840296004" y="283.6292130273675" type="line"/>
      <point x="551.2995510963426" y="536.7048975607195" type="line"/>
    </contour>
    <contour>
      <point x="542.2833872122218" y="0.0" type="line"/>
      <point x="844.5036073434184" y="0.0" type="line"/>
      <point x="608.2900490307967" y="677.0631714009847" type="line"/>
      <point x="397.65614264287825" y="508.341324791251" type="line"/>
    </contour>
  </outline>
</glyph>
<glyph name="m" format="2">
  <advance width="1473"/>
  <unicode hex="006D"/>
  <anchor x="874.849623826291" y="1290" name="top"/>
  <anchor x="650.7785825253454" y="10" name="bottom"/>
  <anchor x="874.849623826291" y="1290" name="marktop"/>
  <anchor x="1626.8120635163637" y="1600" name="top_dd"/>
  <anchor x="1280.0384620390216" y="-407" name="bottom_dd"/>
  <anchor x="1573.249623826291" y="1290" name="top0315"/>
  <anchor x="874.849623826291" y="1290" name="parent_top"/>
  <outline>
    <contour>
      <point x="419.4145912419111" y="842.2829247616672" type="line"/>
      <point x="442.54337839517973" y="1081.9747911045229" type="line"/>
      <point x="184.98685453267854" y="1081.9403534873413" type="line"/>
      <point x="-2.889706428155918" y="0.0" type="line"/>
      <point x="273.3333875797086" y="0.0" type="line"/>
    </contour>
    <contour>
      <point x="335.58078807466256" y="578.1838360721764" type="line"/>
      <point x="351.182421493877" y="683.5428119873109"/>
      <point x="388.20969329263016" y="872.6363796263036"/>
      <point x="530.050127136083" y="868.5722826911589" type="curve" smooth="yes"/>
      <point x="627.6583275507932" y="865.7755541603633"/>
      <point x="616.3586532575265" y="759.9557080836199"/>
      <point x="608.6766158911397" y="688.4031363715623" type="curve"/>
      <point x="494.7505692157829" y="0.0" type="line"/>
      <point x="769.974934551048" y="0.0" type="line"/>
      <point x="890.274957098305" y="722.2327529919711" type="line"/>
      <point x="906.8919922213138" y="886.641559828588"/>
      <point x="876.2994110420807" y="1096.9493086745915"/>
      <point x="672.0527228924194" y="1102.861562360635" type="curve" smooth="yes"/>
      <point x="388.3306012735277" y="1111.074362159495"/>
      <point x="288.5221675924577" y="805.9444591509639"/>
      <point x="264.6014722396053" y="575.1798748157604" type="curve"/>
    </contour>
    <contour>
      <point x="850.4363248171471" y="603.8834391600097" type="line"/>
      <point x="865.0517183189899" y="699.7871219728776"/>
      <point x="897.6223360962251" y="870.0599580038984"/>
      <point x="1026.0785875781817" y="868.122829486165" type="curve" smooth="yes"/>
      <point x="1123.1516723380971" y="866.6589611370314"/>
      <point x="1112.2930332200633" y="760.6799107428607"/>
      <point x="1105.067479221526" y="690.1864698504442" type="curve"/>
      <point x="991.3925525639183" y="0.0" type="line"/>
      <point x="1267.5865953388022" y="0.0" type="line"/>
      <point x="1382.584425137822" y="689.2794885300951" type="line"/>
      <point x="1401.8518275947947" y="869.7768025571789"/>
      <point x="1376.8056698905148" y="1097.0938398012124"/>
      <point x="1151.2087512752446" y="1102.812216832437" type="curve" smooth="yes"/>
      <point x="874.6057322082131" y="1109.8234843652958"/>
      <point x="778.0228576465697" y="815.6066366804329"/>
      <point x="759.8553273470261" y="589.2286024020908" type="curve"/>
    </contour>
  </outline>
</glyph>
<glyph name="n" format="2">
  <advance width="978"/>
  <unicode hex="006E"/>
  <anchor x="607.129623826291" y="1290" name="top"/>
  <anchor x="384.02858252534537" y="10" name="bottom"/>
  <anchor x="607.129623826291" y="1290" name="marktop"/>
  <anchor x="1131.1420635163638" y="1600" name="top_dd"/>
  <anchor x="784.3684620390217" y="-407" name="bottom_dd"/>
  <anchor x="1077.579623826291" y="1290" name="top0315"/>
  <anchor x="607.129623826291" y="1290" name="parent_top"/>
  <outline>
    <contour>
      <point x="410.6166614982825" y="836.3190210100141" type="line"/>
      <point x="434.81845540964457" y="1081.9738476937857" type="line"/>
      <point x="177.2274318093872" y="1081.9408832747458" type="line"/>
      <point x="-10.64899934466375" y="0.0" type="line"/>
      <point x="265.57454115431784" y="0.0" type="line"/>
    </contour>
    <contour>
      <point x="326.43489925510164" y="577.7957825059352" type="line"/>
      <point x="343.12424429979285" y="685.6832539386733"/>
      <point x="384.0419058552219" y="871.6909665021819"/>
      <point x="527.1748349513686" y="868.237670685701" type="curve" smooth="yes"/>
      <point x="628.3195260430465" y="865.797403859529"/>
      <point x="624.3615904424928" y="769.8700727808764"/>
      <point x="616.0609801845246" y="691.3530264052703" type="curve"/>
      <point x="501.5393955968792" y="0.0" type="line"/>
      <point x="777.7313290296674" y="0.0" type="line"/>
      <point x="892.4430082221547" y="688.2821757749465" type="line"/>
      <point x="911.1878111567181" y="865.2718297983209"/>
      <point x="890.5516133364391" y="1096.2144854177855"/>
      <point x="667.0764274805887" y="1102.7994204328013" type="curve" smooth="yes"/>
      <point x="385.35261987653297" y="1111.1007132951424"/>
      <point x="283.8902549890048" y="802.5572979117785"/>
      <point x="262.58095920958414" y="574.0801159480587" type="curve"/>
    </contour>
  </outline>
</glyph>
<glyph name="p" format="2">
  <advance width="984"/>
  <unicode hex="0070"/>
  <anchor x="690.7618031911273" y="1280" name="top"/>
  <anchor x="61.718462039021674" y="-407" name="bottom"/>
  <anchor x="690.7618031911273" y="1280" name="marktop"/>
  <anchor x="1136.9620635163637" y="1600" name="top_dd"/>
  <anchor x="790.1884620390216" y="-407" name="bottom_dd"/>
  <anchor x="1081.6718031911273" y="1280" name="top0315"/>
  <anchor x="690.7618031911273" y="1280" name="parent_top"/>
  <outline>
    <contour>
      <point x="420.4047828976783" y="859.1872384759495" type="line"/>
      <point x="437.3717662251099" y="1081.9821059883861" type="line"/>
      <point x="184.01813877060732" y="1081.9407530306564" type="line"/>
      <point x="-75.93509550124652" y="-415.9320384606387" type="line"/>
      <point x="199.31678389025387" y="-415.94688888580674" type="line"/>
    </contour>
    <contour>
      <point x="913.6546188027482" y="578.2210170468686" type="line" smooth="yes"/>
      <point x="936.6166090102957" y="794.8987886216925"/>
      <point x="925.9933612933289" y="1096.768368573518"/>
      <point x="642.9845817711247" y="1103.3765100205042" type="curve" smooth="yes"/>
      <point x="388.28021534547213" y="1109.32375477859"/>
      <point x="283.9349147604948" y="794.2065956325731"/>
      <point x="248.48748259069936" y="590.4466986747966" type="curve" smooth="yes"/>
      <point x="234.41260292365126" y="479.8618917995114" type="line"/>
      <point x="222.7589383666978" y="296.30598021083813"/>
      <point x="259.11282544110145" y="-11.812357558953764"/>
      <point x="497.30365291382" y="-20.22505975145822" type="curve" smooth="yes"/>
      <point x="783.0580641566612" y="-30.31766821790226"/>
      <point x="877.7394626628907" y="276.6183811332331"/>
      <point x="905.5995316479006" y="507.6847138324368" type="curve" smooth="yes"/>
    </contour>
    <contour>
      <point x="628.7612219174998" y="506.90805063048776" type="line" smooth="yes"/>
      <point x="616.3903525350585" y="392.4562313125276"/>
      <point x="590.5365049013388" y="206.1256991008245"/>
      <point x="436.8642559524493" y="213.2589021942006" type="curve" smooth="yes"/>
      <point x="316.87824449099446" y="218.82844773005968"/>
      <point x="310.99035621488196" y="342.20603636002363"/>
      <point x="320.44786195252897" y="436.72102586344823" type="curve" smooth="yes"/>
      <point x="346.49936366625536" y="632.5573585815582" type="line" smooth="yes"/>
      <point x="362.3224836302532" y="740.078725884106"/>
      <point x="408.6066946267168" y="873.306436034657"/>
      <point x="539.7738740762971" y="868.5512295903642" type="curve" smooth="yes"/>
      <point x="677.3911738081772" y="863.5621868033096"/>
      <point x="644.4840399352017" y="669.5024829922284"/>
      <point x="635.8975920991074" y="579.5136770781393" type="curve" smooth="yes"/>
    </contour>
  </outline>
</glyph>
<glyph name="q" format="2">
  <advance width="987"/>
  <unicode hex="0071"/>
  <anchor x="576.089623826291" y="1290" name="top"/>
  <anchor x="574.8484620390217" y="-407" name="bottom"/>
  <anchor x="576.089623826291" y="1290" name="marktop"/>
  <anchor x="1140.8420635163639" y="1600" name="top_dd"/>
  <anchor x="794.0684620390216" y="-407" name="bottom_dd"/>
  <anchor x="1087.2796238262908" y="1290" name="top0315"/>
  <anchor x="576.089623826291" y="1290" name="parent_top"/>
  <outline>
    <contour>
      <point x="430.38831562911344" y="-415.93369013576506" type="line"/>
      <point x="707.6146817373026" y="-415.9441548345949" type="line"/>
      <point x="967.5961208230244" y="1081.9505884088474" type="line"/>
      <point x="723.0092238041042" y="1081.8439806445922" type="line"/>
      <point x="654.0363787796709" y="874.8950282420407" type="line"/>
    </contour>
    <contour>
      <point x="49.39006506917589" y="499.1609019918981" type="line" smooth="yes"/>
      <point x="27.718318745322193" y="288.69400514629626"/>
      <point x="44.99723536002932" y="-15.279510179020647"/>
      <point x="320.85840985709547" y="-21.88214784572011" type="curve" smooth="yes"/>
      <point x="569.5214289770099" y="-27.833807477959574"/>
      <point x="679.4559047639243" y="285.94676556441794"/>
      <point x="715.866945662216" y="485.4036328109387" type="curve"/>
      <point x="728.9156842955744" y="589.1273201013522" type="line"/>
      <point x="740.9419511749363" y="773.799323384628"/>
      <point x="712.9103757646413" y="1093.3004656872786"/>
      <point x="469.4762009255488" y="1102.078478059012" type="curve" smooth="yes"/>
      <point x="176.52096688034396" y="1112.6421742635923"/>
      <point x="84.66649328763434" y="809.0614767940989"/>
      <point x="57.24197242051788" y="570.770572412923" type="curve" smooth="yes"/>
    </contour>
    <contour>
      <point x="333.8877317352848" y="571.9292549502645" type="line" smooth="yes"/>
      <point x="345.7599593585172" y="688.2707699919372"/>
      <point x="372.18062461433766" y="875.3308305102211"/>
      <point x="527.8317168404936" y="867.7772344635854" type="curve" smooth="yes"/>
      <point x="650.2247163450245" y="861.8376212943439"/>
      <point x="651.9160958286079" y="724.5162071519892"/>
      <point x="642.6975524360478" y="631.0239403449262" type="curve" smooth="yes"/>
      <point x="617.6275123192904" y="443.4506971022248" type="line" smooth="yes"/>
      <point x="600.7641268247164" y="335.48839662209406"/>
      <point x="551.9655863566838" y="208.79554286844694"/>
      <point x="422.2320648418879" y="213.01423144793" type="curve" smooth="yes"/>
      <point x="286.2231098344729" y="217.43698524739244"/>
      <point x="319.40914754690516" y="411.8648001822265"/>
      <point x="327.37423344432426" y="500.2121724023534" type="curve" smooth="yes"/>
    </contour>
  </outline>
</glyph>
<glyph name="r" format="2">
  <advance width="659"/>
  <unicode hex="0072"/>
  <guideline x="0.0" y="901.0" angle="0.0" identifier="ASsXatcavB"/>
  <guideline x="0.0" y="555.0" angle="0.0" identifier="ePPuhJ22Gr"/>
  <anchor x="473.2696238262911" y="1290" name="top"/>
  <anchor x="139.58858252534537" y="10" name="bottom"/>
  <anchor x="812.0120635163638" y="1600" name="top_dd"/>
  <anchor x="465.23846203902167" y="-407" name="bottom_dd"/>
  <anchor x="758.449623826291" y="1290" name="top0315"/>
  <anchor x="473.2696238262911" y="1290" name="parent_top"/>
  <outline>
    <contour>
      <point x="414.37270797543897" y="824.4786129476641" type="line"/>
      <point x="442.77344583619026" y="1081.9692704587728" type="line"/>
      <point x="183.04837750909803" y="1081.943381583643" type="line"/>
      <point x="-4.832059361676002" y="0.0" type="line"/>
      <point x="271.3881184179717" y="0.0" type="line"/>
    </contour>
    <contour>
      <point x="700.3448276804538" y="1090.5269865089856" type="line"/>
      <point x="672.246794235425" y="1098.158208642753"/>
      <point x="644.282296883571" y="1104.2327174989348"/>
      <point x="614.9771871122905" y="1104.5154627775607" type="curve" smooth="yes"/>
      <point x="385.4701056314931" y="1106.7298221232998"/>
      <point x="330.85498347383987" y="784.946019534023"/>
      <point x="307.5719433336201" y="615.8079701301701" type="curve"/>
      <point x="355.9113273271442" y="594.6215348276529" type="line"/>
      <point x="380.9057470585371" y="714.1802836293593"/>
      <point x="435.505731887608" y="822.9593382867914"/>
      <point x="573.9468375115695" y="820.4428540040276" type="curve" smooth="yes"/>
      <point x="603.7830607274602" y="819.9005122880941"/>
      <point x="633.6358380160202" y="814.8331532895456"/>
      <point x="662.9325221470353" y="809.6149484901242" type="curve"/>
    </contour>
  </outline>
</glyph>
<glyph name="s" format="2">
  <advance width="902"/>
  <unicode hex="0073"/>
  <guideline x="0.0" y="1658.0" angle="0.0" identifier="vvHGUrsRBY"/>
  <guideline x="0.0" y="555.0" angle="0.0" identifier="J5xatWgZfj"/>
  <anchor x="559.522227162917" y="1290" name="top"/>
  <anchor x="356.9817991748124" y="-10" name="bottom"/>
  <anchor x="1038.5003292216188" y="1600" name="top_dd"/>
  <anchor x="725.8090684738296" y="-407" name="bottom_dd"/>
  <anchor x="990.202227162917" y="1290" name="top0315"/>
  <anchor x="559.522227162917" y="1290" name="parent_top"/>
  <outline>
    <contour>
      <point x="514.553647718231" y="297.48563502618913" type="curve" smooth="yes"/>
      <point x="503.35127681937735" y="226.78029107847865"/>
      <point x="450.15370605680516" y="189.4645016412782"/>
      <point x="380.7953285742257" y="189.1313747533809" type="curve" smooth="yes"/>
      <point x="286.48387443068054" y="188.678398741654"/>
      <point x="266.3484249498949" y="251.83195242964092"/>
      <point x="268.79311811258714" y="335.364184184838" type="curve"/>
      <point x="7.168046267377491" y="336.2566896751881" type="line"/>
      <point x="4.914181355269507" y="126.20464911887154"/>
      <point x="153.82613598728196" y="-15.078955102797245"/>
      <point x="362.1534684337269" y="-19.91074212897622" type="curve" smooth="yes"/>
      <point x="566.8317267039179" y="-24.65789528087986"/>
      <point x="767.9033036724315" y="88.7837376667209"/>
      <point x="780.3818317491966" y="309.92616979807957" type="curve" smooth="yes"/>
      <point x="790.7169878357171" y="493.0841143385089"/>
      <point x="671.3710777363656" y="576.1953004124053"/>
      <point x="520.1602186458064" y="646.1262236272498" type="curve" smooth="yes"/>
      <point x="467.9203492311752" y="670.2857470818465"/>
      <point x="363.74974795263563" y="707.2717450069208"/>
      <point x="377.17317149979925" y="782.4074722919906" type="curve" smooth="yes"/>
      <point x="387.9904654624316" y="842.9557553945165"/>
      <point x="435.14095426805807" y="892.6831651781521"/>
      <point x="498.7941958626959" y="893.4387556912733" type="curve" smooth="yes"/>
      <point x="579.415447959816" y="894.3957635625844"/>
      <point x="587.8422442614641" y="827.5594274479544"/>
      <point x="585.0568777199135" y="762.4661884617744" type="curve"/>
      <point x="860.6781531832967" y="761.8492249957924" type="line"/>
      <point x="863.9439083846321" y="973.0060697704066"/>
      <point x="721.2227012822984" y="1098.8530363544228"/>
      <point x="513.5284892351794" y="1102.5472422441985" type="curve" smooth="yes"/>
      <point x="312.6791203148135" y="1106.119700592027"/>
      <point x="127.88297605161905" y="978.8949801341294"/>
      <point x="116.5822275695004" y="767.8106448217162" type="curve" smooth="yes"/>
      <point x="107.26553667502178" y="593.7861093775352"/>
      <point x="227.9077353818979" y="509.5522300874132"/>
      <point x="369.48175836635835" y="440.7010652099658" type="curve" smooth="yes"/>
      <point x="423.2714246364997" y="414.54173807496676"/>
      <point x="526.6699622112613" y="373.9594628741856"/>
    </contour>
  </outline>
</glyph>
<glyph name="v" format="2">
  <advance width="892"/>
  <unicode hex="0076"/>
  <guideline x="0.0" y="901.0" angle="0.0" identifier="5HxJds6qLJ"/>
  <guideline x="0.0" y="555.0" angle="0.0" identifier="RxWFjUaGIn"/>
  <anchor x="554.0842238707008" y="1280" name="top"/>
  <anchor x="356.2178057592448" y="10" name="bottom"/>
  <anchor x="1028.800329221619" y="1600" name="top_dd"/>
  <anchor x="716.1090684738297" y="-407" name="bottom_dd"/>
  <anchor x="978.944223870701" y="1280" name="top0315"/>
  <anchor x="554.0842238707008" y="1280" name="parent_top"/>
  <outline>
    <contour>
      <point x="351.7343885535866" y="229.48343354138268" type="line"/>
      <point x="310.5432535632301" y="0.0" type="line"/>
      <point x="486.7940016825247" y="0.0" type="line"/>
      <point x="944.393809159374" y="1081.7845126840393" type="line"/>
      <point x="650.2284949694565" y="1081.8637647778276" type="line"/>
    </contour>
    <contour>
      <point x="386.10132527709897" y="1082.0082084767234" type="line"/>
      <point x="103.45563156818912" y="1082.0208351935078" type="line"/>
      <point x="222.48427722957234" y="0.0" type="line"/>
      <point x="391.93663530568" y="0.0" type="line"/>
      <point x="421.2951310855507" y="202.52871377881402" type="line"/>
    </contour>
  </outline>
</glyph>
<glyph name="y" format="2">
  <advance width="887"/>
  <unicode hex="0079"/>
  <anchor x="563.479623826291" y="1290" name="top"/>
  <anchor x="559.407516966898" y="-109" name="bottom"/>
  <anchor x="563.479623826291" y="1290" name="marktop"/>
  <anchor x="1039.9620635163637" y="1600" name="top_dd"/>
  <anchor x="693.1884620390216" y="-407" name="bottom_dd"/>
  <anchor x="686.3902314298836" y="654" name="rhotichook"/>
  <anchor x="986.399623826291" y="1290" name="top0315"/>
  <anchor x="563.479623826291" y="1290" name="parent_top"/>
  <outline>
    <contour>
      <point x="277.30244344176015" y="138.41856078458932" type="line"/>
      <point x="175.32017368782078" y="-85.17115446682666" type="line" smooth="yes"/>
      <point x="140.80962421328024" y="-162.0001605744729"/>
      <point x="91.29940810221153" y="-202.90950166570758"/>
      <point x="4.037156271314885" y="-200.93373178278566" type="curve" smooth="yes"/>
      <point x="-6.54658418961033" y="-200.69409740236787"/>
      <point x="-17.257695358197545" y="-199.20823052693513"/>
      <point x="-27.810941224845422" y="-198.3108006503804" type="curve"/>
      <point x="-51.439102611568224" y="-419.07514980285555" type="line"/>
      <point x="-10.797618828333945" y="-430.3052189330235"/>
      <point x="28.52513033722306" y="-440.1294517529988"/>
      <point x="71.00483368372944" y="-440.14196414732277" type="curve" smooth="yes"/>
      <point x="244.83886109457933" y="-440.19316695069784"/>
      <point x="339.3918501048695" y="-309.019734230512"/>
      <point x="399.91321149024003" y="-162.84229447994514" type="curve" smooth="yes"/>
      <point x="957.7684018242101" y="1081.7601506666467" type="line"/>
      <point x="655.9633962658299" y="1081.8085800793797" type="line"/>
    </contour>
    <contour>
      <point x="392.02285638342215" y="1082.0094121564769" type="line"/>
      <point x="103.63802512662748" y="1082.018821690973" type="line"/>
      <point x="218.5171949282407" y="-29.99698983032027" type="line"/>
      <point x="402.25310421080064" y="-13.476191934847487" type="line"/>
      <point x="419.46785467924656" y="293.576368041121" type="line"/>
    </contour>
  </outline>
</glyph>
<glyph name="bar" format="2">
  <advance width="503"/>
  <unicode hex="007C"/>
  <guideline x="0.0" y="901.0" angle="0.0" identifier="t1bGNPhqbS"/>
  <guideline x="0.0" y="555.0" angle="0.0" identifier="IqPzLDbzgB"/>
  <outline>
    <contour>
      <point x="473.50514862712964" y="1455.9512060442783" type="line"/>
      <point x="302.02712984652726" y="1455.959664567478" type="line"/>
      <point x="32.03130793757266" y="-269.9539451046839" type="line"/>
      <point x="203.50932671817543" y="-269.96240362787387" type="line"/>
    </contour>
  </outline>
</glyph>
<glyph name="braceright" format="2">
  <advance width="592"/>
  <unicode hex="007D"/>
  <outline>
    <contour>
      <point x="181.64083063364689" y="1435.4784049728223" type="line"/>
      <point x="277.71587188803016" y="1372.8866414080735"/>
      <point x="252.91244273318011" y="1230.8187281100234"/>
      <point x="239.96877897822407" y="1132.9017354613902" type="curve" smooth="yes"/>
      <point x="213.09027158869105" y="928.914882327348" type="line" smooth="yes"/>
      <point x="192.82962232436498" y="709.8696497492415"/>
      <point x="328.47654470518216" y="578.4404545721754"/>
      <point x="542.2407987321892" y="569.628598187136" type="curve"/>
      <point x="553.8334907744689" y="724.945232892891" type="line"/>
      <point x="446.13809576089716" y="737.5699807754199"/>
      <point x="447.7095564658529" y="836.850474289745"/>
      <point x="458.4856913957458" y="927.5137442916174" type="curve" smooth="yes"/>
      <point x="486.4180669901008" y="1132.1465763851184" type="line" smooth="yes"/>
      <point x="509.01488266248975" y="1335.0624626672015"/>
      <point x="445.06222700308695" y="1516.3124219282276"/>
      <point x="246.31381609602954" y="1596.1143691411307" type="curve"/>
    </contour>
    <contour>
      <point x="-31.210781749295094" y="-363.78509733850007" type="line"/>
      <point x="192.4171828499147" y="-286.1559794685969"/>
      <point x="300.053190706013" y="-123.39325440915022"/>
      <point x="330.37201397694804" y="106.23403347824117" type="curve" smooth="yes"/>
      <point x="358.03506625927383" y="308.7302263158832" type="line" smooth="yes"/>
      <point x="373.33361518425966" y="411.59697905588035"/>
      <point x="413.85177827381574" y="509.5535583016785"/>
      <point x="529.7282472167003" y="517.1143148711698" type="curve"/>
      <point x="542.8687929105307" y="671.1344886890173" type="line"/>
      <point x="305.56013864533304" y="665.0560819574642"/>
      <point x="139.19847881752517" y="553.1857684422135"/>
      <point x="109.64919204082915" y="308.9235883513997" type="curve" smooth="yes"/>
      <point x="82.71502191610767" y="106.05969700099469" type="line" smooth="yes"/>
      <point x="66.19541793415624" y="-8.800742209823056"/>
      <point x="39.607157679341924" y="-138.1421990032615"/>
      <point x="-72.07513127067273" y="-196.66528392476297" type="curve"/>
    </contour>
  </outline>
</glyph>
<glyph name="exclamdown" format="2">
  <advance width="539"/>
  <unicode hex="00A1"/>
  <outline>
    <contour>
      <point x="-44.925173496717036" y="-368.8972838296128" type="line"/>
      <point x="248.8009314270252" y="-368.95420760961986" type="line"/>
      <point x="391.4542112731011" y="637.9734181523016" type="line"/>
      <point x="162.73918291103024" y="637.9102381282671" type="line"/>
    </contour>
    <contour>
      <point x="481.7566623592379" y="953.3829381915403" type="curve" smooth="yes"/>
      <point x="481.0237386333422" y="1038.4233465348552"/>
      <point x="418.95788602699923" y="1105.0611546708665"/>
      <point x="332.454841706404" y="1103.4179258444813" type="curve" smooth="yes"/>
      <point x="243.11646664576008" y="1101.7208365182607"/>
      <point x="181.71878760800513" y="1029.627318066203"/>
      <point x="182.51730641022158" y="942.2950711038658" type="curve" smooth="yes"/>
      <point x="183.2967848094568" y="857.0452311816663"/>
      <point x="244.7922552143117" y="790.2024242713195"/>
      <point x="331.7096127959457" y="791.8380694372238" type="curve" smooth="yes"/>
      <point x="421.3622270372566" y="793.5251877433316"/>
      <point x="482.51115321006233" y="865.8401178701062"/>
    </contour>
  </outline>
</glyph>
<glyph name="section" format="2">
  <advance width="1098"/>
  <unicode hex="00A7"/>
  <guideline x="0.0" y="1658.0" angle="0.0" identifier="rNqKEm9Pgo"/>
  <guideline x="0.0" y="578.0" angle="0.0" identifier="GYXPAoXeJi"/>
  <outline>
    <contour>
      <point x="497.5441006804368" y="137.38169045080485" type="line"/>
      <point x="728.3696309831192" y="141.2611919666468"/>
      <point x="959.3396270100683" y="228.75304236537744"/>
      <point x="976.7008049461006" y="490.7056891770072" type="curve" smooth="yes"/>
      <point x="992.2112900099249" y="724.7343150439456"/>
      <point x="841.1757196207731" y="828.8103132080472"/>
      <point x="642.4743081870304" y="904.609980624875" type="curve" smooth="yes"/>
      <point x="551.2673330914733" y="939.4031827891355"/>
      <point x="452.0656928360225" y="975.0488089183092"/>
      <point x="469.4555498387557" y="1089.309172839842" type="curve" smooth="yes"/>
      <point x="483.9930206468731" y="1184.827882670123"/>
      <point x="560.8111805694726" y="1241.258253089604"/>
      <point x="655.9650152955841" y="1239.673992000819" type="curve" smooth="yes"/>
      <point x="764.8604649941424" y="1237.860940280941"/>
      <point x="789.852727848945" y="1140.9676935845664"/>
      <point x="785.8430380116953" y="1049.5420662190447" type="curve"/>
      <point x="1061.182758598206" y="1049.2850666840066" type="line"/>
      <point x="1071.5566035184481" y="1302.5156458799806"/>
      <point x="936.2922420343965" y="1470.9854767090567"/>
      <point x="676.0416264922702" y="1476.28133412769" type="curve" smooth="yes"/>
      <point x="435.4524359242041" y="1481.1770998766344"/>
      <point x="213.8945846250672" y="1341.6585613684038"/>
      <point x="195.85748210324516" y="1087.1003509917405" type="curve" smooth="yes"/>
      <point x="178.5408584335761" y="842.7102819224964"/>
      <point x="332.4586835401812" y="747.1135396785448"/>
      <point x="533.5394089977091" y="660.2041567380911" type="curve" smooth="yes"/>
      <point x="622.1451863235479" y="621.9077291972305"/>
      <point x="714.2399117748838" y="572.1191906956433"/>
      <point x="696.8773846540423" y="462.50974415953567" type="curve" smooth="yes"/>
      <point x="680.8606952123608" y="361.39655638308125"/>
      <point x="613.5158388111483" y="289.35283473634604"/>
      <point x="510.2007130157622" y="281.8554807658506" type="curve"/>
    </contour>
    <contour>
      <point x="545.0441343196995" y="879.7859276793113" type="line"/>
      <point x="317.67951317813043" y="875.6106069872144"/>
      <point x="96.73448149254175" y="781.3136404025905"/>
      <point x="79.88385912836888" y="526.4448004672579" type="curve" smooth="yes"/>
      <point x="64.47863253580435" y="293.4378440633311"/>
      <point x="214.39059208562512" y="192.0227841147892"/>
      <point x="410.01308170221887" y="113.45618569965463" type="curve" smooth="yes"/>
      <point x="492.87617853411274" y="80.176414723498"/>
      <point x="603.6870271092106" y="36.36493013659491"/>
      <point x="586.752778596595" y="-71.34188463097456" type="curve" smooth="yes"/>
      <point x="571.8149574876805" y="-166.35083232713853"/>
      <point x="492.7693803164439" y="-215.2254784639975"/>
      <point x="400.8178779743311" y="-214.8487130105468" type="curve" smooth="yes"/>
      <point x="285.7755886165745" y="-214.3773345206705"/>
      <point x="248.4078044897116" y="-139.73434293038804"/>
      <point x="253.50310426382043" y="-33.781971794168825" type="curve"/>
      <point x="-22.06763134384046" y="-34.19527661127675" type="line"/>
      <point x="-32.37018703999775" y="-296.6981972380613"/>
      <point x="121.97228404571348" y="-448.03574835229375"/>
      <point x="381.5257529384488" y="-452.6475720761784" type="curve" smooth="yes"/>
      <point x="623.8950712649504" y="-456.9540626693049"/>
      <point x="842.2625486374202" y="-328.8799516246672"/>
      <point x="860.3419051219693" y="-70.22320810896045" type="curve" smooth="yes"/>
      <point x="877.7295594969419" y="178.53752968890495"/>
      <point x="725.0510781994502" y="269.87164339389545"/>
      <point x="519.6634280586018" y="355.869446770158" type="curve" smooth="yes"/>
      <point x="422.9512864396505" y="396.3637595165197"/>
      <point x="346.49493413802395" y="441.4854514900875"/>
      <point x="363.7255661383825" y="555.4502781319746" type="curve" smooth="yes"/>
      <point x="378.40761185598524" y="652.5585440922741"/>
      <point x="430.2708132012788" y="723.5047482290477"/>
      <point x="531.8317486381982" y="732.291965688981" type="curve"/>
    </contour>
  </outline>
</glyph>
<glyph name="copyright" format="2">
  <advance width="1559"/>
  <unicode hex="00A9"/>
  <guideline x="0.0" y="901.0" angle="0.0" identifier="R1A5Oh0HGn"/>
  <guideline x="0.0" y="555.0" angle="0.0" identifier="5hAe5CsuGd"/>
  <outline>
    <contour>
      <point x="928.8657065564071" y="595.4788131231917" type="line"/>
      <point x="910.0094674190277" y="483.31528617152867"/>
      <point x="851.1085900053831" y="411.7744013140995"/>
      <point x="730.1381580696444" y="416.81383156816975" type="curve" smooth="yes"/>
      <point x="595.2198824563992" y="422.43430616739704"/>
      <point x="574.4247820460392" y="558.463113549784"/>
      <point x="584.9615040750654" y="668.0779833579481" type="curve" smooth="yes"/>
      <point x="598.9365577654784" y="789.3316869640099" type="line" smooth="yes"/>
      <point x="615.4573419769653" y="914.9307679855447"/>
      <point x="684.8714166206513" y="1044.1755248683144"/>
      <point x="828.1575675193128" y="1041.7098791071774" type="curve" smooth="yes"/>
      <point x="945.0261288601668" y="1039.6988231113746"/>
      <point x="982.4519306947808" y="969.2663347006585"/>
      <point x="975.9458362936685" y="860.8774933330636" type="curve"/>
      <point x="1128.0658665304481" y="859.8706253760693" type="line"/>
      <point x="1133.4846972038226" y="1052.517024337099"/>
      <point x="1023.1078216151417" y="1172.0793711018953"/>
      <point x="828.4058812450148" y="1175.6860044405971" type="curve" smooth="yes"/>
      <point x="601.7748002307485" y="1179.8840890144759"/>
      <point x="468.8612891293709" y="997.2584898096943"/>
      <point x="446.3154707097583" y="787.9567681476017" type="curve" smooth="yes"/>
      <point x="434.4260709924721" y="668.8968549840739" type="line" smooth="yes"/>
      <point x="418.489614777636" y="471.06647370952146"/>
      <point x="514.6745320936687" y="287.5437421024334"/>
      <point x="730.6795382419396" y="281.6978520289539" type="curve" smooth="yes"/>
      <point x="934.3360177621328" y="276.1861585119543"/>
      <point x="1064.3767241129538" y="395.7059460321252"/>
      <point x="1079.4735019738778" y="596.4146670360952" type="curve"/>
    </contour>
    <contour>
      <point x="224.48083136679895" y="721.8236200677411" type="curve" smooth="yes"/>
      <point x="269.3645040632385" y="1052.9388767125126"/>
      <point x="552.4765910434746" y="1358.385020617959"/>
      <point x="901.1683512236792" y="1351.2605956579546" type="curve" smooth="yes"/>
      <point x="1231.2923620237564" y="1344.5155445525734"/>
      <point x="1402.404357305819" y="1039.2677817265564"/>
      <point x="1361.2954111159083" y="736.0618323521223" type="curve" smooth="yes"/>
      <point x="1316.4942663068457" y="405.62345083439703"/>
      <point x="1034.1008065666922" y="97.4674738804847"/>
      <point x="685.3497595863977" y="104.61389791675192" type="curve" smooth="yes"/>
      <point x="354.5435532432466" y="111.39260566494872"/>
      <point x="183.33227125690038" y="418.2629882651505"/>
    </contour>
    <contour>
      <point x="104.37939968404291" y="722.4423247002505" type="curve" smooth="yes"/>
      <point x="64.19135151970269" y="350.3823829333978"/>
      <point x="293.41909674953826" y="-13.891273015656143"/>
      <point x="691.8401290944087" y="-20.329215227832247" type="curve" smooth="yes"/>
      <point x="1106.932261015165" y="-27.0365397440783"/>
      <point x="1438.640747352379" y="339.580403300325"/>
      <point x="1481.4079936070266" y="735.4425776768634" type="curve" smooth="yes"/>
      <point x="1521.5637100221672" y="1107.1319101883719"/>
      <point x="1292.3713301070413" y="1469.7957484769643"/>
      <point x="894.6685414606782" y="1476.205364921966" type="curve" smooth="yes"/>
      <point x="479.60786931088063" y="1482.8947314183386"/>
      <point x="147.21518117934613" y="1119.0149152253568"/>
    </contour>
  </outline>
</glyph>
<glyph name="ordfeminine" format="2">
  <advance width="781"/>
  <unicode hex="00AA"/>
  <guideline x="0.0" y="1681.0" angle="0.0" identifier="6EMTVQBigO"/>
  <guideline x="0.0" y="909.0" angle="0.0" identifier="8OhiHaXVop"/>
  <outline>
    <contour>
      <point x="527.4381017225967" y="860.9503806195826" type="line" smooth="yes"/>
      <point x="520.7562965925574" y="808.0540620568838"/>
      <point x="521.348560053874" y="756.4069427363545"/>
      <point x="529.6587153013859" y="703.7913076427105" type="curve"/>
      <point x="686.3219870670878" y="703.0549017301663" type="line"/>
      <point x="678.904799767007" y="764.9426662882759"/>
      <point x="683.4884282802932" y="824.3778849963759"/>
      <point x="693.4886996727348" y="885.7718108104182" type="curve" smooth="yes"/>
      <point x="741.1333405682037" y="1199.945673541339" type="line"/>
      <point x="753.0943223147536" y="1347.3942502159014"/>
      <point x="684.9648307559211" y="1473.5795950188042"/>
      <point x="525.2163760529962" y="1476.8741988140134" type="curve" smooth="yes"/>
      <point x="378.7497064242466" y="1479.8948830924805"/>
      <point x="268.6213234959754" y="1389.1313986033952"/>
      <point x="256.5494494084739" y="1242.9660502441784" type="curve"/>
      <point x="419.36474310445965" y="1229.2052623609356" type="line"/>
      <point x="433.5370835914944" y="1284.6000518844971"/>
      <point x="464.08186981728335" y="1330.254747730522"/>
      <point x="528.1154993125784" y="1328.0217387372672" type="curve" smooth="yes"/>
      <point x="591.7980613779366" y="1325.800972322396"/>
      <point x="584.9267650900506" y="1247.8452881951011"/>
      <point x="579.7641209960575" y="1203.126348595132" type="curve" smooth="yes"/>
    </contour>
    <contour>
      <point x="616.6620882774766" y="1150.4687492149924" type="line"/>
      <point x="489.01166101733054" y="1151.4525455568723" type="line" smooth="yes"/>
      <point x="330.9069118706806" y="1150.5169298091173"/>
      <point x="187.5576343236627" y="1087.5579566942004"/>
      <point x="183.16261674172455" y="911.2269980935312" type="curve" smooth="yes"/>
      <point x="180.1992270555092" y="792.3338800716339"/>
      <point x="243.54107465817341" y="687.8605686546883"/>
      <point x="372.40141451191323" y="689.0665379629247" type="curve" smooth="yes"/>
      <point x="466.2385765778019" y="689.9447347576244"/>
      <point x="534.0485743661906" y="748.897818801449"/>
      <point x="571.325586336573" y="830.8976921392759" type="curve"/>
      <point x="568.4220427505136" y="948.8615111102182" type="line"/>
      <point x="544.9682904708069" y="891.2974931130336"/>
      <point x="476.3805750806812" y="831.5237132998602"/>
      <point x="410.567094728224" y="832.287835901786" type="curve" smooth="yes"/>
      <point x="360.07256096624417" y="832.8740989943105"/>
      <point x="342.06636689285426" y="868.2031144930414"/>
      <point x="348.55840551337405" y="914.8239287316994" type="curve" smooth="yes"/>
      <point x="359.2299764352649" y="991.4589203985088"/>
      <point x="425.09582847192394" y="1029.5156451361286"/>
      <point x="496.80896070140943" y="1033.2890656282098" type="curve"/>
      <point x="596.7692110105024" y="1033.4045329507248" type="line"/>
    </contour>
  </outline>
</glyph>
<glyph name="logicalnot" format="2">
  <advance width="963"/>
  <unicode hex="00AC"/>
  <outline>
    <contour>
      <point x="846.9738646129359" y="804.9016891276665" type="line"/>
      <point x="158.4847019611704" y="804.9131050693462" type="line"/>
      <point x="128.13697585504866" y="634.0982340324374" type="line"/>
      <point x="816.6261385068137" y="634.0868180907635" type="line"/>
    </contour>
    <contour>
      <point x="833.5976310087071" y="727.9251957706276" type="line"/>
      <point x="646.5991387132735" y="727.9353923340362" type="line"/>
      <point x="584.6172955387556" y="374.0747453846421" type="line"/>
      <point x="771.6157878341892" y="374.0645488212411" type="line"/>
    </contour>
  </outline>
</glyph>
<glyph name="macron" format="2">
  <advance width="910"/>
  <unicode hex="00AF"/>
  <anchor x="608.2877302092838" y="1603" name="mkmktop_acc"/>
  <outline>
    <contour>
      <point x="878.892267366381" y="1454.9240279579053" type="line"/>
      <point x="296.1182597067537" y="1454.9323814249292" type="line"/>
      <point x="269.3984168874052" y="1288.0757018380787" type="line"/>
      <point x="852.1724245470303" y="1288.0673483710468" type="line"/>
    </contour>
  </outline>
</glyph>
<glyph name="degree" format="2">
  <advance width="773"/>
  <unicode hex="00B0"/>
  <outline>
    <contour>
      <point x="227.8054442467457" y="1191.3510821870443" type="curve" smooth="yes"/>
      <point x="223.73316420761108" y="1052.2128405161782"/>
      <point x="327.24137443912207" y="929.4653056106713"/>
      <point x="469.66483263966484" y="927.0467610186648" type="curve" smooth="yes"/>
      <point x="623.8826609561505" y="924.4279319340583"/>
      <point x="746.6384725969538" y="1058.3437662694569"/>
      <point x="751.1828152493765" y="1208.5412266720425" type="curve" smooth="yes"/>
      <point x="755.34690528494" y="1346.170757732142"/>
      <point x="656.5774415479225" y="1474.4810857122293"/>
      <point x="513.339940480602" y="1476.9770777467286" type="curve" smooth="yes"/>
      <point x="358.17126987491645" y="1479.6809769557324"/>
      <point x="232.2284564836302" y="1342.4728468040992"/>
    </contour>
    <contour>
      <point x="371.19964909721585" y="1193.0640178958652" type="curve" smooth="yes"/>
      <point x="380.15695376039946" y="1263.086317987827"/>
      <point x="442.586209212828" y="1328.8960584975846"/>
      <point x="515.6859316896924" y="1328.5614255980356" type="curve" smooth="yes"/>
      <point x="581.6995886597076" y="1328.2592309973832"/>
      <point x="617.7481989277287" y="1268.2372383699803"/>
      <point x="609.330679010045" y="1206.912368848176" type="curve" smooth="yes"/>
      <point x="599.7511295173232" y="1137.12166701869"/>
      <point x="540.6303660801295" y="1075.911782857227"/>
      <point x="468.07444237618995" y="1075.5272640958965" type="curve" smooth="yes"/>
      <point x="403.4632056390334" y="1075.184849149605"/>
      <point x="363.3484195599909" y="1131.6882836299453"/>
    </contour>
  </outline>
</glyph>
<glyph name="threesuperior" format="2">
  <advance width="676"/>
  <unicode hex="00B3"/>
  <outline>
    <contour>
      <point x="335.1350461001772" y="1137.5664439040188" type="line"/>
      <point x="318.59041558942045" y="1047.5685731551134" type="line"/>
      <point x="441.5450702383331" y="1046.8276821032746" type="line" smooth="yes"/>
      <point x="564.2659634834364" y="1048.5766432913128"/>
      <point x="691.2246726681683" y="1110.6759414961946"/>
      <point x="694.5934416188002" y="1248.200500920416" type="curve" smooth="yes"/>
      <point x="698.2148826001863" y="1396.0399885031202"/>
      <point x="575.1833017362226" y="1468.3649512675652"/>
      <point x="440.4242278861017" y="1469.9711363969197" type="curve" smooth="yes"/>
      <point x="297.41683054397697" y="1471.675632787672"/>
      <point x="189.82092483591893" y="1385.9270649889397"/>
      <point x="177.18464728198802" y="1242.4765366470697" type="curve"/>
      <point x="376.1410477338916" y="1242.815158001746" type="line"/>
      <point x="390.6192064791642" y="1274.8171323032002"/>
      <point x="410.4435602182899" y="1302.0506695953027"/>
      <point x="449.95388692564416" y="1302.1154310363422" type="curve" smooth="yes"/>
      <point x="490.7554059272345" y="1302.18230887278"/>
      <point x="504.8455802353078" y="1268.4727409814614"/>
      <point x="498.4584950008534" y="1232.5808529023075" type="curve" smooth="yes"/>
      <point x="488.8863560636572" y="1178.7907237901013"/>
      <point x="453.6403371290038" y="1142.6756972918886"/>
      <point x="399.1380611177633" y="1137.6894787463057" type="curve"/>
    </contour>
    <contour>
      <point x="310.6458656725298" y="1000.9400773992381" type="line"/>
      <point x="402.08099977509096" y="1000.1740084623848" type="line"/>
      <point x="453.2529892181443" y="996.786269772168"/>
      <point x="468.1638175771866" y="964.7236112014427"/>
      <point x="459.31882198695257" y="915.3490632809336" type="curve" smooth="yes"/>
      <point x="450.55402637912664" y="866.4222078249646"/>
      <point x="414.7406131348474" y="823.3694081761114"/>
      <point x="361.7776867511227" y="823.3471808469299" type="curve" smooth="yes"/>
      <point x="310.0059892211149" y="823.3254534492603"/>
      <point x="296.79821116899177" y="861.6308449114968"/>
      <point x="295.2050384324268" y="905.1629304815174" type="curve"/>
      <point x="105.18246732831525" y="905.7887631208846" type="line"/>
      <point x="104.89735926888038" y="757.486165173302"/>
      <point x="197.6966112080604" y="658.9232948053652"/>
      <point x="348.0215533750145" y="655.7816949675278" type="curve" smooth="yes"/>
      <point x="494.9599159904353" y="652.7108703291785"/>
      <point x="640.8220507416296" y="735.9144613332036"/>
      <point x="643.5511610684978" y="896.2226957624542" type="curve" smooth="yes"/>
      <point x="645.9381505341083" y="1036.4347139670676"/>
      <point x="542.5267040490232" y="1084.1724228578262"/>
      <point x="417.5862807409874" y="1087.0161672106467" type="curve" smooth="yes"/>
      <point x="326.71323650041495" y="1087.5303897633462" type="line"/>
    </contour>
  </outline>
</glyph>
<glyph name="paragraph" format="2">
  <advance width="865"/>
  <unicode hex="00B6"/>
  <guideline x="0.0" y="901.0" angle="0.0" identifier="o3f7jyXWBn"/>
  <guideline x="0.0" y="555.0" angle="0.0" identifier="DNrNZYYmyC"/>
  <outline>
    <contour>
      <point x="641.9005385598746" y="0.0" type="line"/>
      <point x="894.5789472650056" y="1455.8655880597614" type="line"/>
      <point x="611.6060388132533" y="1457.3991226283933" type="line" smooth="yes"/>
      <point x="335.9390565766763" y="1457.3283105433063"/>
      <point x="168.6330039323907" y="1240.906501454195"/>
      <point x="145.26589332475112" y="980.1254650956248" type="curve" smooth="yes"/>
      <point x="124.7070538061635" y="750.6852246649582"/>
      <point x="221.71893717843022" y="526.6760396665757"/>
      <point x="478.4335542718477" y="521.6797838086159" type="curve" smooth="yes"/>
      <point x="532.0487611957062" y="521.7845164287738" type="line"/>
      <point x="434.4607749283058" y="0.0" type="line"/>
    </contour>
  </outline>
</glyph>
<glyph name="periodcentered" format="2">
  <advance width="566"/>
  <unicode hex="00B7"/>
  <guideline x="0.0" y="901.0" angle="0.0" identifier="6s2EcbBk0F"/>
  <guideline x="0.0" y="555.0" angle="0.0" identifier="RjHZgm83ox"/>
  <outline>
    <contour>
      <point x="144.89595060129932" y="691.3941344473906" type="curve" smooth="yes"/>
      <point x="145.6180648248528" y="605.6176715223064"/>
      <point x="207.48808894144196" y="538.0832495764728"/>
      <point x="294.97875583858695" y="539.695308808247" type="curve" smooth="yes"/>
      <point x="385.5863300098449" y="541.3647986131784"/>
      <point x="447.7788657529587" y="613.9509265704348"/>
      <point x="447.02803251685646" y="702.6027443787816" type="curve" smooth="yes"/>
      <point x="446.29716538106146" y="788.897139790681"/>
      <point x="383.7475650325095" y="855.9871833178374"/>
      <point x="295.97473623812135" y="854.2931081467347" type="curve" smooth="yes"/>
      <point x="205.65859913116677" y="852.5499453989415"/>
      <point x="144.15401383722903" y="779.5252212758129"/>
    </contour>
  </outline>
</glyph>
<glyph name="AE" format="2">
  <advance width="1625"/>
  <unicode hex="00C6"/>
  <anchor x="949.88544827856" y="1612" name="top"/>
  <anchor x="1778.1320635163638" y="1600" name="top_dd"/>
  <anchor x="1780.20544827856" y="1612" name="top0315"/>
  <anchor x="949.88544827856" y="1612" name="parent_top"/>
  <outline>
    <contour>
      <point x="954.8423457431988" y="1283.9947540285418" type="line"/>
      <point x="955.9389521207904" y="1456.0039217581318" type="line"/>
      <point x="780.3274953192176" y="1455.716451490262" type="line"/>
      <point x="-95.21900549687288" y="0.0" type="line"/>
      <point x="239.1112729585697" y="0.0" type="line"/>
    </contour>
    <contour>
      <point x="929.5414425463341" y="581.9056584829069" type="line"/>
      <point x="298.2817840214008" y="581.9188539885404" type="line"/>
      <point x="254.68861168956022" y="334.0944811287904" type="line"/>
      <point x="885.948270214483" y="334.0812856231547" type="line"/>
    </contour>
    <contour>
      <point x="1492.6705349541471" y="237.9052832496261" type="line"/>
      <point x="894.3902101954119" y="237.91848817687588" type="line"/>
      <point x="852.5547437041957" y="0.0" type="line"/>
      <point x="1450.8350684629313" y="0.0" type="line"/>
    </contour>
    <contour>
      <point x="1174.333504663352" y="1455.9577687707792" type="line"/>
      <point x="899.2205370102945" y="1455.9544076615803" type="line"/>
      <point x="696.0445285372272" y="0.0" type="line"/>
      <point x="971.287555841265" y="0.0" type="line"/>
    </contour>
    <contour>
      <point x="1486.2089438765638" y="866.9034231524262" type="line"/>
      <point x="970.3897405462806" y="866.9165583829363" type="line"/>
      <point x="928.5570566562203" y="629.0968048596955" type="line"/>
      <point x="1444.376259986504" y="629.0836696291841" type="line"/>
    </contour>
    <contour>
      <point x="1654.2211800409252" y="1455.9054688905603" type="line"/>
      <point x="1055.9408552821237" y="1455.9186738177668" type="line"/>
      <point x="1014.1053887908984" y="1218.0949386658654" type="line"/>
      <point x="1612.3857135496999" y="1218.0817337386607" type="line"/>
    </contour>
  </outline>
</glyph>
<glyph name="Eth" format="2">
  <advance width="1152"/>
  <unicode hex="00D0"/>
  <anchor x="609.8004097069129" y="1603" name="parent_top"/>
  <anchor x="335.52858252534537" y="10" name="bottom"/>
  <anchor x="1305.6720635163638" y="1600" name="top_dd"/>
  <anchor x="958.8984620390215" y="-407" name="bottom_dd"/>
  <anchor x="1306.1904097069128" y="1603" name="top0315"/>
  <anchor x="609.8004097069129" y="1603" name="top"/>
  <outline>
    <contour>
      <point x="425.41773880052233" y="0.0" type="line" smooth="yes"/>
      <point x="796.4987369764847" y="-2.2465783708975673"/>
      <point x="1014.2623201555898" y="268.00283100808105"/>
      <point x="1066.6274049535152" y="615.2135562150344" type="curve" smooth="yes"/>
      <point x="1100.8796168241313" y="840.3156563537883" type="line" smooth="yes"/>
      <point x="1140.9083461574032" y="1160.007242222786"/>
      <point x="999.3383658516016" y="1446.1110287080285"/>
      <point x="650.4513138621223" y="1454.9419655168776" type="curve" smooth="yes"/>
      <point x="406.96460007277494" y="1456.05642819132" type="line"/>
      <point x="363.8567774129483" y="1211.3502140166524" type="line"/>
      <point x="637.5335610831805" y="1210.0397018178642" type="line" smooth="yes"/>
      <point x="851.0506747599063" y="1203.022630657613"/>
      <point x="835.5277013618934" y="1010.3800684855157"/>
      <point x="813.8134864955409" y="842.9194386943275" type="curve" smooth="yes"/>
      <point x="781.0300195901387" y="614.6348955524236" type="line" smooth="yes"/>
      <point x="751.172651438855" y="402.86462170424977"/>
      <point x="675.4406883218304" y="240.67094032063153"/>
      <point x="438.8453627889047" y="242.3052638829121" type="curve" smooth="yes"/>
      <point x="203.6747711419555" y="244.0575244950953" type="line"/>
      <point x="158.80218176061942" y="0.0" type="line"/>
    </contour>
    <contour>
      <point x="579.295828757129" y="1455.9294289116237" type="line"/>
      <point x="291.41854994657797" y="1455.9423961118819" type="line"/>
      <point x="38.74965572606361" y="0.0" type="line"/>
      <point x="326.62693453655834" y="0.0" type="line"/>
    </contour>
    <contour>
      <point x="649.5452811296691" y="824.9067636353348" type="line"/>
      <point x="59.02641676667639" y="824.9188875394104" type="line"/>
      <point x="26.67405344951601" y="642.0932017773287" type="line"/>
      <point x="617.1929178125117" y="642.0810778732521" type="line"/>
    </contour>
  </outline>
</glyph>
<glyph name="multiply" format="2">
  <advance width="931"/>
  <unicode hex="00D7"/>
  <outline>
    <contour>
      <point x="168.69509250728095" y="205.13428680570752" type="line"/>
      <point x="931.1464925852993" y="987.4972636044655" type="line"/>
      <point x="790.2516337045256" y="1168.9352414186797" type="line"/>
      <point x="28.838168250739116" y="386.43152631585076" type="line"/>
    </contour>
    <contour>
      <point x="639.0418110038654" y="203.5774551626138" type="line"/>
      <point x="817.3713418364658" y="363.72213559558804" type="line"/>
      <point x="312.43354594548657" y="1169.9392363347563" type="line"/>
      <point x="133.77924176457907" y="1010.5173851184902" type="line"/>
    </contour>
  </outline>
</glyph>
<glyph name="Thorn" format="2">
  <advance width="1059"/>
  <unicode hex="00DE"/>
  <guideline x="0.0" y="901.0" angle="0.0" identifier="9CuoZauvYp"/>
  <guideline x="0.0" y="555.0" angle="0.0" identifier="XXwQoAuGjJ"/>
  <outline>
    <contour>
      <point x="264.32736955140496" y="1455.9437069966925" type="line"/>
      <point x="11.663014384203379" y="0.0" type="line"/>
      <point x="288.8695442508872" y="0.0" type="line"/>
      <point x="541.5338994180603" y="1455.9307787340174" type="line"/>
    </contour>
    <contour>
      <point x="323.4953976913408" y="1190.030794999709" type="line"/>
      <point x="465.1642570874619" y="955.2221804111299" type="line"/>
      <point x="625.0056154462728" y="953.630426779744" type="line" smooth="yes"/>
      <point x="739.2658857781051" y="946.900184409463"/>
      <point x="761.8837023726376" y="841.4545364259495"/>
      <point x="748.5845382814668" y="743.8523830571693" type="curve" smooth="yes"/>
      <point x="731.7689259344096" y="620.4431248484482"/>
      <point x="653.0852529468195" y="522.8816518582023"/>
      <point x="522.7055288182472" y="520.2181379816342" type="curve" smooth="yes"/>
      <point x="344.15077061808654" y="521.9721157349057" type="line"/>
      <point x="302.8542993778712" y="287.1140884053226" type="line"/>
      <point x="510.1861477256027" y="285.6068967665635" type="line" smooth="yes"/>
      <point x="790.291402192911" y="284.96925618716557"/>
      <point x="1001.5824612965858" y="462.3954789767987"/>
      <point x="1025.0646039732505" y="746.197303770158" type="curve" smooth="yes"/>
      <point x="1046.3192727459204" y="1003.0781968862937"/>
      <point x="895.0035204385749" y="1181.4770564267244"/>
      <point x="635.8075962470316" y="1188.7155442856517" type="curve" smooth="yes"/>
    </contour>
  </outline>
</glyph>
<glyph name="ae" format="2">
  <advance width="1447"/>
  <unicode hex="00E6"/>
  <anchor x="842.0424058898074" y="1291" name="top"/>
  <anchor x="1600.6220635163636" y="1600" name="top_dd"/>
  <anchor x="1547.2324058898073" y="1291" name="top0315"/>
  <anchor x="842.0424058898074" y="1291" name="parent_top"/>
  <outline>
    <contour>
      <point x="524.0733142187572" y="181.35358304739353" type="line"/>
      <point x="796.8100742780558" y="216.1394316100845" type="line"/>
      <point x="877.2552553393186" y="704.210113147324" type="line"/>
      <point x="900.271678560361" y="924.4532641882099"/>
      <point x="791.9430018270444" y="1097.596562968121"/>
      <point x="559.396142503037" y="1102.8993696753664" type="curve" smooth="yes"/>
      <point x="348.3492026713235" y="1107.711909957942"/>
      <point x="148.75704649770185" y="986.95337918274"/>
      <point x="132.66686465688105" y="763.6987610152341" type="curve"/>
      <point x="405.97545045985777" y="746.1420483337315" type="line"/>
      <point x="420.3305976698424" y="811.0501498473832"/>
      <point x="462.3815773731514" y="870.0412422225203"/>
      <point x="536.3392533909388" y="868.1661625166382" type="curve" smooth="yes"/>
      <point x="616.4734838882264" y="866.1344860573103"/>
      <point x="614.7320643108997" y="766.584933593797"/>
      <point x="608.8531395953792" y="709.4665939137438" type="curve"/>
    </contour>
    <contour>
      <point x="645.1604000990261" y="650.0396932647716" type="line"/>
      <point x="477.878011205774" y="651.1014193721987" type="line" smooth="yes"/>
      <point x="255.11055619317085" y="651.160461918539"/>
      <point x="34.508369368770005" y="563.1694183619334"/>
      <point x="20.451883066414055" y="312.464027155012" type="curve" smooth="yes"/>
      <point x="9.636591186889342" y="119.56717346414135"/>
      <point x="120.14869639800202" y="-16.996236822992817"/>
      <point x="317.47666403633576" y="-20.449122447111467" type="curve" smooth="yes"/>
      <point x="470.7395405292595" y="-23.13094798500691"/>
      <point x="629.4176322536457" y="49.08300401673742"/>
      <point x="698.2050488528844" y="191.6371343112966" type="curve"/>
      <point x="592.0760011253157" y="349.1178378619544" type="line"/>
      <point x="572.4766955676757" y="267.1968883017738"/>
      <point x="470.5168134511468" y="189.824886311662"/>
      <point x="385.4980693587149" y="190.51070175756647" type="curve" smooth="yes"/>
      <point x="314.99379207639197" y="191.07943425154426"/>
      <point x="289.91095731052815" y="242.78179438100597"/>
      <point x="299.01649619755057" y="307.1926032362815" type="curve" smooth="yes"/>
      <point x="311.72862110568866" y="397.1156992508903"/>
      <point x="386.48976565876194" y="458.084443111741"/>
      <point x="475.1545949297413" y="461.83343518904314" type="curve" smooth="yes"/>
      <point x="614.065132034357" y="461.2336358622521" type="line"/>
    </contour>
    <contour>
      <point x="943.1102509104642" y="-19.31731677870919" type="curve" smooth="yes"/>
      <point x="1060.3640065651648" y="-21.151752762815615"/>
      <point x="1199.24251384403" y="15.55846622992506"/>
      <point x="1285.4621369344952" y="99.3933542728305" type="curve"/>
      <point x="1231.9786177748222" y="291.1163698157028" type="line"/>
      <point x="1155.0304138768513" y="249.00152175564335"/>
      <point x="1078.9130590507068" y="213.8932861568468"/>
      <point x="988.8034030172817" y="217.28020033811586" type="curve" smooth="yes"/>
      <point x="842.0739315006629" y="222.79525998616742"/>
      <point x="835.7360972844946" y="378.3468975263762"/>
      <point x="846.9875567354226" y="492.13159832088263" type="curve" smooth="yes"/>
      <point x="854.5821108553458" y="561.7048984502218" type="line" smooth="yes"/>
      <point x="867.287380024939" y="670.445169222198"/>
      <point x="900.5080592818506" y="877.1798224401332"/>
      <point x="1051.265428043802" y="868.6898548192144" type="curve" smooth="yes"/>
      <point x="1145.113377787523" y="863.4047661953083"/>
      <point x="1133.8995629296248" y="739.0649162491621"/>
      <point x="1124.177675460012" y="674.0727252051511" type="curve" smooth="yes"/>
      <point x="1118.9375301789257" y="644.3878958572363" type="line"/>
      <point x="718.5587457956024" y="644.9245329740359" type="line"/>
      <point x="683.919408799258" y="449.0990871784219" type="line"/>
      <point x="1364.1483060639046" y="448.96040169936566" type="line"/>
      <point x="1388.97491594002" y="612.2521785686774" type="line" smooth="yes"/>
      <point x="1415.7011280456027" y="838.2784818284393"/>
      <point x="1343.257404784657" y="1094.0830005617418"/>
      <point x="1077.400321721972" y="1102.2056057861555" type="curve" smooth="yes"/>
      <point x="772.8164142508328" y="1111.5114132884296"/>
      <point x="622.6057679181253" y="829.1377309150957"/>
      <point x="592.3573913447436" y="562.4031567386792" type="curve" smooth="yes"/>
      <point x="584.738547579609" y="490.4616939023241" type="line" smooth="yes"/>
      <point x="560.3886723583944" y="239.73426655981433"/>
      <point x="655.8595895805869" y="-14.823277789001411"/>
    </contour>
  </outline>
</glyph>
<glyph name="eth" format="2">
  <advance width="998"/>
  <unicode hex="00F0"/>
  <outline>
    <contour>
      <point x="326.0672960554055" y="1355.0340224287252" type="line"/>
      <point x="628.781748423213" y="1247.1091617854124"/>
      <point x="704.016157258271" y="948.1468089662133"/>
      <point x="664.589888293607" y="653.8167929986251" type="curve" smooth="yes"/>
      <point x="650.2617980482328" y="548.5667942242691" type="line" smooth="yes"/>
      <point x="634.934514890282" y="436.5349533983158"/>
      <point x="590.2871719844435" y="205.03305131254416"/>
      <point x="434.3066945115786" y="212.66234948577653" type="curve" smooth="yes"/>
      <point x="322.9830313972902" y="218.1073989778396"/>
      <point x="321.3457638422982" y="380.5655334569842"/>
      <point x="328.82312627069916" y="459.23089121631017" type="curve" smooth="yes"/>
      <point x="339.83425751494474" y="575.073153371939"/>
      <point x="388.4303906587878" y="749.2262875481723"/>
      <point x="534.7349449112046" y="745.7735270920681" type="curve" smooth="yes"/>
      <point x="627.5433839551646" y="743.5832650734923"/>
      <point x="686.1916560122581" y="680.0193425239966"/>
      <point x="681.2186855132069" y="589.0417838522004" type="curve"/>
      <point x="780.9709396458971" y="586.4779198715466" type="line"/>
      <point x="778.0107474517449" y="765.1373590803234"/>
      <point x="689.6039072318689" y="958.8577867944097"/>
      <point x="487.28723333533867" y="965.7012697433569" type="curve" smooth="yes"/>
      <point x="208.04554976712564" y="975.1467873239379"/>
      <point x="74.84538817930537" y="700.0670325224287"/>
      <point x="52.46066054191208" y="459.2041108554212" type="curve" smooth="yes"/>
      <point x="30.825361435137033" y="226.40514906272494"/>
      <point x="145.00410749809686" y="-13.551373590585948"/>
      <point x="404.20197864371636" y="-20.689543531262657" type="curve" smooth="yes"/>
      <point x="724.5629884062449" y="-29.51211340787627"/>
      <point x="893.3040851714834" y="307.04413368929227"/>
      <point x="929.6279867838525" y="580.2733476122518" type="curve" smooth="yes"/>
      <point x="938.9674004731271" y="653.6632311028177" type="line" smooth="yes"/>
      <point x="988.5375258765457" y="1052.7758097010449"/>
      <point x="847.4275479077821" y="1459.9851212542337"/>
      <point x="430.62725320043023" y="1580.9928448836677" type="curve"/>
    </contour>
    <contour>
      <point x="959.9051129364268" y="1383.6001871958076" type="line"/>
      <point x="903.9119354023503" y="1510.4065190233412" type="line"/>
      <point x="375.967074981458" y="1158.265128651642" type="line"/>
      <point x="433.0196032167529" y="1030.751882016167" type="line"/>
    </contour>
  </outline>
</glyph>
<glyph name="divide" format="2">
  <advance width="992"/>
  <unicode hex="00F7"/>
  <outline>
    <contour>
      <point x="949.2035041463021" y="801.9063549946856" type="line"/>
      <point x="104.5462587603137" y="801.9191805340687" type="line"/>
      <point x="63.94254213508525" y="571.0941293699686" type="line"/>
      <point x="908.5997875210675" y="571.0813038305776" type="line"/>
    </contour>
    <contour>
      <point x="424.3008128675474" y="1084.6207758264106" type="curve" smooth="yes"/>
      <point x="425.0497043118181" y="998.3735045473902"/>
      <point x="488.32855821918395" y="935.1406033784872"/>
      <point x="574.9428032292102" y="936.7245477683755" type="curve" smooth="yes"/>
      <point x="664.6149689881531" y="938.3644134032554"/>
      <point x="727.2577535500492" y="1006.594678250616"/>
      <point x="726.474859679218" y="1095.4211120473938" type="curve" smooth="yes"/>
      <point x="725.7117963423065" y="1181.997591317765"/>
      <point x="662.2206197604264" y="1244.7948385950097"/>
      <point x="575.4282660207283" y="1243.2580273256763" type="curve" smooth="yes"/>
      <point x="486.003141868474" y="1241.674598225794"/>
      <point x="423.53288591829545" y="1173.0603012359968"/>
    </contour>
    <contour>
      <point x="283.6204628890115" y="272.62083366314187" type="curve" smooth="yes"/>
      <point x="284.3693543332825" y="186.3735623841218"/>
      <point x="347.64820824063025" y="123.14066121521843"/>
      <point x="434.26245325067475" y="124.7246056051071" type="curve" smooth="yes"/>
      <point x="523.9346190097361" y="126.36447123998923"/>
      <point x="586.5774035714765" y="194.59473609146912"/>
      <point x="585.7945097006822" y="283.42116988412533" type="curve" smooth="yes"/>
      <point x="585.0314463637712" y="369.9976491544956"/>
      <point x="521.5402697818847" y="432.7948964317421"/>
      <point x="434.7479160421932" y="431.25808516240875" type="curve" smooth="yes"/>
      <point x="345.32279189005243" y="429.67465606252836"/>
      <point x="282.85253593972294" y="361.06035907690745"/>
    </contour>
  </outline>
</glyph>
<glyph name="oslash" format="2">
  <advance width="986"/>
  <unicode hex="00F8"/>
  <anchor x="582.0157135087092" y="1285" name="top"/>
  <anchor x="1139.8720635163636" y="1600" name="top_dd"/>
  <anchor x="1085.445713508709" y="1285" name="top0315"/>
  <anchor x="582.0157135087092" y="1285" name="parent_top"/>
  <outline>
    <contour>
      <point x="952.8010939186822" y="1215.6810998834126" type="line"/>
      <point x="793.5012487230465" y="1215.7485288383712" type="line"/>
      <point x="17.155411382844946" y="-141.71301081462826" type="line"/>
      <point x="176.72730259415817" y="-141.73799240583767" type="line"/>
    </contour>
    <contour>
      <point x="58.0980988864528" y="522.8669839458084" type="line" smooth="yes"/>
      <point x="31.258828286487066" y="273.32033274924413"/>
      <point x="113.0649518324621" y="-12.929156842342948"/>
      <point x="408.3399038572759" y="-20.881049990277646" type="curve" smooth="yes"/>
      <point x="716.4194549183047" y="-29.177777004545757"/>
      <point x="873.4519983968736" y="262.41629158713414"/>
      <point x="907.0125004596433" y="531.5288398417895" type="curve" smooth="yes"/>
      <point x="909.5652439837863" y="553.480103532055" type="line" smooth="yes"/>
      <point x="936.2942731036105" y="803.596237597456"/>
      <point x="856.5792664421451" y="1094.5978091791092"/>
      <point x="559.2898476751805" y="1102.5829354738414" type="curve" smooth="yes"/>
      <point x="248.15826632913564" y="1110.9398591128743"/>
      <point x="94.09195611939346" y="814.3347704897385"/>
      <point x="60.57379821062459" y="544.0859916004281" type="curve" smooth="yes"/>
    </contour>
    <contour>
      <point x="337.2064420221081" y="545.6159557322836" type="line" smooth="yes"/>
      <point x="349.16908249505025" y="655.3126092096002"/>
      <point x="382.3360204248652" y="874.5446600941112"/>
      <point x="534.6485138630617" y="868.2908903841927" type="curve" smooth="yes"/>
      <point x="672.1682869678879" y="862.6444921660006"/>
      <point x="640.8953702989462" y="639.3178219563745"/>
      <point x="632.533680588118" y="552.6059082497717" type="curve" smooth="yes"/>
      <point x="630.5768156192242" y="531.9903188234013" type="line" smooth="yes"/>
      <point x="618.4612622404429" y="421.7042408252591"/>
      <point x="585.1998909936146" y="206.74173083996055"/>
      <point x="432.9001464789027" y="213.07329323381146" type="curve" smooth="yes"/>
      <point x="295.5949611030123" y="218.7814863169767"/>
      <point x="326.8413774010689" y="437.36143602411744"/>
      <point x="335.2000343917831" y="524.415542031697" type="curve" smooth="yes"/>
    </contour>
  </outline>
</glyph>
<glyph name="dcroat" format="2">
  <advance width="1118"/>
  <unicode hex="0111"/>
  <anchor x="393.94076189018176" y="0" name="bottom"/>
  <anchor x="591.3704097069128" y="1603" name="top"/>
  <anchor x="1137.9320635163638" y="1600" name="top_dd"/>
  <anchor x="791.1584620390216" y="-407" name="bottom_dd"/>
  <anchor x="393.94076189018176" y="0" name="markbottom"/>
  <anchor x="1272.3104097069129" y="1603" name="top0315"/>
  <anchor x="840.820829223651" y="1312" name="parenthesses.w2"/>
  <anchor x="840.820829223651" y="1312" name="markparenthesses.w2"/>
  <anchor x="591.3704097069128" y="1603" name="parent_top"/>
  <outline>
    <contour>
      <point x="546.6603025897647" y="253.57364403324522" type="line"/>
      <point x="532.4689689531449" y="0.0" type="line"/>
      <point x="779.6842884359045" y="0.0" type="line"/>
      <point x="1046.2185580133423" y="1535.9335043855613" type="line"/>
      <point x="769.0270984001562" y="1535.9478131734343" type="line"/>
    </contour>
    <contour>
      <point x="51.58735362888093" y="520.3650264783407" type="line" smooth="yes"/>
      <point x="29.345574751307886" y="317.8350332860874"/>
      <point x="57.19399545440689" y="-13.160969908961187"/>
      <point x="326.8354785030513" y="-21.717966547973788" type="curve" smooth="yes"/>
      <point x="587.0039401528411" y="-29.974339516789954"/>
      <point x="705.7374500115658" y="313.22615109824784"/>
      <point x="739.2841723647838" y="520.1567831299988" type="curve"/>
      <point x="743.0115325855523" y="555.3265143993874" type="line" smooth="yes"/>
      <point x="753.5585118404716" y="743.3983036919756"/>
      <point x="731.7215853225475" y="1094.0095802620956"/>
      <point x="476.77561152588885" y="1103.0227349143606" type="curve" smooth="yes"/>
      <point x="187.50893297384204" y="1113.2492361244408"/>
      <point x="82.51841759937102" y="770.8962413148622"/>
      <point x="54.10416971853827" y="541.6534556965207" type="curve" smooth="yes"/>
    </contour>
    <contour>
      <point x="331.37830586582004" y="543.6577282998608" type="line" smooth="yes"/>
      <point x="342.70030160109104" y="650.9329609018621"/>
      <point x="375.17343065107707" y="873.5229179822132"/>
      <point x="525.7558534728996" y="866.8283903904438" type="curve" smooth="yes"/>
      <point x="651.3165874880636" y="861.2462661122208"/>
      <point x="642.0838084274095" y="679.7600590044517"/>
      <point x="633.7539125353081" y="593.9322518385032" type="curve" smooth="yes"/>
      <point x="619.5328638250724" y="475.5500738395076" type="line" smooth="yes"/>
      <point x="604.5216186227939" y="370.90644782083905"/>
      <point x="556.8623138429573" y="208.27361601074338"/>
      <point x="422.4263361094861" y="215.17131449552502" type="curve" smooth="yes"/>
      <point x="291.3876636721073" y="221.89470259116624"/>
      <point x="321.9498154366502" y="439.89746778731165"/>
      <point x="329.48547115324357" y="522.3979829940257" type="curve" smooth="yes"/>
    </contour>
    <contour>
      <point x="1150.1850821997848" y="1401.9048201432688" type="line"/>
      <point x="559.6710027297443" y="1401.9169848702104" type="line"/>
      <point x="527.3186657470055" y="1219.093459469021" type="line"/>
      <point x="1117.8327452170665" y="1219.0812947421045" type="line"/>
    </contour>
  </outline>
</glyph>
<glyph name="Hbar" format="2">
  <advance width="1254"/>
  <unicode hex="0126"/>
  <anchor x="807.6804097069129" y="1603" name="top"/>
  <anchor x="532.4385825253454" y="10" name="bottom"/>
  <anchor x="1408.1104097069128" y="1603" name="top0315"/>
  <anchor x="807.6804097069129" y="1603" name="parent_top"/>
  <outline>
    <contour>
      <point x="1330.178427625962" y="1225.909630968116" type="line"/>
      <point x="155.70250436672558" y="1225.9216886714087" type="line"/>
      <point x="124.76651418195304" y="1051.088314409886" type="line"/>
      <point x="1299.2424374411858" y="1051.07625670659" type="line"/>
    </contour>
    <contour>
      <point x="966.3026258678403" y="866.9076788938704" type="line"/>
      <point x="386.4504778109722" y="866.9207888496594" type="line"/>
      <point x="343.5631250553179" y="623.0909766236002" type="line"/>
      <point x="923.4152731121876" y="623.0778666678157" type="line"/>
    </contour>
    <contour>
      <point x="570.6384509143622" y="1455.932883043107" type="line"/>
      <point x="283.7256071484477" y="1455.9467322310434" type="line"/>
      <point x="31.05730312840187" y="0.0" type="line"/>
      <point x="317.97014689437077" y="0.0" type="line"/>
    </contour>
    <contour>
      <point x="1275.827882897882" y="1455.9328830431195" type="line"/>
      <point x="988.915039131897" y="1455.9467322310536" type="line"/>
      <point x="736.2467351119068" y="0.0" type="line"/>
      <point x="1023.1595788777738" y="0.0" type="line"/>
    </contour>
  </outline>
</glyph>
<glyph name="hbar" format="2">
  <advance width="1008"/>
  <unicode hex="0127"/>
  <anchor x="640.3251541530583" y="1673" name="parent_top"/>
  <anchor x="394.6985825253454" y="10" name="bottom"/>
  <anchor x="1161.1420635163638" y="1600" name="top_dd"/>
  <anchor x="814.3684620390217" y="-407" name="bottom_dd"/>
  <anchor x="1173.7551541530584" y="1673" name="top0315"/>
  <anchor x="640.3251541530583" y="1673" name="top"/>
  <outline>
    <contour>
      <point x="561.1475954858913" y="1535.9329084687215" type="line"/>
      <point x="284.90875847306904" y="1535.9460099248108" type="line"/>
      <point x="18.37987719412007" y="0.0" type="line"/>
      <point x="294.6187142069364" y="0.0" type="line"/>
    </contour>
    <contour>
      <point x="355.803824527715" y="578.1697322797459" type="line"/>
      <point x="372.62732263182284" y="690.5324984270109"/>
      <point x="408.05043623358415" y="872.4915351973782"/>
      <point x="556.7419598483481" y="868.0798065538493" type="curve" smooth="yes"/>
      <point x="658.5066237612449" y="865.0604139767256"/>
      <point x="653.098424215274" y="762.9384034533151"/>
      <point x="644.9557388264172" y="685.3147347511679" type="curve"/>
      <point x="531.5316839276228" y="0.0" type="line"/>
      <point x="807.7277063062127" y="0.0" type="line"/>
      <point x="921.3521483801754" y="682.269602371711" type="line"/>
      <point x="940.6785429295718" y="867.0097090642756"/>
      <point x="910.1825178008438" y="1096.662951533678"/>
      <point x="681.1502358677641" y="1102.9107759207166" type="curve" smooth="yes"/>
      <point x="411.9218056303855" y="1110.2551202983911"/>
      <point x="310.2559693918101" y="789.8563486178667"/>
      <point x="287.6427162469903" y="575.155030655056" type="curve"/>
    </contour>
    <contour>
      <point x="721.562185588062" y="1398.9067636353348" type="line"/>
      <point x="131.04332122506918" y="1398.9188875394104" type="line"/>
      <point x="98.6909579079088" y="1216.0932017773287" type="line"/>
      <point x="689.2098222709044" y="1216.081077873252" type="line"/>
    </contour>
  </outline>
</glyph>
<glyph name="Lslash" format="2">
  <advance width="983"/>
  <unicode hex="0141"/>
  <anchor x="458.93206351636377" y="1600" name="top"/>
  <anchor x="406.3385825253454" y="10" name="bottom"/>
  <anchor x="1135.9920635163637" y="1600" name="top0315"/>
  <anchor x="458.93206351636377" y="1600" name="parent_top"/>
  <outline>
    <contour>
      <point x="651.3144976094576" y="962.7771657218664" type="line"/>
      <point x="76.60171953654113" y="775.6905660215257" type="line"/>
      <point x="45.51560059710688" y="600.2063815524966" type="line"/>
      <point x="620.3512157645423" y="787.3355379924814" type="line"/>
    </contour>
    <contour>
      <point x="872.9151396602812" y="243.90536409000887" type="line"/>
      <point x="283.3668175247696" y="243.91853121053074" type="line"/>
      <point x="240.4793119485547" y="0.0" type="line"/>
      <point x="830.0276340840742" y="0.0" type="line"/>
    </contour>
    <contour>
      <point x="583.247227572709" y="1455.9315725492936" type="line"/>
      <point x="295.36789360992503" y="1455.9447170621656" type="line"/>
      <point x="42.69870598428331" y="0.0" type="line"/>
      <point x="330.57803994701146" y="0.0" type="line"/>
    </contour>
  </outline>
</glyph>
<glyph name="lslash" format="2">
  <advance width="569"/>
  <unicode hex="0142"/>
  <anchor x="469.392974788222" y="1683" name="top"/>
  <anchor x="180.32858252534538" y="10" name="bottom"/>
  <anchor x="737.112974788222" y="1683" name="top0315"/>
  <anchor x="469.392974788222" y="1683" name="parent_top"/>
  <outline>
    <contour>
      <point x="585.6189765542023" y="963.4998886156624" type="line"/>
      <point x="76.82014171739569" y="776.3383222451218" type="line"/>
      <point x="45.11079458524755" y="598.5005204858775" type="line"/>
      <point x="553.9106687996677" y="785.6616481739641" type="line"/>
    </contour>
    <contour>
      <point x="578.6777371438185" y="1535.9316708775418" type="line"/>
      <point x="302.43869843998976" y="1535.9447365037493" type="line"/>
      <point x="35.90813564721945" y="0.0" type="line"/>
      <point x="312.14717435104967" y="0.0" type="line"/>
    </contour>
  </outline>
</glyph>
<glyph name="eng" format="2">
  <advance width="986"/>
  <unicode hex="014B"/>
  <anchor x="607.129623826291" y="1290" name="top"/>
  <anchor x="384.02858252534537" y="10" name="bottom"/>
  <anchor x="509.5038863271417" y="-308" name="parenthesses.w1"/>
  <anchor x="384.02858252534537" y="10" name="markbottom"/>
  <anchor x="1086.309623826291" y="1290" name="top0315"/>
  <anchor x="509.5038863271417" y="-308" name="markparenthesses.w1"/>
  <anchor x="607.129623826291" y="1290" name="parent_top"/>
  <outline>
    <contour>
      <point x="413.5436809673654" y="836.4105448270706" type="line"/>
      <point x="436.68719306338687" y="1081.9758843713118" type="line"/>
      <point x="181.10606050630122" y="1081.9376899203983" type="line"/>
      <point x="-6.767565749597509" y="0.0" type="line"/>
      <point x="268.48246109706196" y="0.0" type="line"/>
    </contour>
    <contour>
      <point x="309.1050966285518" y="578.0253046978261" type="line"/>
      <point x="332.53068321770706" y="696.7274603115332"/>
      <point x="391.511522920012" y="873.9355767181677"/>
      <point x="542.963749788636" y="867.972424853565" type="curve" smooth="yes"/>
      <point x="644.8647319604966" y="863.9602617813769"/>
      <point x="624.7092291439321" y="730.0427395588453"/>
      <point x="617.2587729338802" y="661.2073967203235" type="curve"/>
      <point x="505.7756572719303" y="-33.91028193742851" type="line" smooth="yes"/>
      <point x="495.3085110557474" y="-100.06593097541634"/>
      <point x="473.1507693273729" y="-201.75483587994654"/>
      <point x="388.64079270233117" y="-203.22606651605295" type="curve" smooth="yes"/>
      <point x="361.3958962858059" y="-203.70037177427568"/>
      <point x="334.5136901510747" y="-195.9325065038941"/>
      <point x="308.96996998111706" y="-187.50271791181365" type="curve"/>
      <point x="275.1538017547189" y="-423.3422609112464" type="line"/>
      <point x="317.68163899492407" y="-433.52608678778535"/>
      <point x="359.38311755745946" y="-440.84067057908555"/>
      <point x="403.26453771703933" y="-441.1098407112965" type="curve" smooth="yes"/>
      <point x="644.6816658765937" y="-442.59070163303466"/>
      <point x="755.3169886232419" y="-250.85697256749066"/>
      <point x="783.0694146018955" y="-34.05470072479454" type="curve" smooth="yes"/>
      <point x="894.6349855113078" y="660.3007597452814" type="line"/>
      <point x="913.8217145292159" y="835.8165241253822"/>
      <point x="899.7826984734762" y="1097.0585515197608"/>
      <point x="668.999682289667" y="1103.2663045614668" type="curve" smooth="yes"/>
      <point x="406.32644254188835" y="1110.331861767463"/>
      <point x="311.18384450209555" y="779.8963170668959"/>
      <point x="282.21747199385806" y="575.8179601911526" type="curve"/>
    </contour>
  </outline>
</glyph>
<glyph name="OE" format="2">
  <advance width="1672"/>
  <unicode hex="0152"/>
  <anchor x="1002.1320635163638" y="1600" name="top"/>
  <anchor x="725.6807618901818" y="0" name="bottom"/>
  <anchor x="1825.6620635163636" y="1600" name="top_dd"/>
  <anchor x="1478.8884620390215" y="-407" name="bottom_dd"/>
  <anchor x="1825.6620635163636" y="1600" name="top0315"/>
  <anchor x="1002.1320635163638" y="1600" name="parent_top"/>
  <outline>
    <contour>
      <point x="735.9824341827967" y="1477.3726200858114" type="curve" smooth="yes"/>
      <point x="393.42225045889705" y="1478.2921668338022"/>
      <point x="188.28663231313942" y="1193.3572055875961"/>
      <point x="141.54838822679875" y="879.3905894989304" type="curve" smooth="yes"/>
      <point x="93.88304040519917" y="575.7413053417536" type="line" smooth="yes"/>
      <point x="56.8636748037694" y="286.8127004124407"/>
      <point x="189.53729294803838" y="-9.64778921128032"/>
      <point x="512.069859316736" y="-17.552273073322052" type="curve" smooth="yes"/>
      <point x="587.3329541429661" y="-19.39678733480963"/>
      <point x="662.5960717506855" y="-11.48664645778293"/>
      <point x="737.051115824165" y="-1.3071009500066921" type="curve"/>
      <point x="762.4747790053108" y="242.2900563661148" type="line"/>
      <point x="685.7321433852844" y="227.23403472797804"/>
      <point x="607.0757663109321" y="214.50040922473195"/>
      <point x="528.5547381513114" y="217.9638800747378" type="curve" smooth="yes"/>
      <point x="348.73693856237855" y="225.8954332113374"/>
      <point x="352.83188978100384" y="443.14957973472514"/>
      <point x="369.79154582184947" y="575.1235483506827" type="curve" smooth="yes"/>
      <point x="416.68446468477873" y="882.4243076137508" type="line" smooth="yes"/>
      <point x="442.154290085605" y="1051.6694950211463"/>
      <point x="522.1899451255434" y="1247.6393027310676"/>
      <point x="722.666493013035" y="1245.5083138798118" type="curve" smooth="yes"/>
      <point x="797.9187373346668" y="1244.7084113706596"/>
      <point x="873.651908186585" y="1232.2487512542284"/>
      <point x="946.400195909682" y="1213.6059332538218" type="curve"/>
      <point x="973.9009263122657" y="1456.4539288542808" type="line"/>
      <point x="895.0750369593317" y="1467.2082672528165"/>
      <point x="815.6734799051004" y="1477.158702516229"/>
    </contour>
    <contour>
      <point x="1502.444633163874" y="243.9056716944081" type="line"/>
      <point x="887.6795362268545" y="243.91881005591827" type="line"/>
      <point x="844.7900141857996" y="0.0" type="line"/>
      <point x="1459.555111122801" y="0.0" type="line"/>
    </contour>
    <contour>
      <point x="1186.5872395087597" y="1455.9307274915313" type="line"/>
      <point x="899.6789824944162" y="1455.9443616934902" type="line"/>
      <point x="647.0087592335561" y="0.0" type="line"/>
      <point x="933.9170162478908" y="0.0" type="line"/>
    </contour>
    <contour>
      <point x="1528.8883743175836" y="866.902649663557" type="line"/>
      <point x="995.6086308957774" y="866.915645872293" type="line"/>
      <point x="953.9508662353999" y="630.0966722493546" type="line"/>
      <point x="1487.2306096571992" y="630.0836760406039" type="line"/>
    </contour>
    <contour>
      <point x="1710.487157917207" y="1455.904972758052" type="line"/>
      <point x="1097.6620513929631" y="1455.918106482515" type="line"/>
      <point x="1054.5967501417406" y="1211.0938191869698" type="line"/>
      <point x="1667.4218566659736" y="1211.0806854624705" type="line"/>
    </contour>
  </outline>
</glyph>
<glyph name="oe" format="2">
  <advance width="1533"/>
  <unicode hex="0153"/>
  <anchor x="887.459623826291" y="1290" name="top"/>
  <anchor x="663.1885053820508" y="-8" name="bottom"/>
  <anchor x="1685.9820635163637" y="1600" name="top_dd"/>
  <anchor x="1339.2084620390217" y="-407" name="bottom_dd"/>
  <anchor x="1632.4196238262912" y="1290" name="top0315"/>
  <anchor x="887.459623826291" y="1290" name="parent_top"/>
  <outline>
    <contour>
      <point x="1004.2915615688305" y="-19.170880627618097" type="curve" smooth="yes"/>
      <point x="1126.24920948247" y="-21.587802043707878"/>
      <point x="1263.9570577557188" y="14.415644910360442"/>
      <point x="1352.8885351232823" y="102.12967041055624" type="curve"/>
      <point x="1296.1038441078172" y="292.0390270167809" type="line"/>
      <point x="1218.4046275548499" y="249.26432690097133"/>
      <point x="1140.916886200267" y="212.97362125480478"/>
      <point x="1049.6883853202646" y="217.38977373541206" type="curve" smooth="yes"/>
      <point x="908.1581782033262" y="224.2409109262166"/>
      <point x="913.5785970056895" y="404.4922075195171"/>
      <point x="923.5069568791857" y="507.1671315249401" type="curve" smooth="yes"/>
      <point x="927.7029810034551" y="545.9098851400414" type="line" smooth="yes"/>
      <point x="938.9176132268807" y="643.5549489039558"/>
      <point x="964.3091036340264" y="874.1292105025393"/>
      <point x="1106.221015421839" y="869.2739294610546" type="curve" smooth="yes"/>
      <point x="1204.5643015335916" y="865.9092767930698"/>
      <point x="1195.3415267580015" y="743.9212055615727"/>
      <point x="1184.7502201388097" y="674.9394662111491" type="curve" smooth="yes"/>
      <point x="1179.6406725351856" y="646.3201923410518" type="line"/>
      <point x="786.8170277963707" y="646.9290206412621" type="line"/>
      <point x="751.8165402240274" y="449.0988683123007" type="line"/>
      <point x="1425.2654026683238" y="448.96454086394556" type="line"/>
      <point x="1450.4603682822465" y="613.2667496611066" type="line" smooth="yes"/>
      <point x="1478.6224706169644" y="846.2033011403131"/>
      <point x="1403.6977612532155" y="1095.1177813968657"/>
      <point x="1132.5826956000053" y="1102.7711248460173" type="curve" smooth="yes"/>
      <point x="831.8704905406818" y="1111.259969901993"/>
      <point x="684.5627021961546" y="803.6991231117877"/>
      <point x="654.7467535630748" y="546.2376268132235" type="curve" smooth="yes"/>
      <point x="650.432115305957" y="506.0455723121931" type="line" smooth="yes"/>
      <point x="626.5058768748967" y="260.03272497372393"/>
      <point x="716.9061679390825" y="-13.475559961652312"/>
    </contour>
    <contour>
      <point x="73.40193095843411" y="523.1552174364009" type="line" smooth="yes"/>
      <point x="46.542842619437536" y="274.29433708029205"/>
      <point x="126.17918489742192" y="-13.288471336739399"/>
      <point x="421.6763494738699" y="-20.73902927586374" type="curve" smooth="yes"/>
      <point x="729.8017238480254" y="-28.507990299836955"/>
      <point x="885.0450857008194" y="262.58974953566326"/>
      <point x="918.6426502772578" y="531.5569624377756" type="curve" smooth="yes"/>
      <point x="921.2019103931145" y="553.5000847039564" type="line" smooth="yes"/>
      <point x="947.9838254797879" y="803.1803025073835"/>
      <point x="870.0975605047329" y="1094.8521609273853"/>
      <point x="572.5429023933352" y="1102.336917805273" type="curve" smooth="yes"/>
      <point x="261.46580996900286" y="1110.1618210410497"/>
      <point x="109.42466327219844" y="814.4095555604658"/>
      <point x="75.8827265808023" y="544.3636729820132" type="curve" smooth="yes"/>
    </contour>
    <contour>
      <point x="352.5371776631478" y="545.3298210608037" type="line" smooth="yes"/>
      <point x="364.3013138717035" y="654.5462625439873"/>
      <point x="395.9396804480918" y="874.8777098105044"/>
      <point x="548.2624833118404" y="868.5534259361643" type="curve" smooth="yes"/>
      <point x="684.6792622268763" y="862.8895435832806"/>
      <point x="652.2620626263389" y="638.1606932956971"/>
      <point x="644.3136173768297" y="552.680819458707" type="curve" smooth="yes"/>
      <point x="642.4652365361786" y="532.0960503580467" type="line" smooth="yes"/>
      <point x="630.7469571989791" y="421.84723622594845"/>
      <point x="600.0292246982463" y="207.25938202480384"/>
      <point x="447.7569716268805" y="212.61135635415945" type="curve" smooth="yes"/>
      <point x="310.08260463484646" y="217.45025289039393"/>
      <point x="342.2915904103834" y="437.44716244688664"/>
      <point x="350.54218049307076" y="524.0581062667184" type="curve" smooth="yes"/>
    </contour>
  </outline>
</glyph>
<glyph name="Tbar" format="2">
  <advance width="1080"/>
  <unicode hex="0166"/>
  <anchor x="707.2520635163638" y="1600" name="parent_top"/>
  <anchor x="432.1830183983127" y="8" name="bottom"/>
  <anchor x="1232.992063516364" y="1600" name="top_dd"/>
  <anchor x="886.2184620390217" y="-407" name="bottom_dd"/>
  <anchor x="1232.992063516364" y="1600" name="top0315"/>
  <anchor x="707.2520635163638" y="1600" name="top"/>
  <outline>
    <contour>
      <point x="828.6568093646242" y="1455.9318867815357" type="line"/>
      <point x="541.7461518434626" y="1455.9457477143758" type="line"/>
      <point x="289.07836598190835" y="0.0" type="line"/>
      <point x="575.9890235030729" y="0.0" type="line"/>
    </contour>
    <contour>
      <point x="1178.932479702453" y="1455.9071048393505" type="line"/>
      <point x="198.4628986866678" y="1455.9201917667847" type="line"/>
      <point x="155.40057818960645" y="1211.0909873187213" type="line"/>
      <point x="1135.8701592053835" y="1211.077900391292" type="line"/>
    </contour>
    <contour>
      <point x="876.4801798624037" y="930.9067636353348" type="line"/>
      <point x="285.96131549941094" y="930.9188875394104" type="line"/>
      <point x="253.60895218225056" y="748.0932017773287" type="line"/>
      <point x="844.1278165452462" y="748.0810778732521" type="line"/>
    </contour>
  </outline>
</glyph>
<glyph name="longs" format="2">
  <advance width="490"/>
  <unicode hex="017F"/>
  <anchor x="522.4641030422874" y="1687" name="top"/>
  <anchor x="150.25858252534533" y="10" name="bottom"/>
  <anchor x="658.2641030422874" y="1687" name="top0315"/>
  <anchor x="522.4641030422874" y="1687" name="parent_top"/>
  <outline>
    <contour>
      <point x="276.2502374834096" y="0.0" type="line"/>
      <point x="477.9373825972301" y="1175.8974747126542" type="line" smooth="yes"/>
      <point x="491.52113134294416" y="1253.3920957644336"/>
      <point x="531.0066927053432" y="1324.994533166177"/>
      <point x="618.5967362948915" y="1325.6214054930922" type="curve" smooth="yes"/>
      <point x="644.8782362538449" y="1325.8094993032894"/>
      <point x="670.5506620611648" y="1320.0412559857314"/>
      <point x="695.6167283641859" y="1312.8683017224419" type="curve"/>
      <point x="742.5921635762759" y="1536.3461605381694" type="line"/>
      <point x="694.6342407666692" y="1547.6542806982163"/>
      <point x="646.5597726205755" y="1558.6906338960498"/>
      <point x="597.0470855112021" y="1559.5779039589374" type="curve" smooth="yes"/>
      <point x="358.25120026565077" y="1563.8571392921178"/>
      <point x="228.78976409689633" y="1397.4552147293825"/>
      <point x="199.82015297538976" y="1174.771742272905" type="curve" smooth="yes"/>
      <point x="-0.05113928144682234" y="0.0" type="line"/>
    </contour>
  </outline>
</glyph>
<glyph name="Bhook" format="2">
  <advance width="1385"/>
  <unicode hex="0181"/>
  <outline>
    <contour>
      <point x="698.368619687425" y="1211.0109514726375" type="line"/>
      <point x="741.4426011313709" y="1455.8634308104806" type="line"/>
      <point x="523.359586772259" y="1457.6385175667522" type="line" smooth="yes"/>
      <point x="291.7066515270533" y="1458.2581555848028"/>
      <point x="155.02684229417423" y="1306.1877017338213"/>
      <point x="134.21711480670757" y="1081.5959152034022" type="curve" smooth="yes"/>
      <point x="129.80082225403459" y="1033.9324830492237"/>
      <point x="130.74377980973608" y="986.6237841552215"/>
      <point x="135.0579492889662" y="939.0251510285651" type="curve"/>
      <point x="357.5024373425249" y="939.0464189906509" type="line"/>
      <point x="357.1685867614626" y="967.9024123506974"/>
      <point x="357.18092489985685" y="996.6430738070413"/>
      <point x="360.59338791539693" y="1025.3544509566786" type="curve" smooth="yes"/>
      <point x="371.0993645910316" y="1113.7483931871996"/>
      <point x="403.0771984366187" y="1210.1691146251485"/>
      <point x="506.4856281788544" y="1213.8676432400555" type="curve"/>
    </contour>
    <contour>
      <point x="880.1173832849811" y="633.831523891796" type="line"/>
      <point x="967.7285026958368" y="713.1796406213168" type="line"/>
      <point x="1177.9071420884359" y="725.6215496535904"/>
      <point x="1337.841237404463" y="844.5229244274242"/>
      <point x="1353.3387652775707" y="1063.8432329018729" type="curve" smooth="yes"/>
      <point x="1371.7656185203846" y="1324.619220563763"/>
      <point x="1200.659993602952" y="1450.2028810892907"/>
      <point x="954.7957705340364" y="1455.2127421138762" type="curve" smooth="yes"/>
      <point x="532.9917077015049" y="1455.960183836484" type="line"/>
      <point x="280.34826452018075" y="0.0" type="line"/>
      <point x="568.2282807797535" y="0.0" type="line"/>
      <point x="778.330385954489" y="1211.2290509900013" type="line"/>
      <point x="942.1124994003837" y="1209.601373865827" type="line" smooth="yes"/>
      <point x="1050.8172860993334" y="1204.4801962149966"/>
      <point x="1073.7491846283647" y="1132.2543745258781"/>
      <point x="1059.5856027147968" y="1032.5679836079648" type="curve" smooth="yes"/>
      <point x="1042.8563484160463" y="914.8238286359184"/>
      <point x="967.6063209275034" y="847.1605234573017"/>
      <point x="848.6499716129601" y="845.2697835413743" type="curve" smooth="yes"/>
      <point x="615.9541916150996" y="847.0440414101815" type="line"/>
      <point x="580.3355073633348" y="634.0679181377774" type="line"/>
    </contour>
    <contour>
      <point x="764.0612337677533" y="0.0" type="line" smooth="yes"/>
      <point x="1043.0630305419763" y="-2.8766889753105156"/>
      <point x="1241.6826315842973" y="150.71986392280854"/>
      <point x="1262.6019235739268" y="436.6022817045923" type="curve" smooth="yes"/>
      <point x="1275.8786770570687" y="618.0419971564802"/>
      <point x="1191.694529186361" y="754.830923555461"/>
      <point x="1001.2104827975045" y="762.8897886959942" type="curve"/>
      <point x="951.3384725978419" y="846.3198793209809" type="line"/>
      <point x="663.1870612219844" y="846.9954157097403" type="line"/>
      <point x="623.6667408032139" y="634.3529404641617" type="line"/>
      <point x="883.5393094420085" y="632.3294764455111" type="line"/>
      <point x="987.6246148236964" y="625.6301908358647"/>
      <point x="990.8930972522775" y="523.0778990324361"/>
      <point x="978.9715538961259" y="439.2345191770061" type="curve" smooth="yes"/>
      <point x="963.0091158059088" y="326.97180953998065"/>
      <point x="896.0577968920758" y="245.3830385403523"/>
      <point x="777.8552166302999" y="242.40650560973273" type="curve" smooth="yes"/>
      <point x="537.7844329427736" y="243.62832060214248" type="line"/>
      <point x="381.60685491769874" y="0.0" type="line"/>
    </contour>
  </outline>
</glyph>
<glyph name="Tonesix" format="2">
  <advance width="1216"/>
  <unicode hex="0184"/>
  <guideline x="0.0" y="1211.0" angle="0.0" identifier="7GsfCEQssL"/>
  <outline>
    <contour>
      <point x="373.2052730831669" y="1456.169850082356" type="line"/>
      <point x="306.1164459385503" y="1404.330257041571"/>
      <point x="243.57884638069788" y="1341.2484784377384"/>
      <point x="184.02142190116035" y="1280.96478162199" type="curve"/>
      <point x="180.29912646469975" y="1234.0519992325167"/>
      <point x="173.37924766657304" y="1187.445290398009"/>
      <point x="168.9628653841154" y="1140.5971155944587" type="curve"/>
      <point x="218.15632736331025" y="1085.9471638903237"/>
      <point x="266.16589056964915" y="1027.0257052015127"/>
      <point x="307.6206093792155" y="966.2765643201286" type="curve"/>
      <point x="346.41306815966885" y="966.7634125112074" type="line"/>
      <point x="418.1432415185459" y="1457.2970571621763" type="line"/>
    </contour>
    <contour>
      <point x="483.43477690442796" y="934.0409682664043" type="line"/>
      <point x="440.32746993387786" y="689.308234521224" type="line"/>
      <point x="721.5307278444844" y="687.5964735928276" type="line"/>
      <point x="833.316529420985" y="681.2175925944662"/>
      <point x="860.9706171536319" y="579.2075451622728"/>
      <point x="847.960480709165" y="482.0509998840051" type="curve" smooth="yes"/>
      <point x="831.2228072761152" y="357.05811193911575"/>
      <point x="751.3240862813013" y="245.0007315749689"/>
      <point x="616.7603790884509" y="242.19953656304583" type="curve" smooth="yes"/>
      <point x="459.20689814407" y="244.01677960241992" type="line"/>
      <point x="669.5777732151947" y="1455.9308004950244" type="line"/>
      <point x="381.6959937760326" y="1455.943839132765" type="line"/>
      <point x="129.05799421392607" y="0.0" type="line"/>
      <point x="603.0859741714341" y="0.0" type="line" smooth="yes"/>
      <point x="889.994749363299" y="-4.0720553397228985"/>
      <point x="1110.818405159171" y="192.17997627502774"/>
      <point x="1134.0559427933906" y="480.344652897173" type="curve" smooth="yes"/>
      <point x="1155.1223561372285" y="741.5855934982073"/>
      <point x="997.3081938449096" y="925.5841891645942"/>
      <point x="734.1108948946803" y="932.7725511143173" type="curve" smooth="yes"/>
    </contour>
  </outline>
</glyph>
<glyph name="Chook" format="2">
  <advance width="1219"/>
  <unicode hex="0187"/>
  <outline>
    <contour>
      <point x="1136.4609246989367" y="962.0033590151415" type="line"/>
      <point x="1171.017351837785" y="1175.0350430003539" type="line" smooth="yes"/>
      <point x="1190.1777033129504" y="1275.8301981229472"/>
      <point x="1263.441237035494" y="1336.6941369111407"/>
      <point x="1367.0993269430862" y="1331.697424201362" type="curve" smooth="yes"/>
      <point x="1389.589075911402" y="1330.6133330840175"/>
      <point x="1411.3403019267712" y="1325.519020227464"/>
      <point x="1433.193520922157" y="1320.5867718294692" type="curve"/>
      <point x="1458.866556646401" y="1561.649698987339" type="line"/>
      <point x="1415.1273287676852" y="1572.2762638361608"/>
      <point x="1371.460488124347" y="1580.172327858521"/>
      <point x="1326.2929368108885" y="1580.6832304470465" type="curve" smooth="yes"/>
      <point x="1085.7511790340786" y="1583.4040643891794"/>
      <point x="968.7880919817557" y="1391.054714076633"/>
      <point x="940.0804803140547" y="1174.4603755033604" type="curve" smooth="yes"/>
      <point x="907.2265082471379" y="962.0836151959734" type="line"/>
    </contour>
    <contour>
      <point x="760.8888031614061" y="485.0981095732696" type="line"/>
      <point x="736.5639453269025" y="334.99368378111546"/>
      <point x="688.4077628940126" y="214.75361399569428"/>
      <point x="516.4107982890505" y="222.2956955501231" type="curve" smooth="yes"/>
      <point x="320.4095398486121" y="230.89036743473272"/>
      <point x="362.61753303394147" y="466.08045601639185"/>
      <point x="379.58666982403" y="602.9385642049225" type="curve" smooth="yes"/>
      <point x="414.58766700561546" y="853.4832837661029" type="line" smooth="yes"/>
      <point x="437.3852828149946" y="1021.2754713089131"/>
      <point x="484.3500953901239" y="1242.7714995386837"/>
      <point x="696.2798940869543" y="1234.7288129412302" type="curve" smooth="yes"/>
      <point x="860.0633407500827" y="1228.513269211834"/>
      <point x="859.3743951235006" y="1097.7164127722183"/>
      <point x="852.3816287624779" y="961.9295156551144" type="curve"/>
      <point x="1140.3118807067979" y="961.0274527756392" type="line"/>
      <point x="1139.819285517649" y="1244.716293301919"/>
      <point x="1030.7754033152428" y="1470.4475949609518"/>
      <point x="719.2470754238911" y="1477.270844783559" type="curve" smooth="yes"/>
      <point x="353.3900205536537" y="1485.284029657114"/>
      <point x="176.76618612488903" y="1174.1009338725648"/>
      <point x="128.8746004894934" y="850.8007620746786" type="curve" smooth="yes"/>
      <point x="91.20082957265568" y="603.6730090693067" type="line" smooth="yes"/>
      <point x="51.65542753958509" y="300.99355997877325"/>
      <point x="141.22997690185736" y="-12.541628664617484"/>
      <point x="493.9472739028337" y="-20.273953538622944" type="curve" smooth="yes"/>
      <point x="810.5277267564971" y="-27.21408074825485"/>
      <point x="1006.6170018981566" y="183.51546340502819"/>
      <point x="1038.5495207474899" y="488.0972395017579" type="curve"/>
    </contour>
  </outline>
</glyph>
<glyph name="chook" format="2">
  <advance width="1035"/>
  <unicode hex="0188"/>
  <outline>
    <contour>
      <point x="872.8086121765222" y="677.9466458340245" type="line"/>
      <point x="902.4687340636569" y="859.886115114387" type="line" smooth="yes"/>
      <point x="918.8975116650737" y="942.8398697947779"/>
      <point x="978.1597613067563" y="1005.993927562226"/>
      <point x="1067.0097587793637" y="1002.9606560183898" type="curve" smooth="yes"/>
      <point x="1085.6694895621001" y="1002.3236269580754"/>
      <point x="1103.982283366659" y="997.8583991021774"/>
      <point x="1122.1127603015393" y="993.8688889417682" type="curve"/>
      <point x="1140.678248468529" y="1190.0377330377062" type="line"/>
      <point x="1103.0972445045445" y="1199.6612006989042"/>
      <point x="1065.916281598758" y="1206.8952541802914"/>
      <point x="1026.9503118299888" y="1207.2243653008504" type="curve" smooth="yes"/>
      <point x="823.2661519029941" y="1208.9447054466616"/>
      <point x="735.5226948402293" y="1039.8115948264403"/>
      <point x="713.0020040712922" y="859.6346438249493" type="curve" smooth="yes"/>
      <point x="686.2467624589297" y="678.156416358773" type="line"/>
    </contour>
    <contour>
      <point x="414.70172589918343" y="213.0106903516375" type="curve" smooth="yes"/>
      <point x="275.99565353719805" y="216.81423002938143"/>
      <point x="321.13485433647736" y="412.91104412591403"/>
      <point x="329.93301975299465" y="501.0732985380291" type="curve" smooth="yes"/>
      <point x="337.45348605907157" y="580.1878006168482" type="line" smooth="yes"/>
      <point x="349.30185868692894" y="693.9089988715804"/>
      <point x="365.3904370139787" y="875.6379169792779"/>
      <point x="519.5381488108166" y="868.6371970967742" type="curve" smooth="yes"/>
      <point x="621.011559077984" y="864.0287153196391"/>
      <point x="619.8484808278155" y="755.0526299117072"/>
      <point x="615.8411310619127" y="677.7694351659095" type="curve"/>
      <point x="875.038689231776" y="677.2870371222198" type="line"/>
      <point x="885.3792548483053" y="900.5590708776143"/>
      <point x="795.4855636011808" y="1095.3865038855188"/>
      <point x="548.9512515127711" y="1102.0866485707234" type="curve" smooth="yes"/>
      <point x="237.98493422365294" y="1110.5378832098804"/>
      <point x="97.43155652235252" y="855.4396827607989"/>
      <point x="62.136604271506755" y="579.7452067087686" type="curve" smooth="yes"/>
      <point x="52.52518901489408" y="501.7824523425929" type="line" smooth="yes"/>
      <point x="23.503290714971527" y="242.8891637100025"/>
      <point x="97.16452600110648" y="-14.254892981645082"/>
      <point x="397.8113252679816" y="-20.90691641265663" type="curve" smooth="yes"/>
      <point x="633.2627324230273" y="-26.116445604649492"/>
      <point x="794.5820287975409" y="149.0303925338264"/>
      <point x="813.5155669472955" y="375.231822797279" type="curve"/>
      <point x="556.0640841508517" y="374.2924837398539" type="line"/>
      <point x="542.8213217581284" y="293.09969867503577"/>
      <point x="511.13374405495654" y="210.3663720387146"/>
    </contour>
  </outline>
</glyph>
<glyph name="deltaturn" format="2">
  <advance width="986"/>
  <unicode hex="018D"/>
  <outline>
    <contour>
      <point x="652.3980465471749" y="-375.08610889040574" type="line"/>
      <point x="675.9951595867077" y="-220.36389076488945" type="line"/>
      <point x="615.8200534865913" y="-125.19165206503325"/>
      <point x="554.5631164157369" y="-26.865238770669663"/>
      <point x="507.230322140975" y="75.41646081029911" type="curve"/>
      <point x="514.7354377127231" y="77.71023228308475"/>
      <point x="521.2100438720582" y="79.05771059241773"/>
      <point x="528.8641787072684" y="80.02995316277483" type="curve" smooth="yes"/>
      <point x="767.612608251838" y="110.3562267138156"/>
      <point x="887.1718556671888" y="370.16683060900516"/>
      <point x="911.7169459274204" y="581.6457252585776" type="curve" smooth="yes"/>
      <point x="914.0060787262603" y="603.6412795070484" type="line" smooth="yes"/>
      <point x="937.5225292127769" y="851.1486383977453"/>
      <point x="837.7424350871925" y="1095.6810218107278"/>
      <point x="558.2121434299803" y="1102.5435108718827" type="curve" smooth="yes"/>
      <point x="255.57784138294903" y="1109.9732050743087"/>
      <point x="97.76494970020667" y="837.6019860062572"/>
      <point x="65.33184450698751" y="569.3239493541648" type="curve" smooth="yes"/>
      <point x="62.88137012797738" y="547.4086488236907" type="line" smooth="yes"/>
      <point x="39.8757414370954" y="321.49252605632887"/>
      <point x="148.21723367035787" y="172.5336482868148"/>
      <point x="265.2945572177561" y="-5.396198056473258" type="curve" smooth="yes"/>
      <point x="292.1056864685238" y="-46.14277445004634"/>
      <point x="318.52679063580797" y="-94.79565726979251"/>
      <point x="334.67801361611197" y="-140.96324260850784" type="curve"/>
      <point x="32.681188223875026" y="-141.18855587844487" type="line"/>
      <point x="-8.838184079056177" y="-374.901812025804" type="line"/>
    </contour>
    <contour>
      <point x="628.9893380949162" y="555.7338959135498" type="line" smooth="yes"/>
      <point x="617.7708445593964" y="448.9032043281204"/>
      <point x="588.7953652950312" y="221.51096699224152"/>
      <point x="435.7734769638232" y="231.09905454917006" type="curve" smooth="yes"/>
      <point x="427.5702270352861" y="231.61305603891734"/>
      <point x="419.50530255586784" y="233.81622972214916"/>
      <point x="412.9386853014363" y="238.8903866228451" type="curve" smooth="yes"/>
      <point x="327.00375177642246" y="305.29403389839274"/>
      <point x="329.2630561435605" y="453.3989068086598"/>
      <point x="338.25531344456357" y="548.2616139284227" type="curve" smooth="yes"/>
      <point x="340.3011961687229" y="568.8787983641342" type="line" smooth="yes"/>
      <point x="352.66219944364406" y="677.7866272584654"/>
      <point x="385.1710617953812" y="874.5688331668666"/>
      <point x="532.718947065548" y="869.3036389958551" type="curve" smooth="yes"/>
      <point x="666.9500336162412" y="864.5136500835696"/>
      <point x="639.0205942352438" y="663.9904352890359"/>
      <point x="630.9325365548667" y="577.0624816059453" type="curve" smooth="yes"/>
    </contour>
  </outline>
</glyph>
<glyph name="Eturn" format="2">
  <advance width="975"/>
  <unicode hex="018E"/>
  <outline>
    <contour>
      <point x="155.5723205046354" y="1212.0885129208084" type="line"/>
      <point x="770.3543132059986" y="1212.0754005768285" type="line"/>
      <point x="813.2439619527613" y="1455.9084882073714" type="line"/>
      <point x="198.46196925139708" y="1455.9216005513488" type="line"/>
    </contour>
    <contour>
      <point x="471.43701155387237" y="0.0" type="line"/>
      <point x="758.3471671805843" y="0.0" type="line"/>
      <point x="1011.0173125425413" y="1455.9350299624907" type="line"/>
      <point x="724.1071569158237" y="1455.9488969412455" type="line"/>
    </contour>
    <contour>
      <point x="129.13166264057884" y="589.0963582058199" type="line"/>
      <point x="662.4231171475144" y="589.0832558340186" type="line"/>
      <point x="704.0801071073436" y="825.9020513130431" type="line"/>
      <point x="170.78865260040214" y="825.915153684839" type="line"/>
    </contour>
    <contour>
      <point x="-52.47001752461942" y="0.0" type="line"/>
      <point x="560.3719314372446" y="0.0" type="line"/>
      <point x="603.4373602106152" y="244.90971710362953" type="line"/>
      <point x="-9.404588751241988" y="244.92282402001123" type="line"/>
    </contour>
  </outline>
</glyph>
<glyph name="Schwa" format="2">
  <advance width="1194"/>
  <unicode hex="018F"/>
  <anchor x="747.9920635163638" y="1600" name="top"/>
  <anchor x="481.2407618901817" y="0" name="bottom"/>
  <anchor x="1347.452063516364" y="1600" name="top0315"/>
  <anchor x="747.9920635163638" y="1600" name="parent_top"/>
  <outline>
    <contour>
      <point x="495.5007602797732" y="-21.110823242607434" type="curve" smooth="yes"/>
      <point x="858.2347619083066" y="-28.686467676081165"/>
      <point x="1064.621262365722" y="336.7022089503352"/>
      <point x="1112.3679898664718" y="651.4968082062119" type="curve" smooth="yes"/>
      <point x="1134.8279607187135" y="801.2643677468762" type="line" smooth="yes"/>
      <point x="1180.0976272046144" y="1140.4471775694592"/>
      <point x="1040.7907866055593" y="1471.3457862080897"/>
      <point x="658.8268145361922" y="1475.8709320696303" type="curve" smooth="yes"/>
      <point x="556.0674675027876" y="1477.088327080588"/>
      <point x="375.36743103470275" y="1469.121405101079"/>
      <point x="290.6428122131856" y="1399.2246700948212" type="curve"/>
      <point x="307.7931417873144" y="1148.4569954839808" type="line"/>
      <point x="408.9084489578494" y="1186.6611173178246"/>
      <point x="514.301660473611" y="1211.5736162176843"/>
      <point x="623.1311179482561" y="1208.735626656852" type="curve" smooth="yes"/>
      <point x="852.0464347392221" y="1202.7661098142385"/>
      <point x="872.8486095558134" y="985.1859374485673"/>
      <point x="848.0242747397083" y="801.7778866831034" type="curve" smooth="yes"/>
      <point x="825.8551793069043" y="650.7170693615884" type="line" smooth="yes"/>
      <point x="801.9306309358843" y="491.2568706169301"/>
      <point x="726.6758180050826" y="236.0877387976273"/>
      <point x="522.4317859405645" y="242.39179814619385" type="curve" smooth="yes"/>
      <point x="349.340339776728" y="247.73432266608458"/>
      <point x="327.91823439285724" y="408.7371010843581"/>
      <point x="351.59150464034127" y="549.2355900333629" type="curve" smooth="yes"/>
      <point x="357.92868592419086" y="582.7288259382043" type="line"/>
      <point x="889.1475032265755" y="582.0734297786147" type="line"/>
      <point x="932.3780485858722" y="827.9079617246971" type="line"/>
      <point x="106.77126817653048" y="827.9868567789495" type="line"/>
      <point x="80.64164213331166" y="664.732611609953" type="line" smooth="yes"/>
      <point x="37.51902033397726" y="349.7979630871432"/>
      <point x="115.69966213824029" y="-13.178735095244788"/>
    </contour>
  </outline>
</glyph>
<glyph name="florin" format="2">
  <advance width="657"/>
  <unicode hex="0192"/>
  <outline>
    <contour>
      <point x="667.0850804622571" y="1081.9461287377671" type="line"/>
      <point x="509.4471888658103" y="1081.9532542388076" type="line"/>
      <point x="522.5559430790274" y="1175.8945731566973" type="line" smooth="yes"/>
      <point x="534.6766669245128" y="1251.2311543496967"/>
      <point x="570.0250484806073" y="1323.2253702576936"/>
      <point x="655.9385180543192" y="1324.2110527973236" type="curve" smooth="yes"/>
      <point x="682.8041258323611" y="1324.5192810720605"/>
      <point x="709.1720852501031" y="1318.97660540977"/>
      <point x="734.827713039548" y="1311.708885469749" type="curve"/>
      <point x="777.034573912593" y="1538.3505202968843" type="line"/>
      <point x="729.8064272228664" y="1548.8932533017944"/>
      <point x="682.435100784284" y="1559.2405785189007"/>
      <point x="633.8167657815786" y="1559.8273414685289" type="curve" smooth="yes"/>
      <point x="397.6363418632268" y="1562.6777459954428"/>
      <point x="269.39646465769306" y="1397.2507637122833"/>
      <point x="243.4908050395395" y="1176.2045886364522" type="curve" smooth="yes"/>
      <point x="232.39795211297343" y="1082.4419579962423" type="line"/>
      <point x="106.41862660098803" y="1081.845555847812" type="line"/>
      <point x="73.33036716654095" y="869.0449569941272" type="line"/>
      <point x="199.52763369738068" y="868.9439765300885" type="line"/>
      <point x="59.17340806466899" y="-48.73184191919306" type="line" smooth="yes"/>
      <point x="50.51267597276672" y="-112.14954192955057"/>
      <point x="37.64144640675967" y="-204.5266494271817"/>
      <point x="-44.03632058559505" y="-205.76700526517726" type="curve" smooth="yes"/>
      <point x="-69.35735163201034" y="-206.15152959583665"/>
      <point x="-95.88695256052745" y="-198.16096742708672"/>
      <point x="-119.74323622970705" y="-190.59733760539925" type="curve"/>
      <point x="-155.4550797376046" y="-420.36515350399037" type="line"/>
      <point x="-111.81451273913649" y="-431.70492852089643"/>
      <point x="-68.65246971300053" y="-439.31367855387873"/>
      <point x="-23.41509365886975" y="-439.7315399497674" type="curve" smooth="yes"/>
      <point x="208.061126531402" y="-441.8697050008969"/>
      <point x="311.4215482409318" y="-256.10488422606306"/>
      <point x="335.98052129902555" y="-48.86448629273578" type="curve" smooth="yes"/>
      <point x="476.7871715896978" y="868.9282602475612" type="line"/>
      <point x="633.6585538596925" y="869.0617114728751" type="line"/>
    </contour>
  </outline>
</glyph>
<glyph name="Ghook" format="2">
  <advance width="1241"/>
  <unicode hex="0193"/>
  <outline>
    <contour>
      <point x="1142.7469936881753" y="992.993436994739" type="line"/>
      <point x="1172.0228663698294" y="1175.0384581861142" type="line" smooth="yes"/>
      <point x="1191.1758995362995" y="1275.7764830558242"/>
      <point x="1264.3917038362586" y="1336.4444262017628"/>
      <point x="1367.9193285693734" y="1331.5744957625811" type="curve" smooth="yes"/>
      <point x="1390.7372943361613" y="1330.5011406427825"/>
      <point x="1412.8925266912172" y="1325.3756762456678"/>
      <point x="1435.1008460346181" y="1320.5144273661938" type="curve"/>
      <point x="1460.8215463840413" y="1561.7000342933181" type="line"/>
      <point x="1416.8227770569852" y="1572.4355725467706"/>
      <point x="1372.9305593447534" y="1580.320695267754"/>
      <point x="1327.4876765161068" y="1580.8648369566765" type="curve" smooth="yes"/>
      <point x="1086.633519523421" y="1583.7488702664514"/>
      <point x="970.9817939540932" y="1389.9871138776766"/>
      <point x="942.1376669733495" y="1173.7348075959299" type="curve" smooth="yes"/>
      <point x="914.4454197112842" y="993.1137312444392" type="line"/>
    </contour>
    <contour>
      <point x="1103.360900927774" y="765.8345025881671" type="line"/>
      <point x="616.3194241716195" y="765.9220135105462" type="line"/>
      <point x="577.284733254153" y="544.0761486973095" type="line"/>
      <point x="778.7243680347815" y="543.9522570389798" type="line"/>
      <point x="727.3295614940774" y="276.573563518534" type="line"/>
      <point x="669.8780293593197" y="246.69913899628864"/>
      <point x="619.0276804774304" y="224.4290248031499"/>
      <point x="552.2306043144215" y="225.19219775512917" type="curve" smooth="yes"/>
      <point x="347.2032100521018" y="227.5346859402998"/>
      <point x="364.7980988237718" y="453.9804568188934"/>
      <point x="383.86295674468766" y="603.055785739455" type="curve" smooth="yes"/>
      <point x="419.58276111875864" y="853.4940838312642" type="line" smooth="yes"/>
      <point x="442.9963170292397" y="1022.7675356549589"/>
      <point x="499.3892111982082" y="1243.262941383316"/>
      <point x="711.3008604007094" y="1234.3193893866967" type="curve" smooth="yes"/>
      <point x="854.894926925424" y="1228.2591232087736"/>
      <point x="867.9502500478804" y="1114.9214305491803"/>
      <point x="868.3510487454148" y="992.4753470398231" type="curve"/>
      <point x="1146.5898978078576" y="991.9531880052197" type="line"/>
      <point x="1143.6653693974524" y="1276.009077086991"/>
      <point x="1030.5468463922466" y="1470.8548193265383"/>
      <point x="726.0437824330916" y="1477.436122824782" type="curve" smooth="yes"/>
      <point x="354.492299233434" y="1485.4665611539265"/>
      <point x="180.90698936502332" y="1180.8289764940507"/>
      <point x="132.62768766297268" y="850.8239103630231" type="curve" smooth="yes"/>
      <point x="95.29898587704896" y="603.6624359612033" type="line" smooth="yes"/>
      <point x="55.20698658709063" y="289.9610345820767"/>
      <point x="163.54248134841202" y="-14.505175860683028"/>
      <point x="520.8355857271833" y="-19.660544250155578" type="curve" smooth="yes"/>
      <point x="694.4244259602776" y="-22.165250914614973"/>
      <point x="891.3668848361312" y="31.282296968139548"/>
      <point x="1011.109166575033" y="165.08643774206092" type="curve"/>
    </contour>
  </outline>
</glyph>
<glyph name="Gamma1" format="2">
  <advance width="1176"/>
  <unicode hex="0194"/>
  <outline>
    <contour>
      <point x="184.2719373592638" y="1457.6588721867963" type="curve"/>
      <point x="473.3102150823062" y="120.32376789535587" type="line" smooth="yes"/>
      <point x="493.5276701359739" y="36.6469282731061"/>
      <point x="529.8661126173106" y="-58.49896043393066"/>
      <point x="516.875655356251" y="-146.2563906590453" type="curve" smooth="yes"/>
      <point x="512.3509253711317" y="-176.8233420739793"/>
      <point x="500.0127910242055" y="-227.65388834755348"/>
      <point x="459.38121569986765" y="-226.323752102484" type="curve" smooth="yes"/>
      <point x="425.6959339846712" y="-225.22101331431006"/>
      <point x="434.39379803628066" y="-176.80658575087665"/>
      <point x="437.26918028431123" y="-156.07626163747045" type="curve" smooth="yes"/>
      <point x="450.5848189949274" y="-60.07597978376023"/>
      <point x="509.9479518299746" y="33.99173491973106"/>
      <point x="553.0511864136836" y="118.53269766369526" type="curve" smooth="yes"/>
      <point x="1280.1845119212328" y="1455.093246206405" type="line"/>
      <point x="1168.7124384299875" y="1456.942689307843"/>
      <point x="1054.615068144175" y="1462.609194106391"/>
      <point x="943.3647762056316" y="1455.2927653906324" type="curve"/>
      <point x="476.96871471787426" y="476.851333457449" type="line" smooth="yes"/>
      <point x="382.44062040976" y="293.21180946264053"/>
      <point x="146.8409765207672" y="47.04903598568771"/>
      <point x="133.2146319278878" y="-166.01447958940363" type="curve" smooth="yes"/>
      <point x="121.66971613713312" y="-346.5324702089844"/>
      <point x="265.8325640914355" y="-434.81510241854136"/>
      <point x="430.9750953107631" y="-437.9626496160132" type="curve" smooth="yes"/>
      <point x="609.9171693134057" y="-441.3732102957983"/>
      <point x="763.9414529721571" y="-341.0545853187932"/>
      <point x="775.7680692436711" y="-151.9180079098441" type="curve" smooth="yes"/>
      <point x="788.684922761495" y="54.65413488795372"/>
      <point x="680.3542274312615" y="275.27171775848"/>
      <point x="646.8521477283541" y="476.71025906332693" type="curve" smooth="yes"/>
      <point x="509.1599233750727" y="1457.5598368857175" type="line"/>
      <point x="447.4374934340696" y="1456.6846922376467"/>
      <point x="145.9111577037329" y="1424.0803470281053"/>
    </contour>
  </outline>
</glyph>
<glyph name="Iota1" format="2">
  <advance width="646"/>
  <unicode hex="0196"/>
  <outline>
    <contour>
      <point x="553.7282100298546" y="1535.8742478282193" type="line"/>
      <point x="278.22617842371335" y="1535.947254255923" type="line"/>
      <point x="78.77301684100239" y="360.8497596856931" type="line"/>
      <point x="57.954784583613716" y="157.88250903938234"/>
      <point x="151.1440260649062" y="-16.74698244151022"/>
      <point x="371.61956161864134" y="-19.08311733488472" type="curve" smooth="yes"/>
      <point x="415.32831195012744" y="-19.54625051897576"/>
      <point x="458.0486087311534" y="-11.062809668403284"/>
      <point x="500.3180222741453" y="-0.8036558576923213" type="curve"/>
      <point x="500.9010959310832" y="226.3062713980966" type="line"/>
      <point x="475.86222445049475" y="221.33259366225394"/>
      <point x="450.30313454948464" y="216.22558839229063"/>
      <point x="424.5891468646073" y="217.68429069915837" type="curve" smooth="yes"/>
      <point x="348.976142536951" y="221.97366289586435"/>
      <point x="347.1452889309448" y="297.564072379178"/>
      <point x="353.91142164422865" y="357.4431948467336" type="curve"/>
    </contour>
  </outline>
</glyph>
<glyph name="Khook" format="2">
  <advance width="1099"/>
  <unicode hex="0198"/>
  <outline>
    <contour>
      <point x="549.295955663408" y="1455.9304024754558" type="line"/>
      <point x="261.4189450024994" y="1455.943537127587" type="line"/>
      <point x="8.750869985653068" y="0.0" type="line"/>
      <point x="296.62788064655757" y="0.0" type="line"/>
    </contour>
    <contour>
      <point x="672.0976486000365" y="0.0" type="line"/>
      <point x="998.0545682277284" y="0.0" type="line"/>
      <point x="713.1445333811039" y="862.2727220251141" type="line"/>
      <point x="478.8707803360277" y="679.2717660898193" type="line"/>
    </contour>
    <contour>
      <point x="693.9655659028693" y="1211.4313498892918" type="curve" smooth="yes"/>
      <point x="554.9759483032648" y="988.748813794052" type="line"/>
      <point x="319.0261158058781" y="658.6282771559218" type="line"/>
      <point x="324.7827754501049" y="356.31574620584007" type="line"/>
      <point x="669.2760533817171" y="723.5464511451536" type="line"/>
      <point x="921.9967675957905" y="1091.0573200608676" type="line" smooth="yes"/>
      <point x="948.9850122638502" y="1131.1202357636912"/>
      <point x="996.4404652254091" y="1225.1400897856045"/>
      <point x="1055.705344152972" y="1223.1935928492708" type="curve" smooth="yes"/>
      <point x="1076.8797726747434" y="1222.4981394712825"/>
      <point x="1091.88105928896" y="1208.110118061677"/>
      <point x="1107.5754582083648" y="1196.017672207939" type="curve"/>
      <point x="1228.136397272195" y="1415.6636146985963" type="line"/>
      <point x="1164.9353090913942" y="1450.5960689916342"/>
      <point x="1102.9859212143922" y="1479.3834297980068"/>
      <point x="1029.2695065373555" y="1480.4233114445465" type="curve" smooth="yes"/>
      <point x="869.1872084801214" y="1482.6815146468443"/>
      <point x="771.4065252605433" y="1331.5810720035477"/>
    </contour>
  </outline>
</glyph>
<glyph name="khook" format="2">
  <advance width="951"/>
  <unicode hex="0199"/>
  <guideline x="0.0" y="1557.0" angle="0.0" identifier="ayQyNfD9Al"/>
  <outline>
    <contour>
      <point x="455.98897263147" y="1062.9338575517781" type="line"/>
      <point x="179.75203276455636" y="1062.9468937041363" type="line"/>
      <point x="-4.830443834230792" y="0.0" type="line"/>
      <point x="271.4064960327077" y="0.0" type="line"/>
    </contour>
    <contour>
      <point x="1019.6745515853565" y="1081.577279959012" type="line"/>
      <point x="674.8052663296646" y="1081.6691623540728" type="line"/>
      <point x="436.72973464803147" y="769.8648640160718" type="line"/>
      <point x="221.94499007782196" y="512.8876248602623" type="line"/>
      <point x="287.11945825978955" y="283.6756229978668" type="line"/>
      <point x="550.8295508060663" y="536.2290947521078" type="line"/>
    </contour>
    <contour>
      <point x="542.2789549859134" y="0.0" type="line"/>
      <point x="844.500715706556" y="0.0" type="line"/>
      <point x="608.2877548945487" y="677.0647566716436" type="line"/>
      <point x="397.65942095619016" y="508.3428876758783" type="line"/>
    </contour>
    <contour>
      <point x="450.19659664249104" y="1031.9726236942802" type="line"/>
      <point x="479.4421573501621" y="1212.8765171360344" type="line" smooth="yes"/>
      <point x="495.8085047564465" y="1296.5455555305941"/>
      <point x="555.3479850738049" y="1359.7644281876342"/>
      <point x="644.863865468426" y="1356.6359815731678" type="curve" smooth="yes"/>
      <point x="663.2923432548116" y="1355.9919337384547"/>
      <point x="681.3384508119966" y="1351.5076141153106"/>
      <point x="699.2186615438749" y="1347.4732504381393" type="curve"/>
      <point x="713.6203931118479" y="1545.3046341113156" type="line"/>
      <point x="668.6534401631656" y="1555.1818805631701"/>
      <point x="622.9189108764123" y="1560.7013248766457"/>
      <point x="576.8061340427926" y="1561.056119652383" type="curve" smooth="yes"/>
      <point x="352.6846800965717" y="1562.7805250439221"/>
      <point x="228.62062930554524" y="1427.753142622575"/>
      <point x="201.3295020513691" y="1213.106577272094" type="curve" smooth="yes"/>
      <point x="174.45257263798885" y="1032.1531302139147" type="line"/>
    </contour>
  </outline>
</glyph>
<glyph name="mcapturn" format="2">
  <advance width="1536"/>
  <unicode hex="019C"/>
  <outline>
    <contour>
      <point x="1085.084364793246" y="265.0954556224144" type="line"/>
      <point x="1068.875451930415" y="0.0" type="line"/>
      <point x="1315.123731548187" y="0.0" type="line"/>
      <point x="1567.7954416530717" y="1455.9315629714536" type="line"/>
      <point x="1291.5737433109991" y="1455.946195546311" type="line"/>
    </contour>
    <contour>
      <point x="1155.7506683775196" y="503.4624900285189" type="line"/>
      <point x="1139.8318590505448" y="387.99233209879844"/>
      <point x="1098.3446201753177" y="206.13760642837866"/>
      <point x="945.4731209968991" y="215.63001995679326" type="curve" smooth="yes"/>
      <point x="854.4310832417138" y="221.28319059675096"/>
      <point x="874.9070235890983" y="366.33137237554985"/>
      <point x="881.1279534767797" y="423.8078888317479" type="curve"/>
      <point x="1054.6517778615778" y="1455.9301241323913" type="line"/>
      <point x="778.4473479986078" y="1455.9465182621584" type="line"/>
      <point x="604.2206815339646" y="426.6899222782002" type="line"/>
      <point x="583.2561385695197" y="237.86333387134584"/>
      <point x="600.0798312238828" y="-14.625778201800824"/>
      <point x="841.576975696732" y="-21.178750214552853" type="curve" smooth="yes"/>
      <point x="1118.9288165745004" y="-28.704631545052823"/>
      <point x="1210.3398850495146" y="285.18841287574946"/>
      <point x="1237.9274546383456" y="505.908054783291" type="curve"/>
    </contour>
    <contour>
      <point x="638.9762990808757" y="507.13483598527097" type="line"/>
      <point x="624.977278873935" y="391.2732493055109"/>
      <point x="588.1621628079304" y="206.07711117159823"/>
      <point x="433.11772728245876" y="215.6398733891867" type="curve" smooth="yes"/>
      <point x="342.1448257801287" y="221.25085982905773"/>
      <point x="362.7125612538387" y="366.5144941701961"/>
      <point x="368.9353386676091" y="423.8344933703337" type="curve"/>
      <point x="542.4940286327557" y="1455.9302787124936" type="line"/>
      <point x="266.28839544602755" y="1455.9465479052797" type="line"/>
      <point x="92.39662791920937" y="426.664222476576" type="line"/>
      <point x="71.11326630062189" y="232.44850493928197"/>
      <point x="80.9252662776978" y="-16.78897015326241"/>
      <point x="328.5883538527295" y="-21.37174393004921" type="curve" smooth="yes"/>
      <point x="614.2415130824079" y="-26.657488447699524"/>
      <point x="693.1027451272086" y="282.1069598103825"/>
      <point x="716.6977894192308" y="509.75216792085763" type="curve"/>
    </contour>
  </outline>
</glyph>
<glyph name="oi" format="2">
  <advance width="1300"/>
  <unicode hex="01A3"/>
  <guideline x="924.0" y="0.0" angle="90.0" identifier="hArGJdyxbx"/>
  <outline>
    <contour>
      <point x="409.4361096042503" y="215.66321384323686" type="curve" smooth="yes"/>
      <point x="281.4654062695296" y="218.88363131718097"/>
      <point x="324.4292109782696" y="450.67505159311804"/>
      <point x="332.1301503978837" y="525.2716453281889" type="curve" smooth="yes"/>
      <point x="334.95559553562043" y="552.9524081385216" type="line" smooth="yes"/>
      <point x="347.177259969176" y="663.2169081195925"/>
      <point x="370.66455446529835" y="876.3180324642237"/>
      <point x="525.5131397379124" y="868.8406621340862" type="curve" smooth="yes"/>
      <point x="565.7059076508199" y="866.8998228958783"/>
      <point x="587.9197070386438" y="847.0728419818408"/>
      <point x="605.3578501201958" y="812.965726024992" type="curve"/>
      <point x="561.1859029191156" y="563.1742788152766" type="line"/>
      <point x="833.6627597439847" y="544.8787684989143" type="line"/>
      <point x="884.0783243302842" y="865.2548401404351" type="line"/>
      <point x="827.3490411106866" y="1005.3557288049444"/>
      <point x="702.6316603496385" y="1097.7358607079948"/>
      <point x="549.7243781306619" y="1102.108701383515" type="curve" smooth="yes"/>
      <point x="241.94611789494155" y="1110.9105404841025"/>
      <point x="91.21582539766585" y="821.179401878786"/>
      <point x="58.375492690627155" y="553.3716360431514" type="curve" smooth="yes"/>
      <point x="55.04054314388996" y="524.4389582381405" type="line" smooth="yes"/>
      <point x="28.518909594416204" y="276.6187068589138"/>
      <point x="100.2827181082875" y="-13.162739975619584"/>
      <point x="397.48860311241174" y="-20.5558366507201" type="curve" smooth="yes"/>
      <point x="564.2504094073972" y="-24.70409285243059"/>
      <point x="697.1903631234017" y="52.91197580917316"/>
      <point x="780.3652230133415" y="195.44290823068124" type="curve"/>
      <point x="843.3609816119554" y="603.9057034252351" type="line"/>
      <point x="569.0074816572799" y="604.8468008876433" type="line"/>
      <point x="507.1036659199908" y="261.26578042093047" type="line"/>
      <point x="479.12898464312616" y="234.81864814832704"/>
      <point x="449.7610498220849" y="214.64842578058477"/>
    </contour>
    <contour>
      <point x="1282.8194603799905" y="1082.0175332802532" type="line"/>
      <point x="1081.8712204991639" y="1081.654955043246" type="line"/>
      <point x="781.6480918330586" y="943.5289583545195" type="line"/>
      <point x="729.016621477117" y="643.4146518316969" type="line"/>
      <point x="947.5881324970519" y="740.41313117137" type="line"/>
      <point x="746.4549326806679" y="-416.93258567211996" type="line"/>
      <point x="1022.6891447848568" y="-416.9458902788661" type="line"/>
    </contour>
  </outline>
</glyph>
<glyph name="YR" format="2">
  <advance width="1203"/>
  <unicode hex="01A6"/>
  <outline>
    <contour>
      <point x="245.48711053502154" y="1356.0878691607602" type="line"/>
      <point x="532.3938546183898" y="1356.0771045745166" type="line"/>
      <point x="568.4195753874943" y="1559.9139878272456" type="line"/>
      <point x="281.51283130411406" y="1559.92475241347" type="line"/>
    </contour>
    <contour>
      <point x="262.4080123205752" y="1456.1308849810791" type="line"/>
      <point x="9.718975605927511" y="0.0" type="line"/>
      <point x="297.5991539280173" y="0.0" type="line"/>
      <point x="507.6799419952358" y="1211.2376471913678" type="line"/>
      <point x="689.7875669376024" y="1209.75514931591" type="line" smooth="yes"/>
      <point x="803.9252751028762" y="1203.6223675157692"/>
      <point x="812.1879984088724" y="1092.602754417295"/>
      <point x="799.7793494778222" y="999.7151836367907" type="curve" smooth="yes"/>
      <point x="783.3615715393147" y="876.8164281964881"/>
      <point x="711.0395660205354" y="777.1275951965533"/>
      <point x="579.3868691289532" y="775.1448957999198" type="curve" smooth="yes"/>
      <point x="335.84106083990156" y="777.0635636220065" type="line"/>
      <point x="294.0070516367009" y="532.0846421740488" type="line"/>
      <point x="675.8544866894754" y="532.0515395120642" type="line"/>
      <point x="774.6876741427562" y="585.783970926558" type="line"/>
      <point x="968.0041607777499" y="675.5608026128538"/>
      <point x="1071.1133728472664" y="805.3492255643908"/>
      <point x="1088.9738577254948" y="1024.2734318995329" type="curve" smooth="yes"/>
      <point x="1110.35551001345" y="1286.3582123066194"/>
      <point x="963.5332811901114" y="1448.0491634260773"/>
      <point x="701.8953893940778" y="1454.6697820831134" type="curve" smooth="yes"/>
    </contour>
    <contour>
      <point x="735.3770225899266" y="-351.8989122189023" type="line"/>
      <point x="1042.3007249087411" y="-354.04361357367833" type="line"/>
      <point x="1042.7868061411698" y="-336.4628699415545" type="line"/>
      <point x="800.2948158983108" y="650.0550688957342" type="line"/>
      <point x="509.17129549453057" y="649.1025808672354" type="line"/>
    </contour>
  </outline>
</glyph>
<glyph name="tpalatalhook" format="2">
  <advance width="610"/>
  <unicode hex="01AB"/>
  <outline>
    <contour>
      <point x="289.91376129860765" y="124.90558043932059" type="line"/>
      <point x="267.07575471674465" y="-57.76837557079759" type="line"/>
      <point x="251.41278165479414" y="-141.66984144679986"/>
      <point x="191.4145359240919" y="-204.95996771636982"/>
      <point x="101.97011808354488" y="-201.7983408287306" type="curve" smooth="yes"/>
      <point x="83.69757584923886" y="-201.1524541179859"/>
      <point x="65.78602725075484" y="-196.73565885434815"/>
      <point x="48.046160043693035" y="-192.77030495694137" type="curve"/>
      <point x="29.637087313002027" y="-387.99196810058874" type="line"/>
      <point x="66.99414556339974" y="-397.75977615367043"/>
      <point x="103.9207938263653" y="-404.91093529584896"/>
      <point x="142.70495788087476" y="-405.235911806294" type="curve" smooth="yes"/>
      <point x="345.7003013673111" y="-406.93683072438887"/>
      <point x="437.45207420833765" y="-239.67730492700335"/>
      <point x="455.2669407490099" y="-57.76685758480043" type="curve" smooth="yes"/>
      <point x="460.8844211220937" y="7.224649189680907" type="line"/>
    </contour>
    <contour>
      <point x="644.6618083405613" y="1081.9031334543918" type="line"/>
      <point x="106.52116381817028" y="1081.9161069376642" type="line"/>
      <point x="68.9831228722869" y="869.0934827771787" type="line"/>
      <point x="607.1237673946754" y="869.080509293913" type="line"/>
    </contour>
    <contour>
      <point x="274.9296709633616" y="1348.9488553144422" type="line"/>
      <point x="98.74938213185753" y="300.90549294301746" type="line"/>
      <point x="83.45193915259674" y="133.80522197972815"/>
      <point x="139.6805469486963" y="-15.234230834738257"/>
      <point x="326.74535742981624" y="-18.540328055947565" type="curve" smooth="yes"/>
      <point x="377.0738507668229" y="-19.429810645116426"/>
      <point x="426.0606723028658" y="-11.831715057977384"/>
      <point x="473.0284059967652" y="6.211948626168804" type="curve"/>
      <point x="496.0036660595998" y="229.03718721685456" type="line"/>
      <point x="473.7410676394814" y="225.4906783120538"/>
      <point x="451.3590557064862" y="221.6311292604942"/>
      <point x="428.6849459173867" y="222.57833178150858" type="curve" smooth="yes"/>
      <point x="365.3664638570847" y="225.2234378691203"/>
      <point x="370.9233575098141" y="277.4907591451986"/>
      <point x="376.75458028003806" y="328.9415832064541" type="curve"/>
      <point x="549.511470000241" y="1348.8796990083501" type="line"/>
    </contour>
  </outline>
</glyph>
<glyph name="Thook" format="2">
  <advance width="1248"/>
  <unicode hex="01AC"/>
  <outline>
    <contour>
      <point x="997.4357750490262" y="1455.930671535879" type="line"/>
      <point x="710.529220342053" y="1455.9441802083372" type="line"/>
      <point x="457.86002630054975" y="0.0" type="line"/>
      <point x="744.766581007519" y="0.0" type="line"/>
    </contour>
    <contour>
      <point x="1347.7102161233872" y="1455.9054015960994" type="line"/>
      <point x="597.139009234827" y="1455.9188333089526" type="line"/>
      <point x="554.0734761150923" y="1211.0936339099183" type="line"/>
      <point x="1304.6446830036548" y="1211.0802021970765" type="line"/>
    </contour>
    <contour>
      <point x="691.5895630723087" y="1211.0314942418318" type="line"/>
      <point x="734.6414216616471" y="1455.8402878403454" type="line"/>
      <point x="516.5831395330341" y="1457.9149678765102" type="line" smooth="yes"/>
      <point x="283.9428375231131" y="1459.3151100588161"/>
      <point x="146.1428285838383" y="1304.3074025372612"/>
      <point x="126.1497019259039" y="1078.924547517119" type="curve" smooth="yes"/>
      <point x="121.98404671486055" y="1031.965045856488"/>
      <point x="122.86243843185538" y="985.6566552996222"/>
      <point x="128.01368620589807" y="938.854424890704" type="curve"/>
      <point x="349.6566391096983" y="939.0617332003679" type="line"/>
      <point x="349.3236485505455" y="967.9198960963419"/>
      <point x="349.3154854223584" y="996.6699939289595"/>
      <point x="352.7313232708353" y="1025.3838297510383" type="curve" smooth="yes"/>
      <point x="363.29555387144165" y="1114.1876888650336"/>
      <point x="396.1185303246986" y="1209.3467015632796"/>
      <point x="499.44456404243783" y="1213.459401871833" type="curve"/>
    </contour>
  </outline>
</glyph>
<glyph name="thook" format="2">
  <advance width="663"/>
  <unicode hex="01AD"/>
  <outline>
    <contour>
      <point x="501.98049304874644" y="1050.9718704104957" type="line"/>
      <point x="531.4286334181347" y="1231.8480197449842" type="line" smooth="yes"/>
      <point x="548.1009330243835" y="1316.0742898936837"/>
      <point x="607.3648968776712" y="1377.457530613928"/>
      <point x="696.9214172087638" y="1374.6951032068448" type="curve" smooth="yes"/>
      <point x="715.441377737876" y="1374.1238433325825"/>
      <point x="733.0218348281256" y="1369.8393163315607"/>
      <point x="750.899447029308" y="1365.4852337249426" type="curve"/>
      <point x="765.1510228802184" y="1563.7948451377633" type="line"/>
      <point x="719.4271921931028" y="1573.701989159106"/>
      <point x="673.9401593906614" y="1578.659037688665"/>
      <point x="627.1124289115052" y="1579.2009887803079" type="curve" smooth="yes"/>
      <point x="407.26936080679695" y="1581.7452972387862"/>
      <point x="278.0404146020572" y="1445.1529033014685"/>
      <point x="252.39353761497108" y="1231.1677688770085" type="curve" smooth="yes"/>
      <point x="227.05488871330584" y="1051.1921194116806" type="line"/>
    </contour>
    <contour>
      <point x="648.5392567567269" y="1081.9029814913356" type="line"/>
      <point x="110.40535108906904" y="1081.915808704552" type="line"/>
      <point x="72.86797590200375" y="869.0951505959362" type="line"/>
      <point x="611.0018815696429" y="869.0823233826801" type="line"/>
    </contour>
    <contour>
      <point x="244.1504246483205" y="1148.9490494249621" type="line"/>
      <point x="103.59514840992885" y="307.85636345554366" type="line"/>
      <point x="88.02781775974822" y="141.27257010824343"/>
      <point x="141.8976601059944" y="-14.63831223896277"/>
      <point x="330.6827086850161" y="-17.870638583196367" type="curve" smooth="yes"/>
      <point x="380.8931535262827" y="-18.730328186995578"/>
      <point x="429.8973855225401" y="-11.344517535981812"/>
      <point x="476.8398210609233" y="6.4647565712864" type="curve"/>
      <point x="499.928732949557" y="229.17180688896306" type="line"/>
      <point x="477.7753096897822" y="225.6704771791949"/>
      <point x="455.3621298911109" y="221.7043875412675"/>
      <point x="432.80062545101725" y="222.82572712485847" type="curve" smooth="yes"/>
      <point x="367.4428818327842" y="226.0741020374408"/>
      <point x="375.7425773438936" y="286.0494535508295"/>
      <point x="381.7168187281084" y="337.3346987306202" type="curve"/>
      <point x="518.909832619152" y="1148.8941842616077" type="line"/>
    </contour>
  </outline>
</glyph>
